<svg width="35" height="26" viewBox="0 0 35 26" fill="none" xmlns="http://www.w3.org/2000/svg">
<g clip-path="url(#clip0_51_124)">
<path d="M27.0581 21.6304C26.8247 21.4496 26.6674 21.2725 26.4682 21.1933C26.3414 21.1413 26.1308 21.1933 25.9837 21.2589C24.1181 22.0588 22.1452 22.595 20.1245 22.8513C16.3191 23.3281 12.6557 22.7733 9.13187 21.3072C8.56612 21.0719 8.42532 21.1103 7.99023 21.6613C8.10287 21.7393 8.21974 21.8112 8.34033 21.8768C9.07986 22.2235 9.81558 22.5801 10.5665 22.8996C10.8405 23.016 10.8798 23.125 10.7302 23.359C10.2075 24.1763 9.68958 24.9964 9.17626 25.8195C9.06464 25.9978 8.93779 26.0349 8.73103 25.9705C5.73199 25.043 2.90774 23.6449 0.369182 21.831C0.235985 21.7252 0.149299 21.5737 0.126902 21.4075C-0.253643 17.2122 0.215696 13.1074 1.67826 9.12755C2.55759 6.75496 3.73212 4.49678 5.17547 2.40373C5.38177 2.12408 5.67083 1.91277 6.00379 1.79822C7.37629 1.34377 8.76401 0.931428 10.1555 0.530228C10.8392 0.332104 11.5433 0.2058 12.2333 0.0274891C12.4946 -0.0406159 12.6265 0.036157 12.7407 0.263999C12.9386 0.68625 13.1809 1.08869 13.3635 1.51713C13.4688 1.76478 13.6033 1.80689 13.8519 1.77221C15.5737 1.52953 17.3166 1.4623 19.0527 1.57161C19.777 1.61991 20.4987 1.69544 21.2192 1.78088C21.3032 1.80345 21.3928 1.79284 21.4688 1.75136C21.5448 1.70987 21.6009 1.64085 21.6252 1.55923C21.8357 1.10479 22.0793 0.663961 22.3 0.214468C22.3926 0.0262508 22.5118 -0.0331863 22.7249 0.0212977C24.7266 0.577282 26.7295 1.12336 28.7299 1.67811C29.3287 1.84403 29.7447 2.20561 30.0796 2.73188C32.1003 5.85232 33.6161 9.17089 34.3924 12.799C34.993 15.6247 35.1555 18.5224 34.8745 21.3951C34.8507 21.57 34.7601 21.7297 34.6208 21.8421C32.1163 23.627 29.3359 25.0098 26.3845 25.9383C26.0763 26.0362 25.9088 25.9841 25.7503 25.7192C25.2644 24.9217 24.7647 24.1317 24.2623 23.3429C24.1203 23.1188 24.1659 23.016 24.4196 22.9058C25.1807 22.5777 25.9266 22.2186 26.6775 21.8669C26.8084 21.7944 26.9354 21.7154 27.0581 21.6304ZM8.48494 14.3035C8.61179 14.784 8.6676 15.2941 8.85787 15.7424C9.32341 16.8494 10.1479 17.5837 11.4063 17.7199C12.5606 17.8437 13.4942 17.3707 14.1348 16.4519C15.0379 15.1555 15.1102 13.7661 14.3149 12.404C13.1796 10.4612 10.5957 10.3373 9.25998 12.1353C8.78303 12.7705 8.55851 13.4974 8.48494 14.3035ZM26.4429 14.4633C26.4429 13.6138 26.2589 12.9501 25.9088 12.3755C24.7672 10.5008 22.2594 10.3472 20.9047 12.0672C19.7871 13.4875 19.9482 15.6693 21.2649 16.9175C21.7969 17.4386 22.5175 17.7345 23.2711 17.7412C24.0247 17.7479 24.7507 17.4649 25.2923 16.9534C25.6469 16.636 25.9317 16.2517 26.1294 15.8236C26.3272 15.3956 26.4338 14.9328 26.4429 14.4633Z" fill="white"/>
</g>
<defs>
<clipPath id="clip0_51_124">
<rect width="35" height="26" fill="white"/>
</clipPath>
</defs>
</svg>
