<svg id="Layer_1" data-name="Layer 1" xmlns="http://www.w3.org/2000/svg" xmlns:xlink="http://www.w3.org/1999/xlink" viewBox="0 0 329.19 287.83"><defs><style>.cls-1{fill:url(#linear-gradient);}</style><linearGradient id="linear-gradient" x1="112.52" y1="245.07" x2="216.67" y2="64.67" gradientUnits="userSpaceOnUse"><stop offset="0" stop-color="#0000fc"/><stop offset="0.03" stop-color="#1712ea"/><stop offset="0.09" stop-color="#4536c6"/><stop offset="0.15" stop-color="#6e56a5"/><stop offset="0.22" stop-color="#927289"/><stop offset="0.3" stop-color="#b08971"/><stop offset="0.38" stop-color="#c89c5e"/><stop offset="0.47" stop-color="#dbab4f"/><stop offset="0.58" stop-color="#e8b545"/><stop offset="0.72" stop-color="#f0bb3f"/><stop offset="1" stop-color="#f2bd3d"/></linearGradient></defs><path class="cls-1" d="M105.22,111.52c-4-.36-6.32,2.84-7.56,6.74l-5.3,1.23,0,.16,3.11,1.29c-1.49,1.31-3,2.55-4.37,3.86a19,19,0,0,0-5.54,8,12.69,12.69,0,0,0-.14,7.25c.13.53.14.89-.38,1.24a3.73,3.73,0,0,0-.91,1.06.75.75,0,0,0,0,.64c.05.1.41.15.55.08.62-.32,1,.14,1.27.47.13.15,0,.63-.12.9-.61,1.35-1.23,2.7-1.91,4a8.85,8.85,0,0,0-1.16,5.86,6.14,6.14,0,0,0,.34.9h.22l.32-.94.92-.05c.24,1.78.4,3.52.7,5.23.85,4.81,3.38,8.36,8,10.26a6.36,6.36,0,0,1,4.12,5.83,22,22,0,0,0,3.51,9.68,3.61,3.61,0,0,0,.33.44c.56.61.74.6,1.23-.13a2,2,0,0,0,1.87,1.19,2.08,2.08,0,0,1,1.77,1.41c1,2.41,2.07,4.78,3,7.21,1.22,3.18,2.56,6.27,5,8.75a15.1,15.1,0,0,0,7.74,4,4,4,0,0,1,1.46.67,35.17,35.17,0,0,0,12.05,5.94l.75.16c.45-2.4.81-4.74,1.33-7.05.68-3,1.47-6,2.26-9a.94.94,0,0,0-.35-1.18,29.93,29.93,0,0,1-8.4-11.24c-1.18-2.57-2.13-5.25-3.06-7.93a5.92,5.92,0,0,1-.19-2.62,2,2,0,0,1,3-1.53,7,7,0,0,1,2,1.63,16.7,16.7,0,0,1,1.87,2.78c2.19,4.12,4.51,8.18,5.75,12.72.26.93.45,1.87.69,2.92.11-.22.19-.38.26-.54,1.49-3.75,3-7.51,4.5-11.24.23-.56-.1-.86-.2-1.28-.35-1.5-.73-3-1-4.49a89.43,89.43,0,0,1-1.89-15.9c-.06-2.34-.18-4.68-.12-7a6.3,6.3,0,0,1,.73-2.6,2,2,0,0,1,3.53-.22,10.27,10.27,0,0,1,1.61,4.45,87.42,87.42,0,0,1,1.4,14.62c0,1.46-.12,2.91-.19,4.47.15-.21.27-.36.37-.52,2.21-3.71,4.39-7.45,6.68-11.11a2.54,2.54,0,0,0,.37-1.94c-.25-2.2-.39-4.42-.43-6.63a75,75,0,0,1,1.08-16.59,13.69,13.69,0,0,1,4.44-8,1.5,1.5,0,0,1,1.21-.37,1.63,1.63,0,0,1,.73,1.14,53.71,53.71,0,0,1-2.66,25.26.84.84,0,0,0,0,.55c.22-.28.44-.56.67-.83,3-3.53,6.11-7.06,9.14-10.61a1.73,1.73,0,0,0,.24-.85c.16-1.08.23-2.17.44-3.24a50.24,50.24,0,0,1,9.5-20.37c1.88-2.5,4-4.78,6.08-7.14a1.75,1.75,0,0,1,1-.55c.68-.11,1.09.47,1,1.24A43.7,43.7,0,0,1,186,125a69,69,0,0,1-7.88,13,.46.46,0,0,0-.11.34l1-.87,1-.93a107.11,107.11,0,0,1,17-13.57,37.15,37.15,0,0,1,12.43-5.31,6,6,0,0,1,1.78-.2,1.53,1.53,0,0,1,1.11.63,1.37,1.37,0,0,1-.34,1.22c-2.14,1.83-4.27,3.68-6.52,5.36-4.39,3.29-9.27,5.8-14,8.58-3.83,2.27-7.58,4.68-11.36,7a2.08,2.08,0,0,0-.74.76l.64-.21a64.29,64.29,0,0,1,19.76-3.55l2.9,0a1.22,1.22,0,0,1,1.31.89c.21.65-.19,1-.69,1.32a41.25,41.25,0,0,1-24.36,6.58c-1.22-.06-2.43-.31-3.65-.42a1.49,1.49,0,0,0-1,.27,142.73,142.73,0,0,0-11.56,13.26,1.78,1.78,0,0,0-.16.29c1.84-.78,3.61-1.6,5.42-2.29A55.32,55.32,0,0,1,188,153.71c.61,0,1.16.09,1.38.77s-.28,1-.72,1.32a41.56,41.56,0,0,1-28.48,8.55,2,2,0,0,0-2.11,1.05,131.24,131.24,0,0,0-7.78,13.2c-.13.25-.25.51-.45.92.36-.1.59-.15.81-.22a97.91,97.91,0,0,1,17.56-4.07c2.06-.31,4.13-.54,6.2-.82a1.19,1.19,0,0,1,1.39.61c.3.62-.05,1-.48,1.42a25.77,25.77,0,0,1-13.73,6.29,47,47,0,0,1-12.7.1.74.74,0,0,0-.93.54l-5.38,13.32a5.62,5.62,0,0,0-.11,1.14c2.12-1.13,4-2.17,6-3.18a51.31,51.31,0,0,1,12.29-4.93,11,11,0,0,1,4.73-.26c1.63.36,2.13,1.39,1.38,2.89a9.32,9.32,0,0,1-3,3.34,31.2,31.2,0,0,1-12.12,5,57.91,57.91,0,0,1-7,.94,5.62,5.62,0,0,1-3.62-.76c-.64,2.1-1.31,4.18-1.89,6.28-.82,2.93-1.43,5.93-2.38,8.82-2.8,8.47-5.89,16.83-10.79,24.36-.82,1.26-1.85,2.39-2.76,3.59-1.22,1.6-2.41,3.2-3.69,4.9-.77-.37-1.63-.78-2.48-1.21a104.51,104.51,0,0,1-54.3-70.52,100.13,100.13,0,0,1-2.28-26.73c1.17-24.21,9.62-45.58,25.53-63.87A102.54,102.54,0,0,1,138.69,54a99,99,0,0,1,20.76-3.12c22.45-1,43.22,4.45,62,16.78a102.88,102.88,0,0,1,42.12,54.8,100,100,0,0,1,4.82,24.16A104.22,104.22,0,0,1,192,255.39a1.15,1.15,0,0,1-1.26-.3c-1.15-1.16-2.38-2.26-3.46-3.49a4.71,4.71,0,0,1-.94-4.75,65.34,65.34,0,0,1,3.9-9.44,198.8,198.8,0,0,0,7.88-19,69.71,69.71,0,0,0,2.68-9.86,16.5,16.5,0,0,1,3.87-7.75,2.81,2.81,0,0,1,2.13-1.05c4.77-.17,9.54-.36,14.3-.71,3.11-.22,6.22-.61,9.31-1.1,3.34-.52,4.92-2.25,5.43-5.63a22.79,22.79,0,0,0-.39-8.23,2.13,2.13,0,0,1,.38-1.91c.56-.69,1.13-1.37,1.68-2.06s.93-1.13,1.33-1.74a1.36,1.36,0,0,0-.2-2c-.52-.55-1.11-1-1.6-1.6a1.79,1.79,0,0,1,.1-2.82c.51-.52,1.07-1,1.6-1.5a2.3,2.3,0,0,0,.59-2.71c-.32-.77-.77-1.47-1.11-2.23s-.72-1.78-1.06-2.68c-.19-.5,0-.78.47-1.05,1.94-1.18,3.88-2.36,5.75-3.63a5.26,5.26,0,0,0,2.54-3.6,1.39,1.39,0,0,0-.59-1.48c-2-1.53-4-3.17-6-4.61a43.09,43.09,0,0,1-7.91-7.41c-.65-.75-1.22-1.56-1.89-2.29a7.07,7.07,0,0,1-1.55-6.93c.63-2.42,1.4-4.8,2.15-7.18a1.35,1.35,0,0,0-.08-1.22q-4.92-8.32-9.77-16.66a5.38,5.38,0,0,1-.34-1.16,31.85,31.85,0,0,0-1.21-3.77,58.55,58.55,0,0,0-5.93-9.73,13,13,0,0,0-5.21-3.91,49.93,49.93,0,0,0-12.78-3.75,167.58,167.58,0,0,0-17.17-1.92,35.37,35.37,0,0,1-4.72-1,74.65,74.65,0,0,0-12.35-1.92,32.75,32.75,0,0,0-7.51.9,47.62,47.62,0,0,0-14.17,5,32.87,32.87,0,0,0-6.45,4.8,5.94,5.94,0,0,1-1.48,1.13c-3,1.43-5.35,3.71-7.69,6s-4.3,4.4-6.46,6.59a11,11,0,0,1-8,3.66,3.12,3.12,0,0,0-3.17,2.43C105.45,110.51,105.35,111,105.22,111.52Z"/></svg>