<svg width="99" height="25" viewBox="0 0 99 25" fill="none" xmlns="http://www.w3.org/2000/svg">
<path d="M28.8202 24.5236L22.8582 0.482056H27.4052L32.3605 21.6023H32.8303L37.7857 0.482056H42.3383L36.3818 24.5236H28.8202Z" fill="white"/>
<path d="M52.8474 25C51.3252 25.0315 49.8208 24.6599 48.4793 23.9211C47.2317 23.2119 46.2087 22.1502 45.5318 20.8621C44.8034 19.4268 44.4416 17.8253 44.4804 16.2076V15.8001C44.4424 14.1844 44.7981 12.5845 45.5151 11.1456C46.1791 9.85926 47.1909 8.79705 48.429 8.08657C49.7639 7.34646 51.2633 6.97467 52.7802 7.0076C54.2699 6.97127 55.7405 7.35648 57.0309 8.12101C58.2254 8.86493 59.1939 9.93628 59.8273 11.2144C60.5187 12.639 60.8622 14.2147 60.8284 15.8058V17.275H48.7645C48.7684 17.818 48.8834 18.354 49.1021 18.8483C49.3208 19.3427 49.6384 19.7843 50.0341 20.1447C50.8478 20.876 51.9004 21.2654 52.9816 21.2351C53.9195 21.3117 54.8513 21.025 55.5935 20.4316C56.1253 19.94 56.5568 19.345 56.8631 18.6812L60.3083 20.5349C59.9277 21.2322 59.4739 21.8847 58.9548 22.4805C58.2919 23.2309 57.4894 23.8378 56.5946 24.2654C55.415 24.7954 54.1343 25.0465 52.8474 25ZM48.7981 14.0439H56.561C56.5327 13.5907 56.4162 13.148 56.2183 12.7419C56.0204 12.3358 55.7452 11.9745 55.4089 11.6793C54.6276 11.0974 53.6869 10.784 52.7215 10.784C51.7561 10.784 50.8154 11.0974 50.0341 11.6793C49.3584 12.2893 48.9196 13.1288 48.7981 14.0439Z" fill="white"/>
<path d="M64.5925 24.5236V0.482056H68.7927V24.5236H64.5925Z" fill="white"/>
<path d="M75.6049 5.49823C74.8913 5.51588 74.1998 5.2436 73.6809 4.74066C73.419 4.48537 73.2131 4.17567 73.0771 3.83225C72.9412 3.48882 72.8781 3.11956 72.8923 2.74915C72.8774 2.37865 72.9401 2.00917 73.0761 1.66563C73.2122 1.32209 73.4184 1.01247 73.6809 0.757646C74.2122 0.269603 74.9002 -0.000244141 75.6133 -0.000244141C76.3263 -0.000244141 77.0143 0.269603 77.5456 0.757646C77.8006 1.01662 77.9997 1.3278 78.1297 1.67091C78.2598 2.01403 78.3181 2.38141 78.3007 2.74915C78.3152 3.11807 78.254 3.48601 78.121 3.82909C77.9881 4.17217 77.7863 4.48275 77.5288 4.74066C77.0103 5.24414 76.3185 5.5165 75.6049 5.49823ZM73.4964 24.5237V7.46104H77.7414V24.5237H73.4964Z" fill="white"/>
<path d="M80.9237 24.5236L86.9473 15.9148L80.9908 7.46094H85.879L89.6599 13.1313H90.2639L94.0447 7.46094H98.9329L92.9764 15.9378L99 24.5466H94.0447L90.2639 18.8074H89.6599L85.879 24.5466L80.9237 24.5236Z" fill="white"/>
<path d="M0.659963 12.2934C0.867837 12.0791 1.11492 11.9091 1.38702 11.793C1.65913 11.677 1.95089 11.6173 2.24555 11.6173C2.54022 11.6173 2.83198 11.677 3.10408 11.793C3.37618 11.9091 3.62327 12.0791 3.83114 12.2934L7.91955 16.4888C8.12753 16.704 8.37496 16.8748 8.64758 16.9913C8.9202 17.1079 9.21261 17.1679 9.50794 17.1679C9.80327 17.1679 10.0957 17.1079 10.3683 16.9913C10.6409 16.8748 10.8884 16.704 11.0963 16.4888L15.1791 12.2934C15.3871 12.0783 15.6346 11.9075 15.9072 11.7909C16.1798 11.6744 16.4722 11.6144 16.7675 11.6144C17.0629 11.6144 17.3553 11.6744 17.6279 11.7909C17.9005 11.9075 18.1479 12.0783 18.3559 12.2934C18.5656 12.5069 18.732 12.7608 18.8456 13.0405C18.9592 13.3203 19.0177 13.6203 19.0177 13.9234C19.0177 14.2264 18.9592 14.5265 18.8456 14.8062C18.732 15.086 18.5656 15.3399 18.3559 15.5533L12.6847 21.3729C12.6847 22.2374 12.35 23.0666 11.7543 23.6779C11.1585 24.2893 10.3505 24.6327 9.50794 24.6327C8.66541 24.6327 7.85738 24.2893 7.26162 23.6779C6.66586 23.0666 6.33117 22.2374 6.33117 21.3729L0.659963 15.5533C0.450278 15.3399 0.283846 15.086 0.170268 14.8062C0.0566902 14.5265 -0.00178528 14.2264 -0.00178528 13.9234C-0.00178528 13.6203 0.0566902 13.3203 0.170268 13.0405C0.283846 12.7608 0.450278 12.5069 0.659963 12.2934Z" fill="#F4C245"/>
<path d="M0.659964 1.14785C0.867837 0.933545 1.11492 0.763489 1.38702 0.647452C1.65913 0.531414 1.95089 0.47168 2.24555 0.47168C2.54022 0.47168 2.83198 0.531414 3.10408 0.647452C3.37618 0.763489 3.62327 0.933545 3.83114 1.14785L7.91955 5.33747C8.12753 5.55264 8.37496 5.72343 8.64758 5.83998C8.9202 5.95653 9.21261 6.01653 9.50794 6.01653C9.80327 6.01653 10.0957 5.95653 10.3683 5.83998C10.6409 5.72343 10.8883 5.55264 11.0963 5.33747L15.1791 1.14785C15.5997 0.715565 16.1703 0.472407 16.7656 0.471869C17.3608 0.471331 17.9319 0.713457 18.3531 1.14498C18.7744 1.57651 19.0113 2.16208 19.0119 2.77289C19.0124 3.38369 18.7764 3.9697 18.3559 4.40198L12.6847 10.1986C12.6847 11.0632 12.35 11.8923 11.7543 12.5037C11.1585 13.115 10.3505 13.4585 9.50794 13.4585C8.66541 13.4585 7.85738 13.115 7.26162 12.5037C6.66586 11.8923 6.33117 11.0632 6.33117 10.1986L0.659964 4.37329C0.246683 3.94365 0.0149536 3.36426 0.0149536 2.76057C0.0149536 2.15688 0.246683 1.57749 0.659964 1.14785Z" fill="#F4C245"/>
</svg>
