<svg width="32" height="32" viewBox="0 0 32 32" fill="none" xmlns="http://www.w3.org/2000/svg">
<g clip-path="url(#clip0_114_263)">
<path d="M15.9994 31.9989C24.8357 31.9989 31.9989 24.8357 31.9989 15.9994C31.9989 7.16319 24.8357 0 15.9994 0C7.16319 0 0 7.16319 0 15.9994C0 24.8357 7.16319 31.9989 15.9994 31.9989Z" fill="#0000FE"/>
<path d="M10.6413 16.7829C10.8964 16.5279 11.2424 16.3846 11.6031 16.3846C11.9638 16.3846 12.3098 16.5279 12.5649 16.7829L15.0383 19.2563C15.2933 19.5114 15.6393 19.6547 16 19.6547C16.3607 19.6547 16.7067 19.5114 16.9618 19.2563L19.4352 16.7829C19.5614 16.6567 19.7112 16.5565 19.8762 16.4882C20.0411 16.4198 20.2178 16.3847 20.3964 16.3847C20.5749 16.3847 20.7517 16.4198 20.9166 16.4882C21.0815 16.5565 21.2314 16.6567 21.3576 16.7829C21.4838 16.9091 21.584 17.059 21.6523 17.2239C21.7206 17.3888 21.7558 17.5656 21.7558 17.7441C21.7558 17.9226 21.7206 18.0994 21.6523 18.2643C21.584 18.4293 21.4838 18.5791 21.3576 18.7053L17.923 22.141C17.923 22.6512 17.7203 23.1404 17.3596 23.5012C16.9989 23.8619 16.5096 24.0645 15.9995 24.0645C15.4893 24.0645 15.0001 23.8619 14.6393 23.5012C14.2786 23.1404 14.0759 22.6512 14.0759 22.141L10.6413 18.7053C10.5151 18.5791 10.4149 18.4293 10.3466 18.2643C10.2783 18.0994 10.2431 17.9226 10.2431 17.7441C10.2431 17.5656 10.2783 17.3888 10.3466 17.2239C10.4149 17.059 10.5151 16.9091 10.6413 16.7829Z" fill="white"/>
<path d="M10.6413 10.1876C10.8964 9.9325 11.2424 9.78922 11.6031 9.78922C11.9638 9.78922 12.3098 9.9325 12.5649 10.1876L15.0383 12.661C15.2933 12.916 15.6393 13.0593 16 13.0593C16.3607 13.0593 16.7067 12.916 16.9618 12.661L19.4352 10.1876C19.5614 10.0613 19.7112 9.9612 19.8762 9.89289C20.0411 9.82458 20.2179 9.78941 20.3964 9.78941C20.5749 9.78941 20.7516 9.82458 20.9166 9.89289C21.0815 9.9612 21.2313 10.0613 21.3576 10.1876C21.4838 10.3138 21.5839 10.4636 21.6522 10.6286C21.7205 10.7935 21.7557 10.9702 21.7557 11.1488C21.7557 11.3273 21.7205 11.504 21.6522 11.6689C21.5839 11.8339 21.4838 11.9837 21.3576 12.1099L17.923 15.5457C17.923 16.0558 17.7203 16.5451 17.3596 16.9058C16.9989 17.2665 16.5096 17.4692 15.9995 17.4692C15.4893 17.4692 15.0001 17.2665 14.6393 16.9058C14.2786 16.5451 14.0759 16.0558 14.0759 15.5457L10.6413 12.1099C10.5151 11.9837 10.4149 11.8339 10.3466 11.669C10.2783 11.504 10.2431 11.3273 10.2431 11.1488C10.2431 10.9702 10.2783 10.7935 10.3466 10.6285C10.4149 10.4636 10.5151 10.3138 10.6413 10.1876Z" fill="white"/>
</g>
<defs>
<clipPath id="clip0_114_263">
<rect width="32" height="32" fill="white"/>
</clipPath>
</defs>
</svg>
