<svg id="Layer_1" data-name="Layer 1" xmlns="http://www.w3.org/2000/svg" xmlns:xlink="http://www.w3.org/1999/xlink" viewBox="0 0 199.34 175.69"><defs><style>.cls-1{isolation:isolate;}.cls-2{fill:#ab291d;}.cls-3{fill:#9b2616;}.cls-4{fill:#6c1a0f;}.cls-5{fill:#c5c5c5;}.cls-6{fill:#898989;}.cls-7{fill:#dcdcdc;}.cls-8{fill:#de361f;}.cls-9{fill:#ef881f;}.cls-10{fill:#e88102;}.cls-11{fill:#8a4c01;}.cls-12{fill:url(#linear-gradient);}.cls-13{fill:#fff;}</style><linearGradient id="linear-gradient" x1="20.96" y1="69.11" x2="182.85" y2="69.11" gradientUnits="userSpaceOnUse"><stop offset="0" stop-color="#fff000"/><stop offset="1" stop-color="#f5921d"/></linearGradient></defs><g class="cls-1"><polygon class="cls-2" points="190.81 100.52 190.81 103.59 84.66 164.88 84.66 161.81 190.81 100.52"/><polygon class="cls-3" points="84.66 161.81 84.66 164.88 10.34 121.98 10.34 118.91 84.66 161.81"/><polygon class="cls-4" points="190.81 100.52 84.66 161.81 13 120.44 116.5 57.62 190.81 100.52"/></g><polygon class="cls-4" points="18.31 108.19 10.34 103.59 10.34 118.91 18.31 123.51 18.31 108.19"/><g class="cls-1"><polygon class="cls-5" points="185.5 88.27 185.5 100.52 84.66 158.75 84.66 146.49 185.5 88.27"/><polygon class="cls-6" points="15.65 106.65 15.65 118.91 84.66 158.75 84.66 146.49 15.65 106.65"/><polygon class="cls-7" points="116.46 48.8 15.65 106.65 84.66 146.49 184.3 87.97 116.46 48.8"/></g><g class="cls-1"><polygon class="cls-2" points="190.81 82.14 190.81 85.2 84.66 146.49 84.66 143.43 190.81 82.14"/><polygon class="cls-3" points="84.66 143.43 84.66 146.49 10.34 103.59 10.34 100.52 84.66 143.43"/><polygon class="cls-8" points="190.81 82.14 84.66 143.43 10.34 100.52 116.5 39.23 190.81 82.14"/></g><polygon class="cls-3" points="13 123.51 10.34 121.98 10.34 100.52 13 102.06 13 123.51"/><g class="cls-1"><polygon class="cls-9" points="182.85 77.54 182.85 80.61 84.66 137.3 84.66 134.23 182.85 77.54"/><polygon class="cls-10" points="84.66 134.23 84.66 137.3 20.96 100.52 20.96 97.46 84.66 134.23"/><polygon class="cls-11" points="182.85 77.54 84.66 134.23 23.61 98.99 121.81 42.3 182.85 77.54"/></g><polygon class="cls-11" points="26.27 85.2 23.61 83.67 23.61 98.99 26.27 100.52 26.27 85.2"/><g class="cls-1"><polygon class="cls-5" points="177.54 65.28 177.54 77.54 84.66 131.17 84.66 118.91 177.54 65.28"/><polygon class="cls-6" points="26.27 85.2 26.27 97.46 84.66 131.17 84.66 118.91 26.27 85.2"/><polygon class="cls-7" points="116.5 33.1 26.27 85.2 84.66 118.91 174.89 66.81 116.5 33.1"/></g><polygon class="cls-9" points="182.85 59.15 182.85 62.22 84.66 118.91 84.66 115.85 182.85 59.15"/><polygon class="cls-10" points="84.66 115.85 84.66 118.91 20.96 82.14 20.96 79.07 84.66 115.85"/><polygon class="cls-12" points="182.85 59.15 84.66 115.85 20.96 79.07 119.16 22.38 182.85 59.15"/><polygon class="cls-10" points="23.61 102.06 20.96 100.52 20.96 79.07 23.61 80.6 23.61 102.06"/><path class="cls-13" d="M103.1,59.78a1.7,1.7,0,0,1,1.67,1.73l-.07,4.36a1.69,1.69,0,0,0,1.67,1.72l4.36.07a1.7,1.7,0,0,1,1.67,1.73h0a1.69,1.69,0,0,1-1.72,1.66L104.62,71h0a2.4,2.4,0,0,1-3.34-3.45h0l.1-6.06A1.7,1.7,0,0,1,103.1,59.78Z"/><path class="cls-13" d="M109,54.06h0a1.69,1.69,0,0,1,1.67,1.72l-.07,4.37a1.7,1.7,0,0,0,1.67,1.72l4.36.07a1.7,1.7,0,0,1,0,3.39l-6.06-.1h0a2.4,2.4,0,1,1-3.34-3.44h0l.1-6.06A1.69,1.69,0,0,1,109,54.06Z"/></svg>