<svg id="Layer_1" data-name="Layer 1" xmlns="http://www.w3.org/2000/svg" xmlns:xlink="http://www.w3.org/1999/xlink" viewBox="0 0 141.91 226.37"><defs><style>.cls-1{fill:#f2c045;}.cls-2{fill:url(#linear-gradient);}.cls-3,.cls-9{opacity:0.3;}.cls-3{fill:url(#linear-gradient-2);}.cls-4{fill:url(#linear-gradient-3);}.cls-5{opacity:0.51;}.cls-6{fill:url(#linear-gradient-6);}.cls-7,.cls-9{fill:#f5921d;}.cls-7{opacity:0.5;}.cls-8{fill:url(#linear-gradient-7);}.cls-10{fill:url(#linear-gradient-8);}.cls-11{fill:url(#linear-gradient-9);}</style><linearGradient id="linear-gradient" x1="19.48" y1="120.58" x2="119.58" y2="178.37" gradientUnits="userSpaceOnUse"><stop offset="0" stop-color="#f5921d"/><stop offset="0.19" stop-color="#f5971e"/><stop offset="0.42" stop-color="#f5a522"/><stop offset="0.66" stop-color="#f6bd27"/><stop offset="0.91" stop-color="#f7de2f"/><stop offset="1" stop-color="#f7eb32"/></linearGradient><linearGradient id="linear-gradient-2" x1="70.01" y1="165.45" x2="133.09" y2="165.45" xlink:href="#linear-gradient"/><linearGradient id="linear-gradient-3" x1="6.93" y1="142.43" x2="133.09" y2="142.43" xlink:href="#linear-gradient"/><linearGradient id="linear-gradient-6" x1="6.93" y1="161.66" x2="133.08" y2="161.66" xlink:href="#linear-gradient"/><linearGradient id="linear-gradient-7" x1="42.93" y1="101.44" x2="110.27" y2="101.44" gradientUnits="userSpaceOnUse"><stop offset="0" stop-color="#f7eb32"/><stop offset="0.16" stop-color="#f7e330"/><stop offset="0.4" stop-color="#f6cd2b"/><stop offset="0.71" stop-color="#f6a922"/><stop offset="0.87" stop-color="#f5921d"/></linearGradient><linearGradient id="linear-gradient-8" x1="-28.04" y1="69.28" x2="138.13" y2="69.28" gradientUnits="userSpaceOnUse"><stop offset="0" stop-color="#fff000"/><stop offset="0.27" stop-color="#fef005"/><stop offset="0.58" stop-color="#fcee13"/><stop offset="0.92" stop-color="#f8ec2b"/><stop offset="1" stop-color="#f7eb32"/></linearGradient><linearGradient id="linear-gradient-9" x1="17.88" y1="38.86" x2="138.22" y2="59.53" gradientUnits="userSpaceOnUse"><stop offset="0" stop-color="#fff000"/><stop offset="0.15" stop-color="#fee802"/><stop offset="0.39" stop-color="#fcd209"/><stop offset="0.68" stop-color="#f8ae14"/><stop offset="0.87" stop-color="#f5921d"/></linearGradient></defs><path class="cls-1" d="M70,214.66a18.78,18.78,0,0,1-9.15-2.18l-48.51-28c-2.52-1.45-3.91-3.41-3.91-5.52s1.39-4.07,3.91-5.53l48.51-28c5-2.91,13.25-2.91,18.29,0l48.52,28c2.52,1.45,3.91,3.41,3.91,5.52s-1.39,4.07-3.91,5.52l-48.52,28A18.74,18.74,0,0,1,70,214.66Zm-8.72-2.92c4.81,2.78,12.63,2.78,17.44,0l48.51-28c2.25-1.3,3.49-3,3.49-4.79s-1.24-3.49-3.49-4.79l-48.51-28c-4.81-2.78-12.64-2.78-17.44,0l-48.52,28c-2.24,1.3-3.48,3-3.48,4.79s1.24,3.49,3.48,4.79Z"/><path class="cls-1" d="M133.09,168.19V151.57l-3-1.69c-.86,5.19-7,8.61-12.07,9.32L83.21,179.53,68,185,19.61,160l1.12-.65c-4.14-1.93-6.37-6.36-8.61-10.39l-3.26,1.94-1.93.55v16.89h0c0,2.16,1.42,4.31,4.26,5.95l48.52,28c5.68,3.28,14.92,3.28,20.6,0l48.52-28c2.79-1.61,4.21-3.72,4.26-5.84,0-.1,0-.19,0-.28Z"/><path class="cls-2" d="M133.09,153.42v-11l-3-1.69c-.86,5.18-7,8.6-12.07,9.31L83.21,170.38,68,175.86l-48.43-25,1.12-.65c-4.14-1.93-6.37-6.35-8.61-10.39l-3.26,1.95-1.93.54V153.6h0c0,2.15,1.42,4.3,4.26,5.94l48.52,28c5.68,3.28,14.92,3.28,20.6,0l48.52-28c2.79-1.61,4.21-3.72,4.26-5.84,0-.09,0-.19,0-.28Z"/><path class="cls-3" d="M118,150.05,83.21,170.38,70,175.15V190a21.06,21.06,0,0,0,10.3-2.46l48.52-28c2.79-1.61,4.21-3.72,4.26-5.84,0-.09,0-.19,0-.28h0v-11l-2.78-1.55H130C129.07,146,123,149.35,118,150.05Z"/><path class="cls-4" d="M59.71,176.39l-48.52-28c-5.68-3.28-5.68-8.62,0-11.9l48.51-28c5.69-3.28,14.93-3.28,20.61,0l48.52,28c5.68,3.28,5.68,8.62,0,11.9l-48.52,28C74.63,179.67,65.39,179.67,59.71,176.39Z"/><path class="cls-4" d="M59.71,176.39l-48.52-28c-5.68-3.28-5.68-8.62,0-11.9l48.51-28c5.69-3.28,14.93-3.28,20.61,0l48.52,28c5.68,3.28,5.68,8.62,0,11.9l-48.52,28C74.63,179.67,65.39,179.67,59.71,176.39Z"/><g class="cls-5"><path class="cls-4" d="M59.71,176.39l-48.52-28c-5.68-3.28-5.68-8.62,0-11.9l48.51-28c5.69-3.28,14.93-3.28,20.61,0l48.52,28c5.68,3.28,5.68,8.62,0,11.9l-48.52,28C74.63,179.67,65.39,179.67,59.71,176.39Z"/></g><path class="cls-6" d="M128.83,148.38l-48.52,28c-5.68,3.28-14.92,3.28-20.6,0l-48.52-28C8.65,146.91,7.25,145,7,143.11c-.33,2.38,1.07,4.82,4.21,6.63l48.52,28c5.68,3.28,14.92,3.28,20.6,0l48.52-28c3.14-1.82,4.54-4.26,4.21-6.64C132.77,145,131.37,146.91,128.83,148.38Z"/><path class="cls-7" d="M85,160.31,36.83,132.5c-3.47-2-3-5.49,1-7.8h0c4-2.32,10.06-2.57,13.53-.56l48.16,27.8c3.47,2,3,5.5-1,7.81h0C94.52,162.06,88.46,162.31,85,160.31Z"/><path class="cls-8" d="M34.49,56.2v58h0a4,4,0,0,0,2.33,3.35L85,145.33c3.47,2,9.53,1.75,13.53-.56h0c2.24-1.3,3.37-3,3.31-4.53h0v-58Z"/><path class="cls-9" d="M88.61,146.49a16,16,0,0,0,9.91-1.72c2.24-1.3,3.37-3,3.31-4.53h0v-58l-13-5h-.23Z"/><path class="cls-10" d="M85,87.36,36.83,59.56c-3.47-2-3-5.5,1-7.81h0c4-2.31,10.06-2.57,13.53-.56L99.49,79c3.47,2,3,5.5-1,7.81h0C94.52,89.11,88.46,89.37,85,87.36Z"/><path class="cls-11" d="M89.8,83.64a4.17,4.17,0,0,1-4.16-4.17V53.72c0-8.79-6.43-19.92-14-24.31L60.55,23c-2.92-1.69-5.55-2.1-7.23-1.13s-2.64,3.46-2.64,6.83V54.48a4.16,4.16,0,1,1-8.32,0V28.73c0-6.52,2.41-11.51,6.8-14s9.91-2.13,15.56,1.13l11,6.38C86,28.09,94,41.94,94,53.72V79.47A4.17,4.17,0,0,1,89.8,83.64Z"/></svg>