<svg width="318" height="8" viewBox="0 0 318 8" fill="none" xmlns="http://www.w3.org/2000/svg">
<path d="M0.646447 3.64645C0.451184 3.84171 0.451184 4.15829 0.646447 4.35355L3.82843 7.53553C4.02369 7.7308 4.34027 7.7308 4.53553 7.53553C4.7308 7.34027 4.7308 7.02369 4.53553 6.82843L1.70711 4L4.53553 1.17157C4.7308 0.976311 4.7308 0.659728 4.53553 0.464466C4.34027 0.269204 4.02369 0.269204 3.82843 0.464466L0.646447 3.64645ZM317.354 4.35355C317.549 4.15829 317.549 3.84171 317.354 3.64645L314.172 0.464466C313.976 0.269204 313.66 0.269204 313.464 0.464466C313.269 0.659728 313.269 0.976311 313.464 1.17157L316.293 4L313.464 6.82843C313.269 7.02369 313.269 7.34027 313.464 7.53553C313.66 7.7308 313.976 7.7308 314.172 7.53553L317.354 4.35355ZM1 4.5H4.03846V3.5H1V4.5ZM10.1154 4.5H16.1923V3.5H10.1154V4.5ZM22.2692 4.5H28.3462V3.5H22.2692V4.5ZM34.4231 4.5H40.5V3.5H34.4231V4.5ZM46.5769 4.5H52.6538V3.5H46.5769V4.5ZM58.7308 4.5H64.8077V3.5H58.7308V4.5ZM70.8846 4.5H76.9615V3.5H70.8846V4.5ZM83.0385 4.5H89.1154V3.5H83.0385V4.5ZM95.1923 4.5H101.269V3.5H95.1923V4.5ZM107.346 4.5H113.423V3.5H107.346V4.5ZM119.5 4.5H125.577V3.5H119.5V4.5ZM131.654 4.5H137.731V3.5H131.654V4.5ZM143.808 4.5H149.885V3.5H143.808V4.5ZM155.961 4.5H162.038V3.5H155.961V4.5ZM168.115 4.5H174.192V3.5H168.115V4.5ZM180.269 4.5H186.346V3.5H180.269V4.5ZM192.423 4.5H198.5V3.5H192.423V4.5ZM204.577 4.5H210.654V3.5H204.577V4.5ZM216.731 4.5H222.808V3.5H216.731V4.5ZM228.885 4.5H234.961V3.5H228.885V4.5ZM241.038 4.5H247.115V3.5H241.038V4.5ZM253.192 4.5H259.269V3.5H253.192V4.5ZM265.346 4.5H271.423V3.5H265.346V4.5ZM277.5 4.5H283.577V3.5H277.5V4.5ZM289.654 4.5H295.731V3.5H289.654V4.5ZM301.808 4.5H307.885V3.5H301.808V4.5ZM313.962 4.5H317V3.5H313.962V4.5Z" fill="#FFEB00"/>
</svg>
