<svg width="347" height="156" viewBox="0 0 347 156" fill="none" xmlns="http://www.w3.org/2000/svg">
<path d="M0.333333 3C0.333333 4.47276 1.52724 5.66667 3 5.66667C4.47276 5.66667 5.66667 4.47276 5.66667 3C5.66667 1.52724 4.47276 0.333333 3 0.333333C1.52724 0.333333 0.333333 1.52724 0.333333 3ZM3 3.5H6.0687V2.5H3V3.5ZM12.2061 3.5H18.3435V2.5H12.2061V3.5ZM24.4809 3.5H30.6183V2.5H24.4809V3.5ZM36.7557 3.5H42.8931V2.5H36.7557V3.5ZM49.0305 3.5H55.1679V2.5H49.0305V3.5ZM61.3053 3.5H67.4427V2.5H61.3053V3.5ZM73.5801 3.5H79.7175V2.5H73.5801V3.5ZM85.8549 3.5H91.9923V2.5H85.8549V3.5ZM98.1297 3.5H104.267V2.5H98.1297V3.5ZM110.405 3.5H116.542V2.5H110.405V3.5ZM122.679 3.5H128.817V2.5H122.679V3.5ZM134.954 3.5H141.092V2.5H134.954V3.5ZM147.229 3.5H153.366V2.5H147.229V3.5ZM159.504 3.5H165.641V2.5H159.504V3.5ZM171.779 3.5H177.916V2.5H171.779V3.5ZM184.053 3.5H190.191V2.5H184.053V3.5ZM196.328 3.5H202.466V2.5H196.328V3.5ZM208.603 3.5H211.672V2.5H208.603V3.5Z" fill="#0000FE"/>
<path d="M344 150.333C345.473 150.333 346.667 151.527 346.667 153C346.667 154.473 345.473 155.667 344 155.667C342.527 155.667 341.333 154.473 341.333 153C341.333 151.527 342.527 150.333 344 150.333ZM278.336 84.25L278.336 87.2969L277.336 87.2969L277.336 84.25L278.336 84.25ZM278.336 93.3906L278.336 99.4844L277.336 99.4844L277.336 93.3906L278.336 93.3906ZM278.336 105.578L278.336 111.672L277.336 111.672L277.336 105.578L278.336 105.578ZM278.336 117.766L278.336 123.859L277.336 123.859L277.336 117.766L278.336 117.766ZM278.336 129.953L278.336 133L277.336 133L277.336 129.953L278.336 129.953ZM278.336 133C278.336 133.864 278.392 134.714 278.501 135.548L277.509 135.677C277.395 134.801 277.336 133.907 277.336 133L278.336 133ZM279.815 140.464C280.473 142.049 281.333 143.529 282.364 144.871L281.571 145.48C280.488 144.07 279.583 142.514 278.892 140.847L279.815 140.464ZM285.965 148.472C287.307 149.503 288.787 150.363 290.372 151.021L289.989 151.944C288.322 151.253 286.766 150.348 285.356 149.264L285.965 148.472ZM295.288 152.335C296.122 152.444 296.972 152.5 297.836 152.5L297.836 153.5C296.929 153.5 296.035 153.441 295.159 153.327L295.288 152.335ZM297.836 152.5L300.721 152.5L300.721 153.5L297.836 153.5L297.836 152.5ZM306.492 152.5L312.262 152.5L312.262 153.5L306.492 153.5L306.492 152.5ZM318.033 152.5L323.803 152.5L323.803 153.5L318.033 153.5L318.033 152.5ZM329.574 152.5L335.344 152.5L335.344 153.5L329.574 153.5L329.574 152.5ZM341.115 152.5L344 152.5L344 153.5L341.115 153.5L341.115 152.5ZM344 150.333C345.473 150.333 346.667 151.527 346.667 153C346.667 154.473 345.473 155.667 344 155.667C342.527 155.667 341.333 154.473 341.333 153C341.333 151.527 342.527 150.333 344 150.333ZM278.336 84.25L278.336 87.2969L277.336 87.2969L277.336 84.25L278.336 84.25ZM278.336 93.3906L278.336 99.4844L277.336 99.4844L277.336 93.3906L278.336 93.3906ZM278.336 105.578L278.336 111.672L277.336 111.672L277.336 105.578L278.336 105.578ZM278.336 117.766L278.336 123.859L277.336 123.859L277.336 117.766L278.336 117.766ZM278.336 129.953L278.336 133L277.336 133L277.336 129.953L278.336 129.953ZM278.336 133C278.336 133.864 278.392 134.714 278.501 135.548L277.509 135.677C277.395 134.801 277.336 133.907 277.336 133L278.336 133ZM279.815 140.464C280.473 142.049 281.333 143.529 282.364 144.871L281.571 145.48C280.488 144.07 279.583 142.514 278.892 140.847L279.815 140.464ZM285.965 148.472C287.307 149.503 288.787 150.363 290.372 151.021L289.989 151.944C288.322 151.253 286.766 150.348 285.356 149.264L285.965 148.472ZM295.288 152.335C296.122 152.444 296.972 152.5 297.836 152.5L297.836 153.5C296.929 153.5 296.035 153.441 295.159 153.327L295.288 152.335ZM297.836 152.5L300.721 152.5L300.721 153.5L297.836 153.5L297.836 152.5ZM306.492 152.5L312.262 152.5L312.262 153.5L306.492 153.5L306.492 152.5ZM318.033 152.5L323.803 152.5L323.803 153.5L318.033 153.5L318.033 152.5ZM329.574 152.5L335.344 152.5L335.344 153.5L329.574 153.5L329.574 152.5ZM341.115 152.5L344 152.5L344 153.5L341.115 153.5L341.115 152.5Z" fill="#0000FE"/>
<path d="M211.672 2.99991L257.836 2.99991C268.882 2.99991 277.836 11.9542 277.836 22.9999L277.836 94.1458" stroke="#0000FE" stroke-dasharray="6 6"/>
</svg>
