<svg width="271" height="159" viewBox="0 0 271 159" fill="none" xmlns="http://www.w3.org/2000/svg">
<path d="M0.333333 3C0.333333 4.47276 1.52724 5.66667 3 5.66667C4.47276 5.66667 5.66667 4.47276 5.66667 3C5.66667 1.52724 4.47276 0.333333 3 0.333333C1.52724 0.333333 0.333333 1.52724 0.333333 3ZM3 3.5L6.01923 3.5L6.01923 2.5L3 2.5L3 3.5ZM12.0577 3.5L18.0962 3.5L18.0962 2.5L12.0577 2.5L12.0577 3.5ZM24.1346 3.5L30.1731 3.5L30.1731 2.5L24.1346 2.5L24.1346 3.5ZM36.2115 3.5L42.25 3.5L42.25 2.5L36.2115 2.5L36.2115 3.5ZM48.2885 3.5L54.3269 3.5L54.3269 2.5L48.2885 2.5L48.2885 3.5ZM60.3654 3.50001L66.4038 3.50001L66.4038 2.50001L60.3654 2.50001L60.3654 3.50001ZM72.4423 3.50001L78.4808 3.50001L78.4808 2.50001L72.4423 2.50001L72.4423 3.50001ZM84.5192 3.50001L90.5577 3.50001L90.5577 2.50001L84.5192 2.50001L84.5192 3.50001ZM96.5961 3.50001L102.635 3.50001L102.635 2.50001L96.5961 2.50001L96.5961 3.50001ZM108.673 3.50001L114.712 3.50001L114.712 2.50001L108.673 2.50001L108.673 3.50001ZM120.75 3.50001L126.788 3.50001L126.788 2.50001L120.75 2.50001L120.75 3.50001ZM132.827 3.50001L138.865 3.50001L138.865 2.50001L132.827 2.50001L132.827 3.50001ZM144.904 3.50001L150.942 3.50001L150.942 2.50001L144.904 2.50001L144.904 3.50001ZM156.981 3.50001L160 3.50001L160 2.50001L156.981 2.50001L156.981 3.50001Z" fill="#0000FE"/>
<path d="M268 153.333C269.473 153.333 270.667 154.527 270.667 156C270.667 157.473 269.473 158.667 268 158.667C266.527 158.667 265.333 157.473 265.333 156C265.333 154.527 266.527 153.333 268 153.333ZM225.5 90L225.5 92.875L224.5 92.875L224.5 90L225.5 90ZM225.5 98.625L225.5 104.375L224.5 104.375L224.5 98.625L225.5 98.625ZM225.5 110.125L225.5 115.875L224.5 115.875L224.5 110.125L225.5 110.125ZM225.5 121.625L225.5 127.375L224.5 127.375L224.5 121.625L225.5 121.625ZM225.5 133.125L225.5 136L224.5 136L224.5 133.125L225.5 133.125ZM225.5 136C225.5 136.864 225.556 137.714 225.665 138.548L224.673 138.677C224.559 137.801 224.5 136.907 224.5 136L225.5 136ZM226.979 143.464C227.637 145.049 228.497 146.529 229.528 147.871L228.736 148.48C227.652 147.07 226.747 145.514 226.056 143.847L226.979 143.464ZM233.129 151.472C234.471 152.503 235.951 153.363 237.536 154.021L237.153 154.944C235.486 154.253 233.93 153.348 232.52 152.264L233.129 151.472ZM242.452 155.335C243.286 155.444 244.136 155.5 245 155.5L245 156.5C244.093 156.5 243.199 156.441 242.323 156.327L242.452 155.335ZM245 155.5L247.875 155.5L247.875 156.5L245 156.5L245 155.5ZM253.625 155.5L259.375 155.5L259.375 156.5L253.625 156.5L253.625 155.5ZM265.125 155.5L268 155.5L268 156.5L265.125 156.5L265.125 155.5ZM268 153.333C269.473 153.333 270.667 154.527 270.667 156C270.667 157.473 269.473 158.667 268 158.667C266.527 158.667 265.333 157.473 265.333 156C265.333 154.527 266.527 153.333 268 153.333ZM225.5 90L225.5 92.875L224.5 92.875L224.5 90L225.5 90ZM225.5 98.625L225.5 104.375L224.5 104.375L224.5 98.625L225.5 98.625ZM225.5 110.125L225.5 115.875L224.5 115.875L224.5 110.125L225.5 110.125ZM225.5 121.625L225.5 127.375L224.5 127.375L224.5 121.625L225.5 121.625ZM225.5 133.125L225.5 136L224.5 136L224.5 133.125L225.5 133.125ZM225.5 136C225.5 136.864 225.556 137.714 225.665 138.548L224.673 138.677C224.559 137.801 224.5 136.907 224.5 136L225.5 136ZM226.979 143.464C227.637 145.049 228.497 146.529 229.528 147.871L228.736 148.48C227.652 147.07 226.747 145.514 226.056 143.847L226.979 143.464ZM233.129 151.472C234.471 152.503 235.951 153.363 237.536 154.021L237.153 154.944C235.486 154.253 233.93 153.348 232.52 152.264L233.129 151.472ZM242.452 155.335C243.286 155.444 244.136 155.5 245 155.5L245 156.5C244.093 156.5 243.199 156.441 242.323 156.327L242.452 155.335ZM245 155.5L247.875 155.5L247.875 156.5L245 156.5L245 155.5ZM253.625 155.5L259.375 155.5L259.375 156.5L253.625 156.5L253.625 155.5ZM265.125 155.5L268 155.5L268 156.5L265.125 156.5L265.125 155.5Z" fill="#0000FE"/>
<path d="M160 3L205 3C216.046 3 225 11.9543 225 23L225 90.5" stroke="#0000FE" stroke-dasharray="6 6"/>
</svg>
