<svg width="134" height="6" viewBox="0 0 134 6" fill="none" xmlns="http://www.w3.org/2000/svg">
<path d="M0.333333 3C0.333333 4.47276 1.52724 5.66667 3 5.66667C4.47276 5.66667 5.66667 4.47276 5.66667 3C5.66667 1.52724 4.47276 0.333333 3 0.333333C1.52724 0.333333 0.333333 1.52724 0.333333 3ZM128.333 3C128.333 4.47276 129.527 5.66667 131 5.66667C132.473 5.66667 133.667 4.47276 133.667 3C133.667 1.52724 132.473 0.333333 131 0.333333C129.527 0.333333 128.333 1.52724 128.333 3ZM3 3.5H5.90909V2.5H3V3.5ZM11.7273 3.5H17.5455V2.5H11.7273V3.5ZM23.3636 3.5H29.1818V2.5H23.3636V3.5ZM35 3.5H40.8182V2.5H35V3.5ZM46.6364 3.5H52.4546V2.5H46.6364V3.5ZM58.2727 3.5H64.0909V2.5H58.2727V3.5ZM69.9091 3.5H75.7273V2.5H69.9091V3.5ZM81.5455 3.5H87.3637V2.5H81.5455V3.5ZM93.1818 3.5H99V2.5H93.1818V3.5ZM104.818 3.5H110.636V2.5H104.818V3.5ZM116.455 3.5H122.273V2.5H116.455V3.5ZM128.091 3.5H131V2.5H128.091V3.5Z" fill="#0000FE"/>
</svg>
