<svg width="4" height="101" viewBox="0 0 4 101" fill="none" xmlns="http://www.w3.org/2000/svg">
<path d="M2 0.666667C1.26362 0.666667 0.666667 1.26362 0.666667 2C0.666667 2.73638 1.26362 3.33333 2 3.33333C2.73638 3.33333 3.33333 2.73638 3.33333 2C3.33333 1.26362 2.73638 0.666667 2 0.666667ZM2 97.6667C1.26362 97.6667 0.666662 98.2636 0.666662 99C0.666662 99.7364 1.26362 100.333 2 100.333C2.73638 100.333 3.33333 99.7364 3.33333 99C3.33333 98.2636 2.73638 97.6667 2 97.6667ZM1.75 2L1.75 5.03125L2.25 5.03125L2.25 2L1.75 2ZM1.75 11.0937L1.75 17.1562L2.25 17.1562L2.25 11.0938L1.75 11.0937ZM1.75 23.2187L1.75 29.2812L2.25 29.2812L2.25 23.2188L1.75 23.2187ZM1.75 35.3437L1.75 41.4062L2.25 41.4063L2.25 35.3438L1.75 35.3437ZM1.75 47.4687L1.75 53.5312L2.25 53.5312L2.25 47.4688L1.75 47.4687ZM1.75 59.5937L1.75 65.6562L2.25 65.6562L2.25 59.5937L1.75 59.5937ZM1.75 71.7187L1.75 77.7812L2.25 77.7813L2.25 71.7188L1.75 71.7187ZM1.75 83.8437L1.75 89.9062L2.25 89.9063L2.25 83.8438L1.75 83.8437ZM1.75 95.9687L1.75 99L2.25 99L2.25 95.9688L1.75 95.9687Z" fill="#FFEB00"/>
</svg>
