<svg width="140" height="224" viewBox="0 0 140 224" fill="none" xmlns="http://www.w3.org/2000/svg">
<g clip-path="url(#clip0_2029_473)">
<path d="M69.9929 224C66.4596 224.07 62.9671 223.235 59.847 221.573L6.01709 190.476C3.19877 188.868 1.67688 186.681 1.67688 184.339C1.67688 181.997 3.21286 179.824 6.01709 178.201L59.847 147.076C62.994 145.488 66.4689 144.661 69.9929 144.661C73.5169 144.661 76.9919 145.488 80.1389 147.076L133.983 178.201C136.801 179.824 138.309 181.997 138.309 184.339C138.309 186.681 136.773 188.868 133.983 190.476L80.1389 221.517C77.0252 223.201 73.5315 224.056 69.9929 224ZM60.3261 220.755C63.3239 222.278 66.6383 223.072 70 223.072C73.3617 223.072 76.6761 222.278 79.6739 220.755L133.504 189.63C135.998 188.219 137.365 186.3 137.365 184.31C137.365 182.321 135.956 180.43 133.504 178.991L79.6739 147.866C76.6741 146.349 73.3605 145.559 70 145.559C66.6395 145.559 63.3259 146.349 60.3261 147.866L6.48211 178.991C3.9879 180.402 2.62102 182.321 2.62102 184.31C2.62102 186.3 4.03018 188.191 6.48211 189.63L60.3261 220.755Z" fill="#F2C045"/>
<path d="M140 172.374V153.905L136.688 152.028C135.744 157.799 128.966 161.594 123.301 162.385L84.7187 184.959L67.8088 191.041L14.0916 163.288L15.3317 162.568C10.7378 160.423 8.28586 155.513 5.77755 151.026L2.17011 153.185L0 153.792V172.557C0 174.956 1.57826 177.355 4.73478 179.175L58.5647 210.3C64.8636 213.94 75.1223 213.94 81.4353 210.3L135.279 179.189C138.379 177.397 139.958 175.055 140 172.698C140.007 172.59 140.007 172.482 140 172.374Z" fill="#F2C045"/>
<path d="M140 155.965V143.746L136.688 141.869C135.744 147.64 128.966 151.436 123.301 152.226L84.7187 174.801L67.8088 180.882L14.0916 153.129L15.3317 152.409C10.7378 150.265 8.28586 145.354 5.77755 140.868L2.17011 143.026L0 143.633V156.162C0 158.547 1.57826 160.945 4.73478 162.765L58.5647 193.891C64.8636 197.531 75.1223 197.531 81.4353 193.891L135.279 162.765C138.379 160.974 139.958 158.631 140 156.275C140.007 156.172 140.007 156.068 140 155.965Z" fill="url(#paint0_linear_2029_473)"/>
<path opacity="0.3" d="M123.231 152.226L84.6482 174.801L69.9929 180.092V196.6C73.9762 196.681 77.9144 195.743 81.4353 193.877L135.279 162.765C138.379 160.974 139.958 158.631 140 156.275C140.007 156.172 140.007 156.068 140 155.965V143.746L136.914 142.025H136.59C135.533 147.697 128.839 151.436 123.231 152.226Z" fill="url(#paint1_linear_2029_473)"/>
<path d="M58.5647 181.474L4.73478 150.349C-1.57826 146.709 -1.57826 140.783 4.73478 137.143L58.5647 106.018C64.8636 102.377 75.1223 102.377 81.4212 106.018L135.279 137.143C141.578 140.783 141.578 146.709 135.279 150.363L81.4494 181.474C75.1223 185.129 64.8213 185.129 58.5647 181.474Z" fill="url(#paint2_linear_2029_473)"/>
<path d="M58.5647 181.474L4.73478 150.349C-1.57826 146.709 -1.57826 140.783 4.73478 137.143L58.5647 106.018C64.8636 102.377 75.1223 102.377 81.4212 106.018L135.279 137.143C141.578 140.783 141.578 146.709 135.279 150.363L81.4494 181.474C75.1223 185.129 64.8213 185.129 58.5647 181.474Z" fill="url(#paint3_linear_2029_473)"/>
<g opacity="0.51">
<path d="M58.5647 181.474L4.73478 150.349C-1.57826 146.709 -1.57826 140.783 4.73478 137.143L58.5647 106.018C64.8636 102.377 75.1223 102.377 81.4212 106.018L135.279 137.143C141.578 140.783 141.578 146.709 135.279 150.363L81.4494 181.474C75.1223 185.129 64.8213 185.129 58.5647 181.474Z" fill="url(#paint4_linear_2029_473)"/>
</g>
<path d="M135.279 150.363L81.4495 181.474C75.1364 185.129 64.8778 185.129 58.5788 181.474L4.73482 150.349C1.9165 148.727 0.352338 146.638 0.0564143 144.508C-0.309967 147.146 1.24011 149.855 4.73482 151.873L58.5647 182.998C64.8637 186.638 75.1223 186.638 81.4354 182.998L135.279 151.873C138.76 149.869 140.324 147.146 139.944 144.508C139.634 146.638 138.098 148.727 135.279 150.363Z" fill="url(#paint5_linear_2029_473)"/>
<path opacity="0.5" d="M86.621 163.668L33.1857 132.727C29.3387 130.497 29.8178 126.617 34.2566 124.049C38.6955 121.481 45.4172 121.227 49.2642 123.429L102.714 154.314C106.561 156.543 106.081 160.423 101.629 162.991C97.232 165.559 90.468 165.841 86.621 163.668Z" fill="#F5921D"/>
<path d="M30.5929 47.9718V112.353C30.6522 113.149 30.9242 113.915 31.3803 114.57C31.8364 115.226 32.46 115.746 33.1857 116.078L86.6211 146.977C90.4681 149.192 97.1898 148.924 101.629 146.356C104.123 144.945 105.377 143.055 105.307 141.319V76.896L30.5929 47.9718Z" fill="url(#paint6_linear_2029_473)"/>
<path opacity="0.3" d="M90.6371 148.261C94.4101 148.826 98.2646 148.158 101.629 146.356C104.123 144.945 105.377 143.055 105.306 141.319V76.8959L90.9048 71.2522H90.6371V148.261Z" fill="#F5921D"/>
<path d="M86.621 82.5679L33.1857 51.6684C29.3387 49.4532 29.8178 45.5732 34.2566 43.0053C38.6955 40.4374 45.4172 40.1834 49.2642 42.3703L102.714 73.2698C106.561 75.4991 106.081 79.3792 101.629 81.9471C97.232 84.515 90.468 84.7971 86.621 82.5679Z" fill="url(#paint7_linear_2029_473)"/>
<path d="M91.9617 78.4339C90.7408 78.4264 89.5723 77.9355 88.7116 77.0685C87.8509 76.2014 87.3678 75.0285 87.3678 73.806V45.1499C87.3678 35.3862 80.2375 23.0265 71.8671 18.1446L59.6074 11.0899C56.3663 9.2134 53.4353 8.7619 51.5752 9.83422C49.7151 10.9065 48.6441 13.672 48.6441 17.425V46.0388C48.6788 46.6671 48.5852 47.2959 48.3689 47.8867C48.1527 48.4775 47.8184 49.018 47.3864 49.475C46.9545 49.9321 46.434 50.2962 45.8567 50.545C45.2795 50.7938 44.6576 50.9221 44.0291 50.9221C43.4007 50.9221 42.7788 50.7938 42.2016 50.545C41.6243 50.2962 41.1038 49.9321 40.6719 49.475C40.2399 49.018 39.9056 48.4775 39.6894 47.8867C39.4731 47.2959 39.3795 46.6671 39.4142 46.0388V17.425C39.4142 10.1869 42.0916 4.64198 46.9532 1.90476C51.8148 -0.832451 57.9587 -0.465608 64.2154 3.14638L76.4891 10.2011C87.7624 16.7478 96.6824 32.127 96.6824 45.2205V73.806C96.6825 74.4221 96.5598 75.0321 96.3214 75.6001C96.0829 76.1681 95.7336 76.6828 95.2939 77.1138C94.8542 77.5449 94.333 77.8837 93.7608 78.1103C93.1886 78.337 92.5769 78.447 91.9617 78.4339Z" fill="url(#paint8_linear_2029_473)"/>
</g>
<defs>
<linearGradient id="paint0_linear_2029_473" x1="13.9225" y1="119.478" x2="125.076" y2="183.568" gradientUnits="userSpaceOnUse">
<stop stop-color="#F5921D"/>
<stop offset="0.19" stop-color="#F5971E"/>
<stop offset="0.42" stop-color="#F5A522"/>
<stop offset="0.66" stop-color="#F6BD27"/>
<stop offset="0.91" stop-color="#F7DE2F"/>
<stop offset="1" stop-color="#F7EB32"/>
</linearGradient>
<linearGradient id="paint1_linear_2029_473" x1="69.9929" y1="169.326" x2="140" y2="169.326" gradientUnits="userSpaceOnUse">
<stop stop-color="#F5921D"/>
<stop offset="0.19" stop-color="#F5971E"/>
<stop offset="0.42" stop-color="#F5A522"/>
<stop offset="0.66" stop-color="#F6BD27"/>
<stop offset="0.91" stop-color="#F7DE2F"/>
<stop offset="1" stop-color="#F7EB32"/>
</linearGradient>
<linearGradient id="paint2_linear_2029_473" x1="0" y1="143.746" x2="140" y2="143.746" gradientUnits="userSpaceOnUse">
<stop stop-color="#F5921D"/>
<stop offset="0.19" stop-color="#F5971E"/>
<stop offset="0.42" stop-color="#F5A522"/>
<stop offset="0.66" stop-color="#F6BD27"/>
<stop offset="0.91" stop-color="#F7DE2F"/>
<stop offset="1" stop-color="#F7EB32"/>
</linearGradient>
<linearGradient id="paint3_linear_2029_473" x1="0" y1="143.746" x2="140" y2="143.746" gradientUnits="userSpaceOnUse">
<stop stop-color="#F5921D"/>
<stop offset="0.19" stop-color="#F5971E"/>
<stop offset="0.42" stop-color="#F5A522"/>
<stop offset="0.66" stop-color="#F6BD27"/>
<stop offset="0.91" stop-color="#F7DE2F"/>
<stop offset="1" stop-color="#F7EB32"/>
</linearGradient>
<linearGradient id="paint4_linear_2029_473" x1="0" y1="143.746" x2="140" y2="143.746" gradientUnits="userSpaceOnUse">
<stop stop-color="#F5921D"/>
<stop offset="0.19" stop-color="#F5971E"/>
<stop offset="0.42" stop-color="#F5A522"/>
<stop offset="0.66" stop-color="#F6BD27"/>
<stop offset="0.91" stop-color="#F7DE2F"/>
<stop offset="1" stop-color="#F7EB32"/>
</linearGradient>
<linearGradient id="paint5_linear_2029_473" x1="4.79179e-05" y1="165.122" x2="139.986" y2="165.122" gradientUnits="userSpaceOnUse">
<stop stop-color="#F5921D"/>
<stop offset="0.19" stop-color="#F5971E"/>
<stop offset="0.42" stop-color="#F5A522"/>
<stop offset="0.66" stop-color="#F6BD27"/>
<stop offset="0.91" stop-color="#F7DE2F"/>
<stop offset="1" stop-color="#F7EB32"/>
</linearGradient>
<linearGradient id="paint6_linear_2029_473" x1="39.9497" y1="98.2152" x2="114.677" y2="98.2152" gradientUnits="userSpaceOnUse">
<stop stop-color="#F7EB32"/>
<stop offset="0.16" stop-color="#F7E330"/>
<stop offset="0.4" stop-color="#F6CD2B"/>
<stop offset="0.71" stop-color="#F6A922"/>
<stop offset="0.87" stop-color="#F5921D"/>
</linearGradient>
<linearGradient id="paint7_linear_2029_473" x1="-38.7942" y1="62.4762" x2="145.594" y2="62.4762" gradientUnits="userSpaceOnUse">
<stop stop-color="#FFF000"/>
<stop offset="0.27" stop-color="#FEF005"/>
<stop offset="0.58" stop-color="#FCEE13"/>
<stop offset="0.92" stop-color="#F8EC2B"/>
<stop offset="1" stop-color="#F7EB32"/>
</linearGradient>
<linearGradient id="paint8_linear_2029_473" x1="12.1469" y1="28.6843" x2="145.703" y2="51.5982" gradientUnits="userSpaceOnUse">
<stop stop-color="#FFF000"/>
<stop offset="0.15" stop-color="#FEE802"/>
<stop offset="0.39" stop-color="#FCD209"/>
<stop offset="0.68" stop-color="#F8AE14"/>
<stop offset="0.87" stop-color="#F5921D"/>
</linearGradient>
<clipPath id="clip0_2029_473">
<rect width="140" height="224" fill="white"/>
</clipPath>
</defs>
</svg>
