<svg width="341" height="150" viewBox="0 0 341 150" fill="none" xmlns="http://www.w3.org/2000/svg">
<path d="M0.333333 3C0.333333 4.47276 1.52724 5.66667 3 5.66667C4.47276 5.66667 5.66667 4.47276 5.66667 3C5.66667 1.52724 4.47276 0.333333 3 0.333333C1.52724 0.333333 0.333333 1.52724 0.333333 3ZM3 3.5H6.01471V2.5H3V3.5ZM12.0441 3.5H18.0735V2.5H12.0441V3.5ZM24.1029 3.5H30.1324V2.5H24.1029V3.5ZM36.1618 3.5H42.1912V2.5H36.1618V3.5ZM48.2206 3.5H54.25V2.5H48.2206V3.5ZM60.2794 3.5H66.3088V2.5H60.2794V3.5ZM72.3382 3.5H78.3676V2.5H72.3382V3.5ZM84.3971 3.5H90.4265V2.5H84.3971V3.5ZM96.4559 3.5H102.485V2.5H96.4559V3.5ZM108.515 3.5H114.544V2.5H108.515V3.5ZM120.574 3.5H126.603V2.5H120.574V3.5ZM132.632 3.5H138.662V2.5H132.632V3.5ZM144.691 3.5H150.721V2.5H144.691V3.5ZM156.75 3.5H162.779V2.5H156.75V3.5ZM168.809 3.5H174.838V2.5H168.809V3.5ZM180.868 3.5H186.897V2.5H180.868V3.5ZM192.927 3.5H198.956V2.5H192.927V3.5ZM204.985 3.5H208V2.5H204.985V3.5Z" fill="#FFEB00"/>
<path d="M338 144.333C339.473 144.333 340.667 145.527 340.667 147C340.667 148.473 339.473 149.667 338 149.667C336.527 149.667 335.333 148.473 335.333 147C335.333 145.527 336.527 144.333 338 144.333ZM273.5 81L273.5 83.875L272.5 83.875L272.5 81L273.5 81ZM273.5 89.625L273.5 95.375L272.5 95.375L272.5 89.625L273.5 89.625ZM273.5 101.125L273.5 106.875L272.5 106.875L272.5 101.125L273.5 101.125ZM273.5 112.625L273.5 118.375L272.5 118.375L272.5 112.625L273.5 112.625ZM273.5 124.125L273.5 127L272.5 127L272.5 124.125L273.5 124.125ZM273.5 127C273.5 127.864 273.556 128.714 273.665 129.548L272.673 129.677C272.559 128.801 272.5 127.907 272.5 127L273.5 127ZM274.979 134.464C275.637 136.049 276.497 137.529 277.528 138.871L276.736 139.48C275.652 138.07 274.747 136.514 274.056 134.847L274.979 134.464ZM281.129 142.472C282.471 143.503 283.951 144.363 285.536 145.021L285.153 145.944C283.486 145.253 281.93 144.348 280.52 143.264L281.129 142.472ZM290.452 146.335C291.286 146.444 292.136 146.5 293 146.5L293 147.5C292.093 147.5 291.199 147.441 290.323 147.327L290.452 146.335ZM293 146.5L295.812 146.5L295.812 147.5L293 147.5L293 146.5ZM301.437 146.5L307.062 146.5L307.062 147.5L301.437 147.5L301.437 146.5ZM312.687 146.5L318.312 146.5L318.312 147.5L312.687 147.5L312.687 146.5ZM323.937 146.5L329.562 146.5L329.562 147.5L323.937 147.5L323.937 146.5ZM335.187 146.5L338 146.5L338 147.5L335.187 147.5L335.187 146.5ZM338 144.333C339.473 144.333 340.667 145.527 340.667 147C340.667 148.473 339.473 149.667 338 149.667C336.527 149.667 335.333 148.473 335.333 147C335.333 145.527 336.527 144.333 338 144.333ZM273.5 81L273.5 83.875L272.5 83.875L272.5 81L273.5 81ZM273.5 89.625L273.5 95.375L272.5 95.375L272.5 89.625L273.5 89.625ZM273.5 101.125L273.5 106.875L272.5 106.875L272.5 101.125L273.5 101.125ZM273.5 112.625L273.5 118.375L272.5 118.375L272.5 112.625L273.5 112.625ZM273.5 124.125L273.5 127L272.5 127L272.5 124.125L273.5 124.125ZM273.5 127C273.5 127.864 273.556 128.714 273.665 129.548L272.673 129.677C272.559 128.801 272.5 127.907 272.5 127L273.5 127ZM274.979 134.464C275.637 136.049 276.497 137.529 277.528 138.871L276.736 139.48C275.652 138.07 274.747 136.514 274.056 134.847L274.979 134.464ZM281.129 142.472C282.471 143.503 283.951 144.363 285.536 145.021L285.153 145.944C283.486 145.253 281.93 144.348 280.52 143.264L281.129 142.472ZM290.452 146.335C291.286 146.444 292.136 146.5 293 146.5L293 147.5C292.093 147.5 291.199 147.441 290.323 147.327L290.452 146.335ZM293 146.5L295.812 146.5L295.812 147.5L293 147.5L293 146.5ZM301.437 146.5L307.062 146.5L307.062 147.5L301.437 147.5L301.437 146.5ZM312.687 146.5L318.312 146.5L318.312 147.5L312.687 147.5L312.687 146.5ZM323.937 146.5L329.562 146.5L329.562 147.5L323.937 147.5L323.937 146.5ZM335.187 146.5L338 146.5L338 147.5L335.187 147.5L335.187 146.5Z" fill="#FFEB00"/>
<path d="M208 3L253 3C264.046 3 273 11.9543 273 23L273 90.5" stroke="#FFEB00" stroke-dasharray="6 6"/>
</svg>
