<svg width="341" height="150" viewBox="0 0 341 150" fill="none" xmlns="http://www.w3.org/2000/svg">
<path d="M340.667 3C340.667 4.47276 339.473 5.66667 338 5.66667C336.527 5.66667 335.333 4.47276 335.333 3C335.333 1.52724 336.527 0.333333 338 0.333333C339.473 0.333333 340.667 1.52724 340.667 3ZM338 3.5H334.985V2.5H338V3.5ZM328.956 3.5H322.926V2.5H328.956V3.5ZM316.897 3.5H310.868V2.5H316.897V3.5ZM304.838 3.5H298.809V2.5H304.838V3.5ZM292.779 3.5H286.75V2.5H292.779V3.5ZM280.721 3.5H274.691V2.5H280.721V3.5ZM268.662 3.5H262.632V2.5H268.662V3.5ZM256.603 3.5H250.574V2.5H256.603V3.5ZM244.544 3.5H238.515V2.5H244.544V3.5ZM232.485 3.5H226.456V2.5H232.485V3.5ZM220.426 3.5H214.397V2.5H220.426V3.5ZM208.368 3.5H202.338V2.5H208.368V3.5ZM196.309 3.5H190.279V2.5H196.309V3.5ZM184.25 3.5H178.221V2.5H184.25V3.5ZM172.191 3.5H166.162V2.5H172.191V3.5ZM160.132 3.5H154.103V2.5H160.132V3.5ZM148.073 3.5H142.044V2.5H148.073V3.5ZM136.015 3.5H133V2.5H136.015V3.5Z" fill="#FFEB00"/>
<path d="M3 144.333C1.52724 144.333 0.333339 145.527 0.333339 147C0.333339 148.473 1.52724 149.667 3 149.667C4.47276 149.667 5.66667 148.473 5.66667 147C5.66667 145.527 4.47276 144.333 3 144.333ZM67.5 81L67.5 83.875L68.5 83.875L68.5 81L67.5 81ZM67.5 89.625L67.5 95.375L68.5 95.375L68.5 89.625L67.5 89.625ZM67.5 101.125L67.5 106.875L68.5 106.875L68.5 101.125L67.5 101.125ZM67.5 112.625L67.5 118.375L68.5 118.375L68.5 112.625L67.5 112.625ZM67.5 124.125L67.5 127L68.5 127L68.5 124.125L67.5 124.125ZM67.5 127C67.5 127.864 67.4439 128.714 67.3352 129.548L68.3268 129.677C68.4411 128.801 68.5 127.907 68.5 127L67.5 127ZM66.0205 134.464C65.3632 136.049 64.5028 137.529 63.4715 138.871L64.2644 139.48C65.3483 138.07 66.253 136.514 66.9443 134.847L66.0205 134.464ZM59.871 142.472C58.529 143.503 57.0493 144.363 55.4642 145.021L55.8473 145.944C57.5142 145.253 59.0699 144.348 60.4803 143.264L59.871 142.472ZM50.5475 146.335C49.714 146.444 48.8637 146.5 48 146.5L48 147.5C48.907 147.5 49.8005 147.441 50.6769 147.327L50.5475 146.335ZM48 146.5L45.1875 146.5L45.1875 147.5L48 147.5L48 146.5ZM39.5625 146.5L33.9375 146.5L33.9375 147.5L39.5625 147.5L39.5625 146.5ZM28.3125 146.5L22.6875 146.5L22.6875 147.5L28.3125 147.5L28.3125 146.5ZM17.0625 146.5L11.4375 146.5L11.4375 147.5L17.0625 147.5L17.0625 146.5ZM5.8125 146.5L3 146.5L3 147.5L5.8125 147.5L5.8125 146.5ZM3 144.333C1.52724 144.333 0.333339 145.527 0.333339 147C0.333339 148.473 1.52724 149.667 3 149.667C4.47276 149.667 5.66667 148.473 5.66667 147C5.66667 145.527 4.47276 144.333 3 144.333ZM67.5 81L67.5 83.875L68.5 83.875L68.5 81L67.5 81ZM67.5 89.625L67.5 95.375L68.5 95.375L68.5 89.625L67.5 89.625ZM67.5 101.125L67.5 106.875L68.5 106.875L68.5 101.125L67.5 101.125ZM67.5 112.625L67.5 118.375L68.5 118.375L68.5 112.625L67.5 112.625ZM67.5 124.125L67.5 127L68.5 127L68.5 124.125L67.5 124.125ZM67.5 127C67.5 127.864 67.4439 128.714 67.3352 129.548L68.3268 129.677C68.4411 128.801 68.5 127.907 68.5 127L67.5 127ZM66.0205 134.464C65.3632 136.049 64.5028 137.529 63.4715 138.871L64.2644 139.48C65.3483 138.07 66.253 136.514 66.9443 134.847L66.0205 134.464ZM59.871 142.472C58.529 143.503 57.0493 144.363 55.4642 145.021L55.8473 145.944C57.5142 145.253 59.0699 144.348 60.4803 143.264L59.871 142.472ZM50.5475 146.335C49.714 146.444 48.8637 146.5 48 146.5L48 147.5C48.907 147.5 49.8005 147.441 50.6769 147.327L50.5475 146.335ZM48 146.5L45.1875 146.5L45.1875 147.5L48 147.5L48 146.5ZM39.5625 146.5L33.9375 146.5L33.9375 147.5L39.5625 147.5L39.5625 146.5ZM28.3125 146.5L22.6875 146.5L22.6875 147.5L28.3125 147.5L28.3125 146.5ZM17.0625 146.5L11.4375 146.5L11.4375 147.5L17.0625 147.5L17.0625 146.5ZM5.8125 146.5L3 146.5L3 147.5L5.8125 147.5L5.8125 146.5Z" fill="#FFEB00"/>
<path d="M133 3L88 3C76.9543 3 68 11.9543 68 23L68 90.5" stroke="#FFEB00" stroke-dasharray="6 6"/>
</svg>
