<svg width="498" height="405" viewBox="0 0 498 405" fill="none" xmlns="http://www.w3.org/2000/svg">
<g clip-path="url(#clip0_2810_8120)">
<path opacity="0.4" d="M248.071 384.29C213.799 384.29 179.544 376.774 153.454 361.734C128.082 347.106 114.104 327.622 114.104 306.876C114.104 286.13 128.082 266.656 153.454 252.028C205.626 221.956 290.508 221.956 342.671 252.028C368.043 266.656 382.021 286.139 382.021 306.885C382.021 327.631 368.043 347.106 342.671 361.734C316.589 376.747 282.326 384.29 248.071 384.29ZM248.071 230.556C213.978 230.556 179.939 238.027 154.011 252.95C128.988 267.372 115.207 286.515 115.207 306.849C115.207 327.184 128.988 346.335 154.011 360.757C205.877 390.659 290.275 390.667 342.132 360.757C367.155 346.326 380.935 327.184 380.935 306.849C380.935 286.515 367.155 267.363 342.132 252.941C316.195 238.009 282.129 230.538 248.062 230.538L248.071 230.556Z" fill="#FFF000"/>
<path opacity="0.2" d="M248.071 405C204.585 405 161.116 395.46 128.01 376.38C95.8462 357.837 78.1268 333.15 78.1268 306.858C78.1268 280.567 95.8372 255.889 128.01 237.346C194.204 199.186 301.911 199.186 368.115 237.346C400.288 255.889 417.998 280.585 417.998 306.867C417.998 333.15 400.288 357.837 368.115 376.38C335.026 395.46 291.585 405 248.071 405ZM248.071 209.801C204.791 209.801 161.511 219.296 128.566 238.286C96.7523 256.632 79.2214 280.988 79.2214 306.858C79.2214 332.729 96.7434 357.094 128.566 375.439C194.456 413.42 301.723 413.42 367.567 375.439C399.39 357.094 416.912 332.746 416.912 306.867C416.912 280.988 399.382 256.632 367.567 238.295C334.65 219.296 291.334 209.801 248.062 209.801H248.071Z" fill="#FFF000"/>
<path d="M248.071 367.942C221.057 367.942 194.061 362.011 173.497 350.16C153.481 338.623 142.455 323.287 142.455 306.858C142.455 290.43 153.481 275.103 173.497 263.565C214.615 239.863 281.509 239.872 322.627 263.565C342.653 275.112 353.67 290.439 353.67 306.867C353.67 323.296 342.653 338.605 322.627 350.16C302.073 362.011 275.068 367.933 248.071 367.942ZM248.071 246.868C221.264 246.868 194.456 252.744 174.054 264.515C154.387 275.846 143.549 290.887 143.549 306.858C143.549 322.83 154.387 337.879 174.054 349.22C214.867 372.743 281.276 372.743 322.089 349.22C341.764 337.879 352.593 322.839 352.593 306.867C352.593 290.896 341.755 275.846 322.089 264.515C301.669 252.744 274.861 246.868 248.062 246.868H248.071Z" fill="#FFF000"/>
<path d="M365.786 159.69L365.239 160.637L368.736 162.651L369.283 161.705L365.786 159.69Z" fill="#FFF000"/>
<path d="M358.874 156.985L352.495 153.313L353.042 152.363L359.421 156.045L358.874 156.985ZM346.116 149.595L339.737 145.914L340.284 144.973L346.663 148.646L346.116 149.595ZM333.349 142.241L326.97 138.559L327.517 137.61L333.896 141.291L333.349 142.241ZM320.591 134.878L314.203 131.196L314.75 130.255L321.138 133.937L320.591 134.878ZM307.824 127.559L301.454 123.877L302.001 122.982L308.38 126.654L307.824 127.559Z" fill="#FFF000"/>
<path d="M292.125 117.245L291.578 118.191L295.066 120.203L295.614 119.256L292.125 117.245Z" fill="#FFF000"/>
<path d="M416.948 244.252C412.859 244.33 408.816 243.365 405.204 241.449L342.868 205.51C339.629 203.647 337.844 201.129 337.844 198.424C337.844 195.719 339.638 193.202 342.868 191.339L405.204 155.409C411.682 151.673 422.251 151.673 428.701 155.409L491.038 191.339C494.277 193.202 496.053 195.719 496.053 198.424C496.053 201.129 494.259 203.647 491.038 205.51L428.701 241.449C425.086 243.366 421.041 244.331 416.948 244.252ZM416.948 153.68C413.048 153.607 409.193 154.532 405.751 156.367L343.415 192.297C340.526 193.963 338.929 196.14 338.929 198.442C338.929 200.744 340.517 202.921 343.415 204.587L405.751 240.526C411.924 244.109 421.982 244.109 428.181 240.526L490.517 204.587C493.406 202.921 495.003 200.744 495.003 198.442C495.003 196.14 493.415 193.963 490.517 192.297L428.181 156.367C424.728 154.528 420.861 153.603 416.948 153.68Z" fill="#FFF000"/>
<path opacity="0.4" d="M498 184.638V163.319L494.097 161.151C492.994 167.806 485.125 172.196 478.585 173.101L433.923 199.186L414.427 206.209L352.199 174.149L353.643 173.324C348.323 170.843 345.461 165.173 342.581 159.995L338.391 162.486L335.906 163.184V184.862C335.906 187.621 337.7 190.389 341.379 192.485L403.733 228.424C411.036 232.634 422.906 232.634 430.209 228.424L492.554 192.494C496.143 190.425 497.937 187.711 498.027 184.996C498.027 184.871 498.027 184.755 498.027 184.629L498 184.638Z" fill="#FFF000"/>
<path d="M498 165.719V151.584L494.097 149.416C492.994 156.072 485.125 160.461 478.585 161.366L433.923 187.451L414.427 194.474L352.199 162.414L353.643 161.59C348.323 159.108 345.461 153.438 342.581 148.26L338.391 150.751L335.906 151.449V165.916C335.906 168.675 337.7 171.443 341.379 173.548L403.733 209.478C411.036 213.688 422.906 213.688 430.209 209.478L492.554 173.548C496.143 171.479 497.937 168.765 498.027 166.051C498.027 165.925 498.027 165.809 498.027 165.683L498 165.719Z" fill="url(#paint0_linear_2810_8120)"/>
<path opacity="0.3" d="M478.585 161.366L433.923 187.451L416.948 193.569V212.631C421.559 212.724 426.118 211.638 430.191 209.478L492.554 173.548C496.143 171.479 497.937 168.765 498.027 166.051C498.027 165.925 498.027 165.809 498.027 165.684V151.584L494.438 149.604H494.061C492.841 156.152 485.081 160.47 478.585 161.366Z" fill="#FFF000"/>
<path d="M403.733 195.155L341.379 159.216C334.075 155.006 334.075 148.162 341.379 143.988L403.733 108.022C411.027 103.812 422.906 103.812 430.209 108.022L492.554 143.961C499.848 148.162 499.848 155.015 492.554 159.189L430.218 195.128C422.888 199.356 411.018 199.356 403.733 195.155Z" fill="url(#paint1_linear_2810_8120)"/>
<path d="M492.554 159.216L430.218 195.155C422.915 199.356 411.045 199.356 403.742 195.155L341.379 159.216C338.113 157.335 336.318 154.925 335.995 152.462C335.574 155.516 337.368 158.652 341.379 160.972L403.733 196.91C411.036 201.112 422.906 201.121 430.209 196.91L492.554 160.972C496.591 158.652 498.386 155.516 497.937 152.471C497.587 154.97 495.784 157.335 492.554 159.216Z" fill="white"/>
<path d="M129.921 164.098L129.374 163.157L206.559 118.664L207.106 119.605L129.921 164.098Z" fill="#FFF000"/>
<path d="M81.0516 244.252C76.9589 244.331 72.9137 243.366 69.2985 241.449L6.96214 205.51C3.72331 203.647 1.94688 201.129 1.94688 198.424C1.94688 195.719 3.74125 193.202 6.96214 191.339L69.2985 155.409C75.7762 151.673 86.345 151.673 92.7958 155.409L155.132 191.339C158.371 193.202 160.156 195.719 160.156 198.424C160.156 201.129 158.362 203.647 155.132 205.51L92.7958 241.449C89.1835 243.365 85.1414 244.33 81.0516 244.252ZM69.8458 240.508C76.0184 244.091 86.0758 244.091 92.2754 240.508L154.612 204.569C157.501 202.903 159.098 200.726 159.098 198.424C159.098 196.122 157.51 193.945 154.612 192.279L92.2754 156.349C86.1028 152.766 76.0453 152.766 69.8458 156.349L7.50943 192.279C4.62049 193.945 3.0235 196.122 3.0235 198.424C3.0235 200.726 4.61152 202.903 7.50943 204.569L69.8458 240.508Z" fill="#FFF000"/>
<path opacity="0.4" d="M162.094 184.638V163.319L158.192 161.151C157.088 167.806 149.22 172.196 142.679 173.101L98.0174 199.186L78.5216 206.209L16.3018 174.149L17.7373 173.324C12.417 170.843 9.55501 165.173 6.67505 159.995L2.4852 162.486L0 163.184V184.862C0 187.621 1.79437 190.389 5.47282 192.485L67.8092 228.424C75.1123 232.634 86.991 232.634 94.2851 228.424L156.621 192.494C160.21 190.425 162.005 187.711 162.094 184.996C162.094 184.871 162.094 184.755 162.094 184.629V184.638Z" fill="#FFF000"/>
<path d="M162.094 165.719V151.584L158.192 149.416C157.088 156.072 149.22 160.461 142.679 161.366L98.0174 187.451L78.5216 194.474L16.3018 162.414L17.7373 161.59C12.417 159.108 9.55501 153.438 6.67505 148.26L2.4852 150.751L0 151.449V165.916C0 168.675 1.79437 171.443 5.47282 173.548L67.8092 209.478C75.1123 213.688 86.991 213.688 94.2851 209.478L156.621 173.548C160.21 171.479 162.005 168.765 162.094 166.051C162.094 165.925 162.094 165.809 162.094 165.683V165.719Z" fill="url(#paint2_linear_2810_8120)"/>
<path opacity="0.3" d="M142.652 161.366L97.9904 187.451L81.0247 193.569V212.631C85.6329 212.723 90.1881 211.638 94.2582 209.478L156.595 173.548C160.183 171.479 161.978 168.765 162.067 166.051C162.067 165.925 162.067 165.809 162.067 165.684V151.584L158.479 149.604H158.111C156.935 156.152 149.175 160.47 142.652 161.366Z" fill="#FFF000"/>
<path d="M67.8092 195.155L5.47282 159.216C-1.79437 154.97 -1.79437 148.162 5.47282 143.961L67.8092 108.022C75.1123 103.812 86.982 103.812 94.2851 108.022L156.621 143.961C163.916 148.162 163.916 155.015 156.621 159.189L94.2851 195.128C87.0269 199.356 75.1123 199.356 67.8092 195.155Z" fill="url(#paint3_linear_2810_8120)"/>
<path d="M67.8092 195.155L5.47282 159.216C-1.79437 154.97 -1.79437 148.162 5.47282 143.961L67.8092 108.022C75.1123 103.812 86.982 103.812 94.2851 108.022L156.621 143.961C163.916 148.162 163.916 155.015 156.621 159.189L94.2851 195.128C87.0269 199.356 75.1123 199.356 67.8092 195.155Z" fill="#24126A"/>
<g opacity="0.51">
<path d="M67.8092 195.155L5.47282 159.216C-1.79437 154.97 -1.79437 148.162 5.47282 143.961L67.8092 108.022C75.1123 103.812 86.982 103.812 94.2851 108.022L156.621 143.961C163.916 148.162 163.916 155.015 156.621 159.189L94.2851 195.128C87.0269 199.356 75.1123 199.356 67.8092 195.155Z" fill="#453C9E"/>
</g>
<path d="M156.621 159.216L94.2851 195.155C86.991 199.356 75.1123 199.356 67.8092 195.155L5.47282 159.216C2.21605 157.335 0.412706 154.925 0.0897196 152.462C-0.331957 155.516 1.46241 158.652 5.47282 160.972L67.8092 196.91C75.1123 201.112 86.991 201.121 94.2851 196.91L156.621 160.972C160.659 158.652 162.453 155.516 162.005 152.471C161.682 154.97 159.887 157.335 156.621 159.216Z" fill="white"/>
<path d="M298.843 269.021L298.296 268.071L301.786 266.056L302.333 267.005L298.843 269.021Z" fill="#FFF000"/>
<path d="M308.712 263.359L308.165 262.463L314.553 258.782L315.1 259.722L308.712 263.359ZM321.479 256.005L320.932 255.064L327.311 251.383L327.858 252.323L321.479 256.005ZM334.246 248.642L333.699 247.746L340.078 244.073L340.625 245.014L334.246 248.642ZM347.004 241.287L346.457 240.347L352.836 236.665L353.383 237.561L347.004 241.287ZM359.771 233.897L359.224 232.956L365.603 229.32L366.15 230.26L359.771 233.897Z" fill="#FFF000"/>
<path d="M372.529 226.543L371.981 225.593L375.48 223.578L376.028 224.527L372.529 226.543Z" fill="#FFF000"/>
<path d="M248.071 347.706C243.976 347.78 239.929 346.806 236.318 344.875L173.982 308.946C170.743 307.073 168.958 304.556 168.958 301.851C168.958 299.146 170.752 296.638 173.982 294.765L236.318 258.88C242.796 255.145 253.365 255.145 259.816 258.88L322.152 294.81C325.391 296.682 327.167 299.199 327.167 301.905C327.167 304.61 325.373 307.127 322.152 308.99L259.816 344.875C256.207 346.805 252.164 347.779 248.071 347.706ZM248.071 257.134C244.169 257.048 240.309 257.958 236.857 259.776L174.52 295.715C171.631 297.372 170.034 299.558 170.034 301.851C170.034 304.144 171.622 306.33 174.52 307.996L236.857 343.979C243.029 347.563 253.087 347.563 259.286 343.979L321.623 308.041C324.511 306.384 326.108 304.198 326.108 301.905C326.108 299.612 324.52 297.426 321.623 295.76L259.286 259.776C255.831 257.957 251.968 257.047 248.062 257.134H248.071Z" fill="#FFF000"/>
<path opacity="0.4" d="M329.114 288.092V266.781L325.211 264.604C324.108 271.26 316.239 275.649 309.699 276.563L265.037 302.639L245.541 309.671L183.322 277.611L184.757 276.778C179.437 274.297 176.575 268.626 173.695 263.449L169.505 265.939L167.02 266.638V288.316C167.02 291.075 168.814 293.843 172.493 295.948L234.829 331.877C242.132 336.088 254.011 336.088 261.305 331.877L323.641 295.948C327.23 293.878 329.024 291.173 329.114 288.45C329.114 288.325 329.114 288.208 329.114 288.083V288.092Z" fill="#FFF000"/>
<path d="M329.114 269.146V255.046L325.211 252.879C324.108 259.534 316.239 263.915 309.699 264.828L265.037 290.904L245.541 297.936L183.322 265.876L184.757 265.043C179.437 262.562 176.575 256.892 173.695 251.714L169.505 254.213L167.02 254.912V269.37C167.02 272.138 168.814 274.897 172.493 277.002L234.829 312.932C242.132 317.142 254.011 317.142 261.305 312.932L323.641 277.002C327.23 274.933 329.024 272.227 329.114 269.504C329.114 269.388 329.114 269.262 329.114 269.146Z" fill="url(#paint4_linear_2810_8120)"/>
<path opacity="0.3" d="M309.699 264.828L265.037 290.905L248.071 297.023V316.094C252.68 316.183 257.236 315.094 261.305 312.932L323.641 277.002C327.23 274.933 329.024 272.228 329.114 269.504C329.114 269.388 329.114 269.263 329.114 269.146V255.046L325.525 253.058H325.157C323.955 259.615 316.195 263.924 309.699 264.828Z" fill="#FFF000"/>
<path d="M234.829 298.608L172.493 262.67C165.199 258.468 165.199 251.616 172.493 247.441L234.829 211.503C242.132 207.301 254.002 207.301 261.305 211.503L323.641 247.441C330.935 251.651 330.935 258.495 323.641 262.67L261.305 298.599C254.011 302.818 242.132 302.818 234.829 298.608Z" fill="url(#paint5_linear_2810_8120)"/>
<path d="M323.641 262.678L261.305 298.608C254.011 302.818 242.132 302.818 234.829 298.608L172.493 262.67C169.236 260.788 167.432 258.388 167.109 255.924C166.688 258.97 168.482 262.105 172.493 264.434L234.829 300.364C242.132 304.574 254.011 304.574 261.305 300.364L323.641 264.434C327.679 262.105 329.473 258.97 329.024 255.924C328.701 258.388 326.907 260.797 323.641 262.678Z" fill="white"/>
<path d="M248.071 139.383C243.979 139.462 239.933 138.497 236.318 136.58L173.982 100.641C170.743 98.7777 168.958 96.2606 168.958 93.5553C168.958 90.8501 170.752 88.3329 173.982 86.4697L236.318 50.54C242.796 46.8046 253.365 46.8046 259.816 50.54L322.152 86.4697C325.391 88.3329 327.167 90.8501 327.167 93.5553C327.167 96.2606 325.373 98.7777 322.152 100.641L259.816 136.58C256.203 138.496 252.161 139.461 248.071 139.383ZM248.071 48.8111C244.171 48.7382 240.316 49.6634 236.875 51.4984L174.529 87.4103C171.64 89.0764 170.043 91.2621 170.043 93.5553C170.043 95.8485 171.631 98.0342 174.529 99.7004L236.857 135.639C243.029 139.222 253.087 139.222 259.286 135.639L321.623 99.7004C324.511 98.0342 326.108 95.8575 326.108 93.5553C326.108 91.2532 324.52 89.0764 321.623 87.4103L259.286 51.4805C255.835 49.6476 251.971 48.7285 248.062 48.8111H248.071Z" fill="#FFF000"/>
<path opacity="0.4" d="M329.114 79.7692V58.4497L325.211 56.2819C324.108 62.9375 316.239 67.3269 309.699 68.2316L265.037 94.3167L245.541 101.34L183.322 69.2797L184.757 68.4555C179.437 65.9742 176.575 60.304 173.695 55.1263L169.505 57.6166L167.02 58.3153V79.9932C167.02 82.7522 168.814 85.5202 172.493 87.6252L234.829 123.555C242.132 127.765 254.011 127.765 261.305 123.555L323.641 87.6252C327.23 85.556 329.024 82.8418 329.114 80.1276C329.114 80.0021 329.114 79.8857 329.114 79.7603V79.7692Z" fill="#FFF000"/>
<path d="M329.114 60.8235V46.7239L325.211 44.5472C324.108 51.2028 316.239 55.5921 309.699 56.5058L265.037 82.582L245.541 89.578L183.322 57.5539L184.757 56.7208C179.437 54.2395 176.575 48.5692 173.695 43.3916L169.505 45.8819L167.02 46.5806V61.0474C167.02 63.8064 168.814 66.5744 172.493 68.6795L234.829 104.609C242.132 108.819 254.011 108.819 261.305 104.609L323.641 68.6795C327.23 66.6102 329.024 63.896 329.114 61.1818C329.114 61.0564 329.114 60.9399 329.114 60.8145V60.8235Z" fill="url(#paint6_linear_2810_8120)"/>
<path opacity="0.3" d="M309.699 56.5058L265.037 82.5819L248.071 88.6822V107.762C252.68 107.854 257.235 106.769 261.305 104.609L323.641 68.6794C327.23 66.6102 329.024 63.896 329.114 61.1818C329.114 61.0563 329.114 60.9399 329.114 60.8145V46.7239L325.525 44.7352H325.157C323.955 51.2834 316.195 55.601 309.699 56.5058Z" fill="#FFF000"/>
<path d="M184.757 56.7208L243.828 22.6811C245.141 22.014 246.593 21.6663 248.067 21.6663C249.54 21.6663 250.993 22.014 252.306 22.6811L310.345 56.1385L309.699 56.5147C316.257 55.619 324.108 51.2117 325.211 44.5561L260.067 8.37553L241.118 3.37708L225.687 12.4334L173.65 43.3916C176.575 48.5692 179.437 54.2395 184.757 56.7208Z" fill="url(#paint7_linear_2810_8120)"/>
<path opacity="0.3" d="M248.071 5.21342L241.118 3.37708L225.687 12.4334L173.65 43.3916C176.53 48.5692 179.392 54.2395 184.712 56.7208L243.783 22.6811C245.087 21.9845 246.548 21.6358 248.027 21.6689L248.071 5.21342Z" fill="#0F054C"/>
<path d="M234.829 90.2856L172.493 54.3469C165.199 50.1457 165.199 43.293 172.493 39.1187L234.829 3.1531C242.132 -1.0481 254.002 -1.0481 261.305 3.1531L323.641 39.0918C330.935 43.293 330.935 50.1457 323.641 54.32L261.305 90.2587C254.011 94.4868 242.132 94.4868 234.829 90.2856ZM252.306 8.33967C250.991 7.67744 249.539 7.33245 248.067 7.33245C246.594 7.33245 245.142 7.67744 243.828 8.33967L181.491 44.2784C179.159 45.622 179.159 47.8615 181.491 49.1604L243.828 85.099C245.142 85.762 246.594 86.1073 248.067 86.1073C249.54 86.1073 250.992 85.762 252.306 85.099L314.642 49.1604C316.975 47.8167 316.975 45.5772 314.642 44.2784L252.306 8.33967Z" fill="url(#paint8_linear_2810_8120)"/>
<path d="M314.642 44.2784L252.306 8.33973C250.991 7.6775 249.539 7.33252 248.067 7.33252C246.594 7.33252 245.142 7.6775 243.828 8.33973L181.491 44.2784C179.93 45.1742 179.419 46.4462 179.939 47.6018C180.279 46.9294 180.822 46.3809 181.491 46.0341L243.828 10.0955C245.142 9.43254 246.594 9.08717 248.067 9.08717C249.54 9.08717 250.992 9.43254 252.306 10.0955L314.642 46.0341C315.312 46.3809 315.855 46.9294 316.195 47.6018C316.706 46.4462 316.204 45.1742 314.642 44.2784Z" fill="white"/>
<path d="M323.641 54.347L261.305 90.2856C254.011 94.4868 242.132 94.4868 234.829 90.2856L172.493 54.347C169.236 52.4658 167.432 50.0651 167.109 47.5928C166.688 50.6474 168.482 53.7826 172.493 56.1027L234.829 92.0414C242.132 96.2515 254.011 96.2515 261.305 92.0414L323.641 56.1116C327.679 53.7826 329.473 50.6474 329.024 47.6017C328.701 50.0651 326.907 52.4658 323.641 54.347Z" fill="white"/>
<path d="M236.596 89.2645L174.251 53.3347C167.926 49.6889 167.926 43.7499 174.251 40.104L236.587 4.17431C242.922 0.519532 253.212 0.519532 259.546 4.17431L321.883 40.104C328.208 43.7499 328.208 49.6889 321.883 53.3347L259.546 89.2645C253.221 92.9192 242.922 92.9192 236.596 89.2645ZM254.065 7.32746C252.206 6.38698 250.151 5.89689 248.067 5.89689C245.983 5.89689 243.928 6.38698 242.069 7.32746L179.733 43.2572C176.422 45.1652 176.422 48.2736 179.733 50.1726L242.069 86.1113C243.928 87.0518 245.983 87.5419 248.067 87.5419C250.151 87.5419 252.206 87.0518 254.065 86.1113L316.401 50.1637C319.712 48.2556 319.712 45.1473 316.401 43.2482L254.065 7.32746Z" fill="url(#paint9_linear_2810_8120)"/>
<path opacity="0.4" d="M252.306 8.33973C250.991 7.6775 249.539 7.33252 248.067 7.33252C246.594 7.33252 245.142 7.6775 243.828 8.33973L181.491 44.2784C179.159 45.6221 179.159 47.8615 181.491 49.1604L243.828 85.0991C245.142 85.762 246.594 86.1074 248.067 86.1074C249.54 86.1074 250.992 85.762 252.306 85.0991L314.642 49.1604C316.975 47.8168 316.975 45.5773 314.642 44.2784L252.306 8.33973Z" fill="url(#paint10_linear_2810_8120)"/>
<path d="M67.8092 195.155L5.47282 159.216C-1.79437 154.97 -1.79437 148.162 5.47282 143.961L67.8092 108.022C75.1123 103.812 86.982 103.812 94.2851 108.022L156.621 143.961C163.916 148.162 163.916 155.015 156.621 159.189L94.2851 195.128C87.0269 199.356 75.1123 199.356 67.8092 195.155Z" fill="url(#paint11_linear_2810_8120)"/>
<mask id="mask0_2810_8120" style="mask-type:luminance" maskUnits="userSpaceOnUse" x="0" y="104" width="163" height="95">
<path d="M67.8092 195.155L5.47282 159.216C-1.79437 154.97 -1.79437 148.162 5.47282 143.961L67.8092 108.022C75.1123 103.812 86.982 103.812 94.2851 108.022L156.621 143.961C163.916 148.162 163.916 155.015 156.621 159.189L94.2851 195.128C87.0269 199.356 75.1123 199.356 67.8092 195.155Z" fill="white"/>
</mask>
<g mask="url(#mask0_2810_8120)">
<path d="M35.4119 153.698V228.048C35.4119 229.66 36.4167 231.192 38.4085 232.347L100.314 268.017C104.8 270.588 112.543 270.266 117.693 267.301C120.573 265.635 122.017 263.494 121.936 261.478V187.128L35.4119 153.698Z" fill="url(#paint12_linear_2810_8120)"/>
<path opacity="0.3" d="M104.971 269.522C109.344 270.177 113.813 269.404 117.711 267.319C120.591 265.653 122.035 263.512 121.954 261.496V187.146L105.276 180.706H104.971V269.522Z" fill="url(#paint13_linear_2810_8120)"/>
<path d="M100.305 193.677L38.3995 157.998C33.9136 155.436 34.5057 150.948 39.6466 147.983C44.7874 145.018 52.575 144.695 57.025 147.266L118.931 182.936C123.417 185.507 122.825 189.986 117.684 192.951C112.534 195.916 104.755 196.238 100.305 193.677Z" fill="url(#paint14_linear_2810_8120)"/>
</g>
</g>
<defs>
<linearGradient id="paint0_linear_2810_8120" x1="352.028" y1="123.564" x2="480.539" y2="197.873" gradientUnits="userSpaceOnUse">
<stop stop-color="#F9AE40"/>
<stop offset="1" stop-color="#F9AE40"/>
</linearGradient>
<linearGradient id="paint1_linear_2810_8120" x1="335.906" y1="151.584" x2="498" y2="151.584" gradientUnits="userSpaceOnUse">
<stop stop-color="#F7EB32"/>
<stop offset="0.18" stop-color="#F8D936"/>
<stop offset="0.48" stop-color="#F8C13C"/>
<stop offset="0.76" stop-color="#F9B33F"/>
<stop offset="1" stop-color="#F9AE40"/>
</linearGradient>
<linearGradient id="paint2_linear_2810_8120" x1="16.1224" y1="123.564" x2="144.633" y2="197.873" gradientUnits="userSpaceOnUse">
<stop stop-color="#F9AE40"/>
<stop offset="1" stop-color="#F9AE40"/>
</linearGradient>
<linearGradient id="paint3_linear_2810_8120" x1="8.15276e-07" y1="151.584" x2="162.094" y2="151.584" gradientUnits="userSpaceOnUse">
<stop stop-color="#E9E9FD"/>
<stop offset="0.36" stop-color="#D3D2F9"/>
<stop offset="0.71" stop-color="#C5C4F7"/>
<stop offset="1" stop-color="#C0BFF6"/>
</linearGradient>
<linearGradient id="paint4_linear_2810_8120" x1="183.142" y1="227.017" x2="311.653" y2="301.327" gradientUnits="userSpaceOnUse">
<stop stop-color="#F9AE40"/>
<stop offset="1" stop-color="#F9AE40"/>
</linearGradient>
<linearGradient id="paint5_linear_2810_8120" x1="167.02" y1="255.046" x2="329.114" y2="255.046" gradientUnits="userSpaceOnUse">
<stop stop-color="#F7EB32"/>
<stop offset="0.18" stop-color="#F8D936"/>
<stop offset="0.48" stop-color="#F8C13C"/>
<stop offset="0.76" stop-color="#F9B33F"/>
<stop offset="1" stop-color="#F9AE40"/>
</linearGradient>
<linearGradient id="paint6_linear_2810_8120" x1="183.142" y1="18.6949" x2="311.653" y2="93.004" gradientUnits="userSpaceOnUse">
<stop stop-color="#F9AE40"/>
<stop offset="1" stop-color="#F9AE40"/>
</linearGradient>
<linearGradient id="paint7_linear_2810_8120" x1="190.867" y1="13.7054" x2="305.464" y2="79.9694" gradientUnits="userSpaceOnUse">
<stop offset="0.24" stop-color="#F9AE40"/>
<stop offset="0.41" stop-color="#F8C63A"/>
<stop offset="0.61" stop-color="#F8DB36"/>
<stop offset="0.81" stop-color="#F7E733"/>
<stop offset="1" stop-color="#F7EB32"/>
</linearGradient>
<linearGradient id="paint8_linear_2810_8120" x1="167.02" y1="46.7238" x2="329.114" y2="46.7238" gradientUnits="userSpaceOnUse">
<stop stop-color="#F5921D"/>
<stop offset="0.19" stop-color="#F6971B"/>
<stop offset="0.4" stop-color="#F7A517"/>
<stop offset="0.64" stop-color="#FABD10"/>
<stop offset="0.88" stop-color="#FDDE06"/>
<stop offset="1" stop-color="#FFF000"/>
</linearGradient>
<linearGradient id="paint9_linear_2810_8120" x1="169.505" y1="46.7239" x2="326.629" y2="46.7239" gradientUnits="userSpaceOnUse">
<stop stop-color="#F7EB32"/>
<stop offset="0.18" stop-color="#F8D936"/>
<stop offset="0.48" stop-color="#F8C13C"/>
<stop offset="0.76" stop-color="#F9B33F"/>
<stop offset="1" stop-color="#F9AE40"/>
</linearGradient>
<linearGradient id="paint10_linear_2810_8120" x1="179.742" y1="46.7239" x2="316.392" y2="46.7239" gradientUnits="userSpaceOnUse">
<stop stop-color="#F7EB32"/>
<stop offset="0.18" stop-color="#F8D936"/>
<stop offset="0.48" stop-color="#F8C13C"/>
<stop offset="0.76" stop-color="#F9B33F"/>
<stop offset="1" stop-color="#F9AE40"/>
</linearGradient>
<linearGradient id="paint11_linear_2810_8120" x1="8.15276e-07" y1="151.584" x2="162.094" y2="151.584" gradientUnits="userSpaceOnUse">
<stop stop-color="#F7EB32"/>
<stop offset="0.18" stop-color="#F8D936"/>
<stop offset="0.48" stop-color="#F8C13C"/>
<stop offset="0.76" stop-color="#F9B33F"/>
<stop offset="1" stop-color="#F9AE40"/>
</linearGradient>
<linearGradient id="paint12_linear_2810_8120" x1="46.2588" y1="211.735" x2="132.774" y2="211.735" gradientUnits="userSpaceOnUse">
<stop stop-color="#F7EB32"/>
<stop offset="0.18" stop-color="#F8D936"/>
<stop offset="0.48" stop-color="#F8C13C"/>
<stop offset="0.76" stop-color="#F9B33F"/>
<stop offset="1" stop-color="#F9AE40"/>
</linearGradient>
<linearGradient id="paint13_linear_2810_8120" x1="104.944" y1="225.208" x2="121.936" y2="225.208" gradientUnits="userSpaceOnUse">
<stop stop-color="#F7EB32"/>
<stop offset="0.18" stop-color="#F8D936"/>
<stop offset="0.48" stop-color="#F8C13C"/>
<stop offset="0.76" stop-color="#F9B33F"/>
<stop offset="1" stop-color="#F9AE40"/>
</linearGradient>
<linearGradient id="paint14_linear_2810_8120" x1="-44.922" y1="170.467" x2="168.581" y2="170.467" gradientUnits="userSpaceOnUse">
<stop stop-color="#F7EB32"/>
<stop offset="0.18" stop-color="#F8D936"/>
<stop offset="0.48" stop-color="#F8C13C"/>
<stop offset="0.76" stop-color="#F9B33F"/>
<stop offset="1" stop-color="#F9AE40"/>
</linearGradient>
<clipPath id="clip0_2810_8120">
<rect width="498" height="405" fill="white"/>
</clipPath>
</defs>
</svg>
