<svg width="554" height="390" viewBox="0 0 554 390" fill="none" xmlns="http://www.w3.org/2000/svg">
<g clip-path="url(#clip0_2905_4189)">
<path d="M406.575 180.441L405.97 181.489L409.85 183.729L410.455 182.681L406.575 180.441Z" fill="#FFF000"/>
<path d="M398.9 177.43L391.8 173.34L392.41 172.28L399.51 176.38L398.9 177.43ZM384.71 169.24L377.62 165.15L378.23 164.09L385.32 168.19L384.71 169.24ZM370.53 161.05L363.43 156.95L364.04 155.95L371.13 160.05L370.53 161.05ZM356.34 152.86L349.24 148.76L349.85 147.76L356.95 151.86L356.34 152.86ZM342.15 144.67L335.06 140.57L335.67 139.57L342.76 143.67L342.15 144.67Z" fill="#FFF000"/>
<path d="M324.694 133.185L324.084 134.242L327.963 136.482L328.574 135.426L324.694 133.185Z" fill="#FFF000"/>
<path d="M463.45 274.58C458.902 274.67 454.406 273.596 450.39 271.46L381.1 231.46C377.5 229.38 375.52 226.58 375.52 223.57C375.52 220.56 377.52 217.76 381.1 215.68L450.39 175.68C457.59 171.52 469.3 171.52 476.51 175.68L545.79 215.68C549.39 217.76 551.37 220.56 551.37 223.57C551.37 226.58 549.37 229.39 545.79 231.46L476.51 271.46C472.494 273.596 467.998 274.67 463.45 274.58ZM463.45 173.75C459.109 173.674 454.821 174.707 450.99 176.75L381.71 216.75C378.5 218.61 376.71 221.03 376.71 223.59C376.71 226.15 378.47 228.59 381.71 230.43L451 270.43C457.86 274.43 469 274.43 475.9 270.43L545.19 230.43C548.39 228.58 550.19 226.15 550.19 223.59C550.19 221.03 548.42 218.59 545.19 216.76L475.9 176.76C472.074 174.713 467.789 173.676 463.45 173.75Z" fill="#FFF000"/>
<path opacity="0.4" d="M553.53 208.21V184.48L549.19 182.07C547.97 189.48 539.19 194.36 531.95 195.37L482.31 224.37L460.64 232.19L391.48 196.5L393.08 195.58C387.17 192.82 383.98 186.5 380.78 180.74L376.13 183.51L373.36 184.29V208.42C373.36 211.5 375.36 214.57 379.45 216.91L448.74 256.91C456.85 261.59 470.05 261.59 478.16 256.91L547.45 216.91C551.45 214.6 553.45 211.59 553.53 208.56C553.53 208.43 553.53 208.29 553.53 208.16V208.21Z" fill="#FFF000"/>
<path d="M553.53 187.12V171.42L549.19 169C547.97 176.4 539.19 181.29 531.95 182.3L482.31 211.3L460.64 219.13L391.48 183.44L393.08 182.51C387.17 179.75 383.98 173.44 380.78 167.68L376.13 170.45L373.36 171.23V187.33C373.36 190.41 375.36 193.48 379.45 195.82L448.74 235.82C456.85 240.5 470.05 240.5 478.16 235.82L547.45 195.82C551.45 193.52 553.45 190.51 553.53 187.48C553.53 187.35 553.53 187.21 553.53 187.08V187.12Z" fill="url(#paint0_linear_2905_4189)"/>
<path opacity="0.3" d="M532 182.31L482.36 211.31L463.5 218.12V239.35C468.622 239.452 473.686 238.244 478.21 235.84L547.5 195.84C551.5 193.54 553.5 190.53 553.58 187.5C553.58 187.37 553.58 187.23 553.58 187.1V171.4L549.58 169.19H549.17C547.8 176.51 539.18 181.31 532 182.31Z" fill="#FFF000"/>
<path d="M448.74 219.92L379.45 179.92C371.33 175.24 371.33 167.62 379.45 162.92L448.73 122.92C456.85 118.24 470.05 118.24 478.16 122.92L547.45 162.92C555.56 167.6 555.56 175.22 547.45 179.92L478.16 219.92C470.05 224.6 456.85 224.6 448.74 219.92Z" fill="url(#paint1_linear_2905_4189)"/>
<path d="M547.45 179.92L478.16 219.92C470.05 224.6 456.85 224.6 448.74 219.92L379.45 179.92C375.82 177.83 373.82 175.15 373.45 172.41C372.97 175.8 374.97 179.29 379.45 181.88L448.74 221.88C456.85 226.57 470.05 226.57 478.16 221.88L547.45 181.88C551.94 179.29 553.94 175.8 553.45 172.41C553.07 175.14 551.07 177.82 547.45 179.92Z" fill="white"/>
<path d="M270.3 155.17C265.752 155.26 261.256 154.186 257.24 152.05L188 112C184.4 109.92 182.42 107.12 182.42 104.11C182.42 101.1 184.42 98.3 188 96.22L257.29 56.22C264.49 52.06 276.21 52.06 283.41 56.22L352.7 96.22C356.29 98.3 358.27 101.1 358.27 104.11C358.27 107.12 356.27 109.93 352.7 112L283.41 152C279.383 154.162 274.869 155.253 270.3 155.17ZM270.3 54.34C265.962 54.2633 261.677 55.296 257.85 57.34L188.56 97.34C185.35 99.2 183.56 101.62 183.56 104.18C183.56 106.74 185.32 109.18 188.56 111.02L257.85 151.02C264.71 155.02 275.85 155.02 282.75 151.02L352 111C355.21 109.15 357 106.72 357 104.16C357 101.6 355.24 99.16 352 97.33L282.71 57.33C278.894 55.296 274.623 54.2671 270.3 54.34Z" fill="#FFF000"/>
<path opacity="0.4" d="M360.38 88.8V65.07L356 62.66C354.82 70.07 346.1 75 338.81 76L289.16 105L267.49 112.82L198.33 77.13L199.93 76.21C194.02 73.45 190.83 67.13 187.64 61.37L183 64.14L180.23 64.92V89.05C180.23 92.13 182.23 95.2 186.32 97.54L255.61 137.54C263.72 142.22 276.92 142.22 285.03 137.54L354.32 97.54C358.32 95.23 360.32 92.22 360.4 89.19C360.41 89.0569 360.41 88.9231 360.4 88.79L360.38 88.8Z" fill="#FFF000"/>
<path d="M360.38 67.71V52L356 49.6C354.78 57 346.06 61.89 338.77 62.9L289.12 91.9L267.45 99.73L198.33 64.07L199.93 63.14C194.02 60.38 190.83 54.07 187.64 48.31L183 51.08L180.23 51.86V68C180.23 71.08 182.23 74.15 186.32 76.49L255.61 116.49C263.72 121.17 276.92 121.17 285.03 116.49L354.32 76.49C358.32 74.18 360.32 71.17 360.4 68.14C360.41 68.0068 360.41 67.8731 360.4 67.74L360.38 67.71Z" fill="url(#paint2_linear_2905_4189)"/>
<path opacity="0.3" d="M338.81 62.9L289.16 91.9L270.3 98.74V120C275.422 120.091 280.481 118.873 285 116.46L354.29 76.46C358.29 74.15 360.29 71.14 360.37 68.11C360.38 67.9768 360.38 67.8431 360.37 67.71V52L356.37 49.79H356C354.65 57.1 346 61.9 338.81 62.9Z" fill="#FFF000"/>
<path d="M255.59 100.51L186.3 60.51C178.19 55.83 178.19 48.21 186.3 43.51L255.59 3.51C263.7 -1.17 276.9 -1.17 285.01 3.51L354.3 43.51C362.41 48.19 362.41 55.81 354.3 60.51L285.01 100.51C276.9 105.19 263.7 105.19 255.59 100.51Z" fill="url(#paint3_linear_2905_4189)"/>
<path d="M354.3 60.51L285.01 100.51C276.9 105.19 263.7 105.19 255.59 100.51L186.3 60.51C182.67 58.42 180.67 55.74 180.3 53C179.82 56.39 181.82 59.88 186.3 62.47L255.59 102.47C263.7 107.16 276.9 107.16 285.01 102.47L354.3 62.47C358.79 59.88 360.79 56.39 360.3 53C359.93 55.73 357.93 58.41 354.3 60.51Z" fill="white"/>
<path d="M144.41 185.35L143.8 184.3L229.59 134.76L230.2 135.82L144.41 185.35Z" fill="#FFF000"/>
<path d="M90.09 274.58C85.5318 274.675 81.0252 273.601 77 271.46L7.71 231.46C4.11 229.38 2.13 226.58 2.13 223.57C2.13 220.56 4.13 217.76 7.71 215.68L76.99 175.68C84.2 171.52 95.91 171.52 103.11 175.68L172.4 215.68C176 217.76 177.98 220.56 177.98 223.57C177.98 226.58 175.98 229.39 172.4 231.46L103.12 271.46C99.1121 273.59 94.6278 274.663 90.09 274.58ZM77.63 270.41C84.5 274.41 95.63 274.41 102.54 270.41L171.82 230.41C175.03 228.56 176.82 226.13 176.82 223.57C176.82 221.01 175.05 218.57 171.82 216.74L102.54 176.74C95.67 172.74 84.54 172.74 77.63 176.74L8.34 216.74C5.14 218.6 3.34 221.02 3.34 223.58C3.34 226.14 5.11 228.58 8.34 230.42L77.63 270.41Z" fill="#FFF000"/>
<path opacity="0.4" d="M180.17 208.21V184.48L175.83 182.07C174.6 189.48 165.83 194.36 158.59 195.37L108.94 224.37L87.28 232.19L18.12 196.54L19.71 195.62C13.8 192.86 10.62 186.54 7.42 180.78L2.77 183.55L0 184.33V208.46C0 211.54 2 214.61 6.08 216.95L75.37 256.95C83.49 261.63 96.69 261.63 104.8 256.95L174.09 216.95C178.09 214.64 180.09 211.63 180.17 208.6C180.17 208.47 180.17 208.33 180.17 208.2V208.21Z" fill="#FFF000"/>
<path d="M180.17 187.12V171.42L175.83 169C174.6 176.4 165.83 181.29 158.59 182.3L108.94 211.3L87.28 219.13L18.12 183.48L19.71 182.55C13.8 179.79 10.62 173.48 7.42 167.72L2.77 170.49L0 171.27V187.37C0 190.45 2 193.52 6.08 195.86L75.37 235.86C83.49 240.54 96.69 240.54 104.8 235.86L174.09 195.86C178.09 193.56 180.09 190.55 180.17 187.52C180.17 187.39 180.17 187.25 180.17 187.12Z" fill="url(#paint4_linear_2905_4189)"/>
<path opacity="0.3" d="M158.59 182.31L108.94 211.31L90.09 218.12V239.35C95.212 239.45 100.275 238.242 104.8 235.84L174.09 195.84C178.09 193.54 180.09 190.53 180.17 187.5C180.17 187.37 180.17 187.23 180.17 187.1V171.4L176.17 169.19H175.76C174.43 176.51 165.81 181.31 158.59 182.31Z" fill="#FFF000"/>
<path d="M75.37 219.92L6.08 179.92C-2.03 175.24 -2.03 167.62 6.08 162.92L75.37 122.92C83.48 118.24 96.68 118.24 104.8 122.92L174.09 162.92C182.2 167.6 182.2 175.22 174.09 179.92L104.8 219.92C96.69 224.6 83.49 224.6 75.37 219.92Z" fill="url(#paint5_linear_2905_4189)"/>
<path d="M75.37 219.92L6.08 179.92C-2.03 175.24 -2.03 167.62 6.08 162.92L75.37 122.92C83.48 118.24 96.68 118.24 104.8 122.92L174.09 162.92C182.2 167.6 182.2 175.22 174.09 179.92L104.8 219.92C96.69 224.6 83.49 224.6 75.37 219.92Z" fill="#24126A"/>
<g opacity="0.51">
<path d="M75.37 219.92L6.08 179.92C-2.03 175.24 -2.03 167.62 6.08 162.92L75.37 122.92C83.48 118.24 96.68 118.24 104.8 122.92L174.09 162.92C182.2 167.6 182.2 175.22 174.09 179.92L104.8 219.92C96.69 224.6 83.49 224.6 75.37 219.92Z" fill="#453C9E"/>
</g>
<path d="M174.09 179.92L104.8 219.92C96.69 224.6 83.49 224.6 75.37 219.92L6.08001 179.92C2.46001 177.83 0.460014 175.15 0.0800143 172.41C-0.389986 175.8 1.61001 179.29 6.08001 181.88L75.37 221.88C83.49 226.57 96.69 226.57 104.8 221.88L174.09 181.88C178.57 179.29 180.57 175.8 180.09 172.41C179.71 175.14 177.71 177.82 174.09 179.92Z" fill="white"/>
<path d="M332.16 302.15L331.56 301.1L335.44 298.86L336.05 299.91L332.16 302.15Z" fill="#FFF000"/>
<path d="M343.14 295.81L342.53 294.76L349.62 290.67L350.23 291.72L343.14 295.81ZM357.33 287.62L356.72 286.57L363.81 282.48L364.42 283.48L357.33 287.62ZM371.51 279.43L370.91 278.38L378 274.29L378.61 275.29L371.51 279.43ZM385.7 271.24L385.09 270.19L392.19 266.09L392.79 267.14L385.7 271.24ZM399.89 263.05L399.28 262L406.37 257.9L407 259L399.89 263.05Z" fill="#FFF000"/>
<path d="M414.07 254.86L413.46 253.81L417.35 251.57L417.96 252.62L414.07 254.86Z" fill="#FFF000"/>
<path d="M275.73 389.75C271.182 389.84 266.686 388.766 262.67 386.63L193.38 346.63C189.78 344.55 187.8 341.75 187.8 338.74C187.8 335.73 189.8 332.92 193.38 330.85L262.67 290.85C269.87 286.69 281.59 286.69 288.79 290.85L358.08 330.85C361.67 332.92 363.66 335.73 363.66 338.74C363.66 341.75 361.66 344.55 358.08 346.63L288.79 386.63C284.774 388.766 280.278 389.84 275.73 389.75ZM275.73 288.92C271.392 288.843 267.107 289.876 263.28 291.92L194 331.9C190.79 333.75 189 336.18 189 338.74C189 341.3 190.76 343.74 194 345.58L263.29 385.58C270.15 389.58 281.29 389.58 288.19 385.58L357.48 345.58C360.69 343.73 362.48 341.3 362.48 338.74C362.48 336.18 360.72 333.74 357.48 331.9L288.19 291.9C284.358 289.861 280.069 288.835 275.73 288.92Z" fill="#FFF000"/>
<path opacity="0.4" d="M365.82 323.38V299.66L361.47 297.24C360.25 304.65 351.53 309.53 344.24 310.55L294.59 339.55L272.92 347.37L203.76 311.68L205.36 310.76C199.45 308 196.26 301.68 193.07 295.92L188.41 298.7L185.64 299.47V323.6C185.64 326.68 187.64 329.76 191.73 332.1L261.02 372.1C269.13 376.78 282.33 376.78 290.44 372.1L359.73 332.1C363.73 329.79 365.73 326.78 365.81 323.75C365.81 323.62 365.81 323.48 365.81 323.35L365.82 323.38Z" fill="#FFF000"/>
<path d="M365.82 302.29V286.59L361.47 284.18C360.25 291.59 351.53 296.47 344.24 297.48L294.59 326.48L272.92 334.3L203.76 298.61L205.36 297.69C199.45 294.93 196.26 288.61 193.07 282.85L188.41 285.63L185.64 286.4V302.5C185.64 305.58 187.64 308.66 191.73 311L261 351C269.11 355.68 282.31 355.68 290.42 351L359.71 311C363.71 308.69 365.71 305.68 365.79 302.65C365.79 302.52 365.79 302.38 365.79 302.25L365.82 302.29Z" fill="url(#paint6_linear_2905_4189)"/>
<path opacity="0.3" d="M344.24 297.48L294.59 326.48L275.73 333.29V354.51C280.852 354.612 285.916 353.404 290.44 351L359.73 311C363.73 308.69 365.73 305.68 365.81 302.65C365.81 302.52 365.81 302.38 365.81 302.25V286.55L361.81 284.35H361.39C360.08 291.68 351.46 296.48 344.24 297.48Z" fill="#FFF000"/>
<path d="M261 335.09L191.71 295.09C183.6 290.4 183.6 282.78 191.71 278.09L261 238.09C269.11 233.4 282.31 233.4 290.42 238.09L359.71 278.09C367.82 282.77 367.82 290.39 359.71 295.09L290.42 335.09C282.33 339.78 269.13 339.78 261 335.09Z" fill="url(#paint7_linear_2905_4189)"/>
<path d="M359.73 295.09L290.44 335.09C282.33 339.78 269.13 339.78 261.02 335.09L191.73 295.09C188.1 292.99 186.1 290.31 185.73 287.57C185.25 290.96 187.25 294.45 191.73 297.04L261.02 337.04C269.13 341.72 282.33 341.72 290.44 337.04L359.73 297.04C364.22 294.45 366.22 290.97 365.73 287.57C365.36 290.31 363.36 293 359.73 295.09Z" fill="white"/>
<path d="M75.37 219.92L6.08 179.92C-2.03 175.24 -2.03 167.62 6.08 162.92L75.37 122.92C83.48 118.24 96.68 118.24 104.8 122.92L174.09 162.92C182.2 167.6 182.2 175.22 174.09 179.92L104.8 219.92C96.69 224.6 83.49 224.6 75.37 219.92Z" fill="url(#paint8_linear_2905_4189)"/>
<mask id="mask0_2905_4189" style="mask-type:luminance" maskUnits="userSpaceOnUse" x="-1" y="119" width="182" height="105">
<path d="M75.37 219.92L6.08 179.92C-2.03 175.24 -2.03 167.62 6.08 162.92L75.37 122.92C83.48 118.24 96.68 118.24 104.8 122.92L174.09 162.92C182.2 167.6 182.2 175.22 174.09 179.92L104.8 219.92C96.69 224.6 83.49 224.6 75.37 219.92Z" fill="white"/>
</mask>
<g mask="url(#mask0_2905_4189)">
<path d="M39.36 173.77V256.55C39.36 258.34 40.47 260.05 42.69 261.33L111.48 301.05C116.48 303.9 125.08 303.55 130.79 300.24C134 298.39 135.6 296.01 135.52 293.77V211L39.36 173.77Z" fill="url(#paint9_linear_2905_4189)"/>
<path opacity="0.3" d="M116.65 302.71C121.509 303.442 126.473 302.578 130.8 300.25C134.01 298.4 135.61 296.02 135.53 293.78V211L117 203.8H116.66L116.65 302.71Z" fill="url(#paint10_linear_2905_4189)"/>
<path d="M111.49 218.27L42.7 178.56C37.7 175.7 38.37 170.71 44.09 167.41C49.81 164.11 58.45 163.75 63.41 166.61L132.19 206.32C137.14 209.18 136.52 214.17 130.8 217.47C125.09 220.77 116.44 221.13 111.49 218.27Z" fill="url(#paint11_linear_2905_4189)"/>
</g>
</g>
<defs>
<linearGradient id="paint0_linear_2905_4189" x1="391.29" y1="140.22" x2="534.24" y2="222.76" gradientUnits="userSpaceOnUse">
<stop stop-color="#F9AE40"/>
<stop offset="1" stop-color="#F9AE40"/>
</linearGradient>
<linearGradient id="paint1_linear_2905_4189" x1="373.36" y1="171.42" x2="553.53" y2="171.42" gradientUnits="userSpaceOnUse">
<stop stop-color="#F7EB32"/>
<stop offset="0.12" stop-color="#F6D92E"/>
<stop offset="0.36" stop-color="#F3B827"/>
<stop offset="0.6" stop-color="#F1A021"/>
<stop offset="0.81" stop-color="#F0921E"/>
<stop offset="1" stop-color="#F08D1D"/>
</linearGradient>
<linearGradient id="paint2_linear_2905_4189" x1="198.14" y1="20.81" x2="341.09" y2="103.35" gradientUnits="userSpaceOnUse">
<stop stop-color="#F9AE40"/>
<stop offset="1" stop-color="#F9AE40"/>
</linearGradient>
<linearGradient id="paint3_linear_2905_4189" x1="180.21" y1="52.01" x2="360.38" y2="52.01" gradientUnits="userSpaceOnUse">
<stop stop-color="#F7EB32"/>
<stop offset="0.12" stop-color="#F6D92E"/>
<stop offset="0.36" stop-color="#F3B827"/>
<stop offset="0.6" stop-color="#F1A021"/>
<stop offset="0.81" stop-color="#F0921E"/>
<stop offset="1" stop-color="#F08D1D"/>
</linearGradient>
<linearGradient id="paint4_linear_2905_4189" x1="17.92" y1="140.22" x2="160.87" y2="222.76" gradientUnits="userSpaceOnUse">
<stop stop-color="#F9AE40"/>
<stop offset="1" stop-color="#F9AE40"/>
</linearGradient>
<linearGradient id="paint5_linear_2905_4189" x1="-2.4414e-06" y1="171.42" x2="180.17" y2="171.42" gradientUnits="userSpaceOnUse">
<stop stop-color="#E9E9FD"/>
<stop offset="0.36" stop-color="#D3D2F9"/>
<stop offset="0.71" stop-color="#C5C4F7"/>
<stop offset="1" stop-color="#C0BFF6"/>
</linearGradient>
<linearGradient id="paint6_linear_2905_4189" x1="203.57" y1="255.4" x2="346.52" y2="337.93" gradientUnits="userSpaceOnUse">
<stop stop-color="#F9AE40"/>
<stop offset="1" stop-color="#F9AE40"/>
</linearGradient>
<linearGradient id="paint7_linear_2905_4189" x1="185.64" y1="286.59" x2="365.82" y2="286.59" gradientUnits="userSpaceOnUse">
<stop stop-color="#F7EB32"/>
<stop offset="0.12" stop-color="#F6D92E"/>
<stop offset="0.36" stop-color="#F3B827"/>
<stop offset="0.6" stop-color="#F1A021"/>
<stop offset="0.81" stop-color="#F0921E"/>
<stop offset="1" stop-color="#F08D1D"/>
</linearGradient>
<linearGradient id="paint8_linear_2905_4189" x1="-2.4414e-06" y1="171.42" x2="180.17" y2="171.42" gradientUnits="userSpaceOnUse">
<stop stop-color="#F7EB32"/>
<stop offset="0.12" stop-color="#F6D92E"/>
<stop offset="0.36" stop-color="#F3B827"/>
<stop offset="0.6" stop-color="#F1A021"/>
<stop offset="0.81" stop-color="#F0921E"/>
<stop offset="1" stop-color="#F08D1D"/>
</linearGradient>
<linearGradient id="paint9_linear_2905_4189" x1="51.41" y1="238.38" x2="147.58" y2="238.38" gradientUnits="userSpaceOnUse">
<stop stop-color="#F7EB32"/>
<stop offset="0.12" stop-color="#F6D92E"/>
<stop offset="0.36" stop-color="#F3B827"/>
<stop offset="0.6" stop-color="#F1A021"/>
<stop offset="0.81" stop-color="#F0921E"/>
<stop offset="1" stop-color="#F08D1D"/>
</linearGradient>
<linearGradient id="paint10_linear_2905_4189" x1="116.65" y1="253.38" x2="135.53" y2="253.38" gradientUnits="userSpaceOnUse">
<stop stop-color="#F7EB32"/>
<stop offset="0.12" stop-color="#F6D92E"/>
<stop offset="0.36" stop-color="#F3B827"/>
<stop offset="0.6" stop-color="#F1A021"/>
<stop offset="0.81" stop-color="#F0921E"/>
<stop offset="1" stop-color="#F08D1D"/>
</linearGradient>
<linearGradient id="paint11_linear_2905_4189" x1="-49.94" y1="192.44" x2="187.38" y2="192.44" gradientUnits="userSpaceOnUse">
<stop stop-color="#F7EB32"/>
<stop offset="0.12" stop-color="#F6D92E"/>
<stop offset="0.36" stop-color="#F3B827"/>
<stop offset="0.6" stop-color="#F1A021"/>
<stop offset="0.81" stop-color="#F0921E"/>
<stop offset="1" stop-color="#F08D1D"/>
</linearGradient>
<clipPath id="clip0_2905_4189">
<rect width="553.53" height="389.75" fill="white"/>
</clipPath>
</defs>
</svg>
