<svg width="213" height="167" viewBox="0 0 213 167" fill="none" xmlns="http://www.w3.org/2000/svg">
<g clip-path="url(#clip0_2029_488)">
<path d="M213 91.5745V95.1702L87.7115 167V163.404L213 91.5745Z" fill="#AB291D"/>
<path d="M87.7115 163.404V167L0 116.723V113.128L87.7115 163.404Z" fill="#9B2616"/>
<path d="M213 91.5745L87.7115 163.404L3.13141 114.925L125.299 41.2979L213 91.5745Z" fill="#6C1A0F"/>
<path d="M9.39424 100.553L0 95.1702V113.128L9.39424 118.511V100.553Z" fill="#6C1A0F"/>
<path d="M206.737 77.2128V91.5745L87.7115 159.819V145.447L206.737 77.2128Z" fill="#C5C5C5"/>
<path d="M6.26282 98.7659V113.128L87.7115 159.819V145.447L6.26282 98.7659Z" fill="#898989"/>
<path d="M125.246 30.9655L6.26282 98.7659L87.7115 145.447L205.321 76.8638L125.246 30.9655Z" fill="#DCDCDC"/>
<path d="M213 70.0319V73.6276L87.7115 145.447V141.862L213 70.0319Z" fill="#AB291D"/>
<path d="M87.7115 141.862V145.447L0 95.1702V91.5745L87.7115 141.862Z" fill="#9B2616"/>
<path d="M213 70.0319L87.7115 141.862L0 91.5744L125.299 19.7552L213 70.0319Z" fill="#DE361F"/>
<path d="M3.13141 118.511L0 116.723V91.5745L3.13141 93.3723V118.511Z" fill="#9B2616"/>
<path d="M203.606 64.6489V68.2341L87.7115 134.681V131.085L203.606 64.6489Z" fill="#EF881F"/>
<path d="M87.7115 131.085V134.681L12.5256 91.5745V87.9894L87.7115 131.085Z" fill="#E88102"/>
<path d="M203.606 64.6489L87.7115 131.085L15.6677 89.7872L131.562 23.3405L203.606 64.6489Z" fill="#8A4C01"/>
<path d="M18.7991 73.6276L15.657 71.8297L15.6677 89.7872L18.7991 91.5744V73.6276Z" fill="#8A4C01"/>
<path d="M197.343 50.2766V64.6489L87.7115 127.489V113.128L197.343 50.2766Z" fill="#C5C5C5"/>
<path d="M18.7991 73.6277V87.9894L87.7115 127.489V113.128L18.7991 73.6277Z" fill="#898989"/>
<path d="M125.299 12.5745L18.7991 73.6277L87.7115 113.128L194.212 52.0745L125.299 12.5745Z" fill="#DCDCDC"/>
<path d="M203.606 43.0957V46.6914L87.7115 113.128V109.542L203.606 43.0957Z" fill="#EF881F"/>
<path d="M87.7115 109.542V113.128L12.5256 70.0319V66.4362L87.7115 109.542Z" fill="#E88102"/>
<path d="M203.606 43.0957L87.7115 109.543L12.5256 66.4362L128.431 0L203.606 43.0957Z" fill="url(#paint0_linear_2029_488)"/>
<path d="M15.6677 93.3723L12.5256 91.5745V66.4362L15.657 68.234L15.6677 93.3723Z" fill="#E88102"/>
<path d="M109.482 43.836C109.745 43.8402 110.005 43.8957 110.246 43.9994C110.488 44.1032 110.706 44.2531 110.889 44.4407C111.072 44.6283 111.216 44.8498 111.313 45.0927C111.409 45.3355 111.457 45.5949 111.453 45.856L111.368 50.964C111.362 51.2255 111.409 51.4855 111.505 51.7289C111.601 51.9724 111.745 52.1945 111.928 52.3823C112.111 52.5702 112.33 52.7201 112.572 52.8234C112.814 52.9266 113.075 52.9812 113.338 52.984L118.482 53.0686C118.745 53.0727 119.005 53.1282 119.246 53.232C119.488 53.3357 119.706 53.4857 119.889 53.6733C120.072 53.8608 120.216 54.0824 120.313 54.3252C120.41 54.568 120.457 54.8274 120.453 55.0885C120.45 55.35 120.395 55.6084 120.291 55.8487C120.187 56.089 120.036 56.3064 119.847 56.4884C119.658 56.6703 119.434 56.8132 119.189 56.9088C118.944 57.0043 118.682 57.0506 118.419 57.045L111.272 56.9287C110.728 57.4246 110.011 57.6901 109.272 57.6686C108.534 57.6472 107.834 57.3405 107.32 56.8139C106.807 56.2873 106.52 55.5823 106.522 54.8492C106.524 54.1161 106.814 53.4127 107.331 52.8888L107.448 45.7925C107.451 45.531 107.506 45.2726 107.61 45.0323C107.714 44.792 107.865 44.5746 108.054 44.3927C108.243 44.2107 108.467 44.0678 108.712 43.9723C108.957 43.8767 109.219 43.8304 109.482 43.836Z" fill="white"/>
<path d="M116.459 37.131C116.986 37.1394 117.489 37.354 117.858 37.7282C118.227 38.1025 118.432 38.6061 118.429 39.1298L118.344 44.2379C118.337 44.5043 118.384 44.7694 118.482 45.0174C118.58 45.2655 118.727 45.4915 118.915 45.6819C119.103 45.8723 119.327 46.0232 119.575 46.1258C119.823 46.2284 120.089 46.2805 120.357 46.279L125.501 46.3636C126.033 46.372 126.539 46.5895 126.908 46.9683C127.278 47.3472 127.48 47.8562 127.472 48.3835C127.463 48.9108 127.244 49.4132 126.863 49.7801C126.481 50.147 125.969 50.3484 125.438 50.34L118.227 50.2237C117.962 50.4922 117.646 50.7053 117.297 50.8504C116.948 50.9956 116.573 51.0699 116.195 51.0689C115.816 51.0679 115.442 50.9916 115.094 50.8446C114.745 50.6976 114.43 50.4828 114.167 50.2129C113.904 49.9431 113.698 49.6236 113.561 49.2733C113.424 48.923 113.359 48.549 113.37 48.1735C113.381 47.7979 113.468 47.4284 113.625 47.0866C113.783 46.7449 114.007 46.4379 114.286 46.1838L114.403 39.0769C114.407 38.8145 114.464 38.5555 114.57 38.315C114.676 38.0745 114.829 37.8574 115.02 37.6763C115.212 37.4951 115.437 37.3537 115.684 37.26C115.931 37.1664 116.195 37.1226 116.459 37.131Z" fill="white"/>
</g>
<defs>
<linearGradient id="paint0_linear_2029_488" x1="12.5256" y1="54.7713" x2="203.606" y2="54.7713" gradientUnits="userSpaceOnUse">
<stop stop-color="#FFF000"/>
<stop offset="1" stop-color="#F5921D"/>
</linearGradient>
<clipPath id="clip0_2029_488">
<rect width="213" height="167" fill="white"/>
</clipPath>
</defs>
</svg>
