<svg width="498" height="383" viewBox="0 0 498 383" fill="none" xmlns="http://www.w3.org/2000/svg">
<g clip-path="url(#clip0_2808_2081)">
<path d="M246.418 381.579L164.039 334.263C160.365 332.138 160.272 314.338 161.763 310.592L238.964 270.623C243.21 268.178 249.692 267.966 253.379 270.025L337.621 312.837C340.709 317.712 338.952 335.937 334.72 338.381L260.886 380.981C256.587 383.425 250.091 383.691 246.418 381.579Z" fill="url(#paint0_linear_2808_2081)"/>
<path opacity="0.8" d="M0 82.3567L162.042 309.954C189.382 325.726 216.731 341.485 244.088 357.23C246.958 358.888 250.216 359.761 253.532 359.761C256.849 359.761 260.106 358.888 262.976 357.23L337.675 312.837L498 88.0154C471.348 70.6955 443.529 55.2323 414.743 41.7361C392.434 31.229 326.627 3.65263 251.21 0.331784C129.791 -5.02142 35.6323 56.3346 0 82.3567Z" fill="url(#paint1_linear_2808_2081)"/>
<g opacity="0.5">
<path d="M363.417 177.878H362.432C362.344 177.878 362.273 177.949 362.273 178.037V179.02C362.273 179.108 362.344 179.18 362.432 179.18H363.417C363.505 179.18 363.577 179.108 363.577 179.02V178.037C363.577 177.949 363.505 177.878 363.417 177.878Z" fill="white"/>
<path d="M356.948 267.448H355.963C355.875 267.448 355.804 267.519 355.804 267.607V268.59C355.804 268.678 355.875 268.75 355.963 268.75H356.948C357.037 268.75 357.108 268.678 357.108 268.59V267.607C357.108 267.519 357.037 267.448 356.948 267.448Z" fill="white"/>
<path d="M315.872 248.028H314.887C314.799 248.028 314.727 248.099 314.727 248.187V249.17C314.727 249.258 314.799 249.329 314.887 249.329H315.872C315.96 249.329 316.032 249.258 316.032 249.17V248.187C316.032 248.099 315.96 248.028 315.872 248.028Z" fill="white"/>
<path d="M288.293 254.377H287.308C287.219 254.377 287.148 254.448 287.148 254.536V255.519C287.148 255.607 287.219 255.679 287.308 255.679H288.293C288.381 255.679 288.452 255.607 288.452 255.519V254.536C288.452 254.448 288.381 254.377 288.293 254.377Z" fill="white"/>
<path d="M274.024 227.359L273.119 226.973C273.099 226.965 273.082 226.952 273.067 226.937C273.053 226.922 273.042 226.904 273.034 226.884C273.027 226.864 273.023 226.843 273.024 226.822C273.025 226.801 273.03 226.78 273.039 226.761L273.425 225.858L273.638 225.778L274.543 226.176C274.562 226.184 274.579 226.195 274.593 226.209C274.608 226.223 274.619 226.24 274.626 226.259C274.634 226.277 274.638 226.297 274.637 226.317C274.636 226.338 274.631 226.357 274.623 226.376L274.223 227.279C274.216 227.298 274.205 227.315 274.191 227.329C274.177 227.344 274.16 227.355 274.141 227.362C274.122 227.37 274.102 227.373 274.082 227.373C274.062 227.372 274.042 227.367 274.024 227.359Z" fill="white"/>
<path d="M252.261 281.608L251.356 281.223L251.276 281.01L251.662 280.107C251.671 280.088 251.683 280.07 251.699 280.056C251.714 280.041 251.732 280.03 251.752 280.023C251.772 280.015 251.793 280.012 251.814 280.013C251.835 280.013 251.856 280.018 251.875 280.027L252.78 280.412C252.8 280.421 252.817 280.433 252.831 280.449C252.846 280.464 252.857 280.482 252.865 280.502C252.872 280.522 252.876 280.543 252.875 280.564C252.874 280.585 252.869 280.606 252.86 280.625L252.474 281.528C252.465 281.548 252.453 281.565 252.438 281.579C252.422 281.594 252.404 281.605 252.384 281.613C252.364 281.62 252.343 281.623 252.322 281.623C252.301 281.622 252.28 281.617 252.261 281.608Z" fill="white"/>
<path d="M218.971 203.515L218.066 203.116L217.986 202.917L218.372 202.014C218.381 201.995 218.393 201.977 218.409 201.963C218.424 201.948 218.442 201.937 218.462 201.93C218.482 201.922 218.503 201.919 218.524 201.92C218.545 201.92 218.566 201.925 218.585 201.934L219.477 202.319C219.516 202.337 219.548 202.368 219.565 202.408C219.582 202.447 219.584 202.491 219.57 202.532L219.171 203.435C219.164 203.454 219.153 203.471 219.139 203.486C219.124 203.5 219.107 203.511 219.089 203.519C219.07 203.526 219.05 203.53 219.03 203.529C219.01 203.528 218.99 203.524 218.971 203.515Z" fill="white"/>
<path d="M163.294 228.116L162.388 227.73C162.352 227.711 162.323 227.678 162.309 227.639C162.294 227.6 162.294 227.557 162.309 227.518L162.708 226.628L162.908 226.535L163.813 226.933C163.832 226.941 163.849 226.952 163.863 226.966C163.877 226.98 163.889 226.997 163.896 227.016C163.904 227.034 163.907 227.054 163.907 227.075C163.906 227.095 163.901 227.114 163.893 227.133L163.507 228.036C163.498 228.055 163.486 228.073 163.47 228.087C163.455 228.102 163.437 228.113 163.417 228.12C163.397 228.128 163.376 228.131 163.355 228.13C163.334 228.129 163.313 228.125 163.294 228.116Z" fill="white"/>
<path d="M190.633 309.503L189.742 309.118L189.648 308.905L190.048 308.002C190.056 307.983 190.069 307.965 190.084 307.951C190.1 307.936 190.118 307.925 190.138 307.918C190.157 307.91 190.178 307.907 190.2 307.908C190.221 307.908 190.242 307.913 190.261 307.922L191.153 308.307C191.19 308.327 191.219 308.359 191.236 308.397C191.253 308.436 191.257 308.479 191.246 308.52L190.846 309.423L190.633 309.503Z" fill="white"/>
<path d="M201.528 252.776L200.625 252.385C200.544 252.35 200.45 252.387 200.415 252.467L200.022 253.369C199.987 253.45 200.024 253.544 200.105 253.579L201.009 253.97C201.09 254.005 201.184 253.968 201.219 253.888L201.611 252.986C201.646 252.905 201.609 252.811 201.528 252.776Z" fill="white"/>
<path d="M163.294 186.897L162.388 186.512L162.309 186.3L162.708 185.396C162.715 185.378 162.726 185.36 162.74 185.346C162.755 185.332 162.772 185.32 162.79 185.313C162.809 185.305 162.829 185.302 162.849 185.303C162.869 185.303 162.889 185.308 162.908 185.317L163.813 185.702C163.832 185.711 163.849 185.723 163.864 185.738C163.878 185.754 163.89 185.772 163.897 185.791C163.905 185.811 163.908 185.832 163.907 185.853C163.906 185.875 163.901 185.895 163.893 185.914L163.507 186.818C163.498 186.837 163.486 186.854 163.47 186.869C163.455 186.883 163.437 186.895 163.417 186.902C163.397 186.909 163.376 186.913 163.355 186.912C163.334 186.911 163.313 186.906 163.294 186.897Z" fill="white"/>
<path d="M119.156 241.08L118.264 240.682C118.226 240.667 118.195 240.638 118.177 240.601C118.16 240.564 118.158 240.521 118.171 240.482L118.57 239.579L118.783 239.5L119.675 239.885C119.694 239.893 119.712 239.906 119.726 239.921C119.741 239.936 119.752 239.955 119.759 239.974C119.767 239.994 119.77 240.015 119.769 240.036C119.769 240.057 119.764 240.078 119.755 240.097L119.369 240.987C119.351 241.026 119.32 241.058 119.28 241.075C119.241 241.092 119.197 241.094 119.156 241.08Z" fill="white"/>
<path d="M119.156 199.849L118.264 199.463C118.225 199.446 118.194 199.414 118.176 199.375C118.159 199.336 118.157 199.291 118.171 199.251L118.57 198.348L118.783 198.268L119.675 198.666C119.694 198.674 119.711 198.685 119.725 198.699C119.74 198.713 119.751 198.73 119.759 198.749C119.766 198.767 119.77 198.787 119.769 198.807C119.768 198.828 119.764 198.847 119.755 198.866L119.369 199.769C119.36 199.788 119.348 199.806 119.332 199.82C119.317 199.834 119.299 199.846 119.279 199.853C119.259 199.861 119.238 199.864 119.217 199.863C119.196 199.862 119.175 199.857 119.156 199.849Z" fill="white"/>
<path d="M390.864 227.359L389.972 226.973C389.934 226.954 389.905 226.922 389.888 226.883C389.871 226.845 389.868 226.802 389.879 226.761L390.278 225.858C390.298 225.821 390.33 225.792 390.369 225.778C390.409 225.763 390.452 225.763 390.491 225.778L391.383 226.176C391.421 226.191 391.452 226.22 391.469 226.257C391.487 226.294 391.489 226.337 391.476 226.376L391.077 227.279L390.864 227.359Z" fill="white"/>
<path d="M394.959 198.796L394.055 198.404C393.975 198.369 393.88 198.406 393.845 198.487L393.453 199.389C393.418 199.47 393.455 199.563 393.536 199.598L394.44 199.99C394.521 200.025 394.615 199.988 394.65 199.907L395.042 199.005C395.077 198.925 395.04 198.831 394.959 198.796Z" fill="white"/>
<path d="M340.754 237.599L339.851 237.208C339.77 237.173 339.676 237.21 339.641 237.29L339.248 238.192C339.213 238.273 339.25 238.367 339.331 238.402L340.235 238.793C340.316 238.828 340.41 238.791 340.445 238.711L340.837 237.809C340.872 237.728 340.835 237.634 340.754 237.599Z" fill="white"/>
<path d="M317.443 190.896L316.538 190.511C316.518 190.502 316.501 190.49 316.486 190.474C316.472 190.459 316.461 190.441 316.453 190.421C316.446 190.401 316.442 190.38 316.443 190.359C316.444 190.338 316.449 190.317 316.458 190.298L316.844 189.395C316.852 189.375 316.865 189.358 316.88 189.344C316.896 189.329 316.914 189.318 316.934 189.31C316.953 189.303 316.974 189.3 316.996 189.3C317.017 189.301 317.038 189.306 317.057 189.315L317.962 189.7C317.981 189.709 317.999 189.721 318.013 189.737C318.028 189.752 318.039 189.77 318.046 189.79C318.054 189.81 318.057 189.831 318.056 189.852C318.056 189.873 318.051 189.894 318.042 189.913L317.656 190.816L317.443 190.896Z" fill="white"/>
<path d="M257.319 329.282H256.334C256.246 329.282 256.174 329.353 256.174 329.441V330.424C256.174 330.512 256.246 330.584 256.334 330.584H257.319C257.407 330.584 257.479 330.512 257.479 330.424V329.441C257.479 329.353 257.407 329.282 257.319 329.282Z" fill="white"/>
<path d="M326.188 286.031L325.283 285.633C325.264 285.626 325.247 285.615 325.232 285.6C325.218 285.586 325.207 285.569 325.199 285.551C325.192 285.532 325.188 285.512 325.189 285.492C325.189 285.472 325.194 285.452 325.203 285.434L325.589 284.53C325.597 284.511 325.61 284.494 325.625 284.479C325.641 284.465 325.659 284.453 325.679 284.446C325.698 284.439 325.719 284.435 325.741 284.436C325.762 284.437 325.783 284.442 325.802 284.451L326.707 284.836C326.726 284.844 326.744 284.857 326.758 284.872C326.773 284.887 326.784 284.906 326.791 284.925C326.799 284.945 326.802 284.966 326.801 284.987C326.801 285.008 326.796 285.029 326.787 285.048L326.387 285.952L326.188 286.031Z" fill="white"/>
<path d="M164.651 263.888L163.746 263.489C163.727 263.481 163.709 263.468 163.695 263.453C163.68 263.438 163.669 263.42 163.662 263.4C163.654 263.38 163.651 263.359 163.652 263.338C163.652 263.317 163.657 263.296 163.666 263.277L164.052 262.387C164.061 262.368 164.073 262.35 164.089 262.336C164.104 262.321 164.122 262.31 164.142 262.303C164.162 262.295 164.183 262.292 164.204 262.293C164.225 262.293 164.246 262.298 164.265 262.307L165.17 262.692C165.19 262.701 165.207 262.713 165.222 262.729C165.236 262.744 165.247 262.762 165.255 262.782C165.262 262.802 165.266 262.823 165.265 262.844C165.264 262.865 165.259 262.886 165.25 262.905L164.864 263.795L164.651 263.888Z" fill="white"/>
<path d="M284.304 312.483L283.4 312.092C283.319 312.057 283.225 312.094 283.19 312.174L282.798 313.076C282.763 313.157 282.8 313.25 282.881 313.286L283.784 313.677C283.865 313.712 283.959 313.675 283.994 313.595L284.387 312.693C284.422 312.612 284.385 312.518 284.304 312.483Z" fill="white"/>
<path d="M297.876 209.692L296.984 209.293L296.891 209.081L297.291 208.191C297.306 208.153 297.335 208.122 297.372 208.104C297.409 208.087 297.451 208.085 297.49 208.098L298.395 208.496L298.475 208.709L298.089 209.599L297.876 209.692Z" fill="white"/>
</g>
<g opacity="0.5">
<path d="M284.473 28.9844H283.488C283.399 28.9844 283.328 29.0557 283.328 29.1438V30.1267C283.328 30.2148 283.399 30.2861 283.488 30.2861H284.473C284.561 30.2861 284.632 30.2148 284.632 30.1267V29.1438C284.632 29.0557 284.561 28.9844 284.473 28.9844Z" fill="white"/>
<path d="M278.004 118.554H277.019C276.93 118.554 276.859 118.626 276.859 118.714V119.697C276.859 119.785 276.93 119.856 277.019 119.856H278.004C278.092 119.856 278.163 119.785 278.163 119.697V118.714C278.163 118.626 278.092 118.554 278.004 118.554Z" fill="white"/>
<path d="M239.589 73.5103H238.604C238.516 73.5103 238.445 73.5816 238.445 73.6697V74.6526C238.445 74.7407 238.516 74.812 238.604 74.812H239.589C239.678 74.812 239.749 74.7407 239.749 74.6526V73.6697C239.749 73.5816 239.678 73.5103 239.589 73.5103Z" fill="white"/>
<path d="M209.348 105.483H208.363C208.275 105.483 208.203 105.555 208.203 105.643V106.626C208.203 106.714 208.275 106.785 208.363 106.785H209.348C209.436 106.785 209.508 106.714 209.508 106.626V105.643C209.508 105.555 209.436 105.483 209.348 105.483Z" fill="white"/>
<path d="M183.925 50.9552L183.02 50.57C183 50.5614 182.983 50.549 182.968 50.5336C182.954 50.5183 182.943 50.5001 182.935 50.4804C182.928 50.4606 182.924 50.4395 182.925 50.4184C182.926 50.3973 182.931 50.3766 182.94 50.3574L183.326 49.4675C183.343 49.4283 183.375 49.3971 183.414 49.38C183.454 49.3628 183.498 49.3608 183.539 49.3745L184.444 49.773L184.524 49.9855L184.138 50.8755C184.129 50.8948 184.117 50.9122 184.101 50.9266C184.086 50.9411 184.068 50.9524 184.048 50.9598C184.028 50.9672 184.007 50.9706 183.986 50.9698C183.965 50.969 183.944 50.9641 183.925 50.9552Z" fill="white"/>
<path d="M173.815 131.483L172.911 131.092C172.83 131.057 172.736 131.094 172.701 131.175L172.309 132.076C172.274 132.157 172.311 132.251 172.392 132.286L173.295 132.677C173.376 132.712 173.47 132.675 173.505 132.595L173.898 131.693C173.933 131.612 173.896 131.518 173.815 131.483Z" fill="white"/>
<path d="M140.527 53.4308L139.623 53.0393C139.542 53.0043 139.448 53.0413 139.413 53.122L139.021 54.0237C138.986 54.1044 139.023 54.1983 139.104 54.2334L140.007 54.6249C140.088 54.6599 140.182 54.6229 140.217 54.5421L140.61 53.6405C140.645 53.5598 140.608 53.4659 140.527 53.4308Z" fill="white"/>
<path d="M111.689 160.583L110.783 160.198C110.764 160.189 110.747 160.177 110.732 160.161C110.718 160.146 110.706 160.128 110.699 160.108C110.692 160.088 110.688 160.067 110.689 160.046C110.69 160.025 110.695 160.004 110.704 159.985L111.09 159.082L111.303 159.002L112.208 159.401C112.227 159.408 112.244 159.419 112.258 159.433C112.273 159.447 112.284 159.464 112.291 159.483C112.299 159.502 112.302 159.522 112.302 159.542C112.301 159.562 112.296 159.582 112.288 159.6L111.902 160.503C111.893 160.523 111.881 160.54 111.865 160.554C111.85 160.569 111.832 160.58 111.812 160.588C111.792 160.595 111.771 160.598 111.75 160.598C111.729 160.597 111.708 160.592 111.689 160.583Z" fill="white"/>
<path d="M122.084 105.072L121.126 104.673C121.107 104.666 121.09 104.655 121.075 104.641C121.061 104.627 121.05 104.61 121.042 104.591C121.035 104.572 121.031 104.552 121.032 104.532C121.032 104.512 121.037 104.492 121.046 104.474L121.432 103.571L121.645 103.491L122.55 103.876C122.569 103.885 122.587 103.897 122.601 103.913C122.616 103.928 122.627 103.946 122.635 103.966C122.642 103.986 122.645 104.007 122.645 104.028C122.644 104.049 122.639 104.07 122.63 104.089L122.244 104.992C122.228 105.02 122.205 105.042 122.176 105.056C122.148 105.07 122.116 105.076 122.084 105.072Z" fill="white"/>
<path d="M311.919 78.465L311.014 78.0798L310.934 77.8672L311.32 76.964C311.34 76.9272 311.372 76.8989 311.411 76.8843C311.451 76.8696 311.494 76.8696 311.533 76.8843L312.438 77.2828C312.457 77.29 312.474 77.301 312.488 77.3151C312.503 77.3293 312.514 77.3462 312.522 77.365C312.529 77.3837 312.533 77.4037 312.532 77.4239C312.531 77.444 312.526 77.4638 312.518 77.482L312.132 78.3853C312.123 78.4046 312.111 78.422 312.095 78.4364C312.08 78.4509 312.062 78.4622 312.042 78.4696C312.022 78.477 312.001 78.4804 311.98 78.4796C311.959 78.4788 311.938 78.4739 311.919 78.465Z" fill="white"/>
<path d="M336.583 133.817L335.691 133.432L335.612 133.219L335.998 132.316C336.017 132.279 336.05 132.251 336.089 132.236C336.128 132.221 336.171 132.221 336.211 132.236L337.102 132.635C337.122 132.64 337.141 132.65 337.157 132.664C337.173 132.677 337.185 132.694 337.194 132.713C337.203 132.732 337.208 132.752 337.208 132.773C337.208 132.794 337.204 132.815 337.196 132.834L336.796 133.737C336.789 133.758 336.778 133.777 336.763 133.792C336.748 133.808 336.729 133.82 336.709 133.828C336.688 133.835 336.666 133.838 336.645 133.836C336.623 133.834 336.602 133.828 336.583 133.817Z" fill="white"/>
<path d="M394.63 128.663L393.739 128.278C393.699 128.26 393.668 128.229 393.651 128.189C393.634 128.15 393.632 128.106 393.645 128.065L394.045 127.162C394.052 127.143 394.063 127.126 394.077 127.112C394.091 127.097 394.108 127.086 394.127 127.079C394.146 127.071 394.166 127.068 394.186 127.068C394.206 127.069 394.226 127.074 394.244 127.082L395.15 127.468C395.169 127.476 395.186 127.488 395.201 127.504C395.215 127.519 395.227 127.537 395.234 127.557C395.241 127.577 395.245 127.598 395.244 127.619C395.243 127.64 395.238 127.661 395.229 127.68L394.843 128.583L394.63 128.663Z" fill="white"/>
<path d="M432.925 111.58L432.02 111.195C432 111.187 431.983 111.174 431.968 111.159C431.954 111.143 431.943 111.125 431.935 111.106C431.928 111.086 431.924 111.065 431.925 111.044C431.926 111.023 431.931 111.002 431.94 110.983L432.326 110.093C432.343 110.054 432.375 110.022 432.414 110.005C432.454 109.988 432.498 109.986 432.539 110L433.444 110.398L433.524 110.611L433.138 111.501L432.925 111.58Z" fill="white"/>
<path d="M178.374 180.388H177.389C177.301 180.388 177.23 180.46 177.23 180.548V181.531C177.23 181.619 177.301 181.69 177.389 181.69H178.374C178.463 181.69 178.534 181.619 178.534 181.531V180.548C178.534 180.46 178.463 180.388 178.374 180.388Z" fill="white"/>
<path d="M247.737 135.949L246.834 135.557C246.753 135.522 246.659 135.559 246.624 135.64L246.231 136.542C246.196 136.623 246.233 136.716 246.314 136.751L247.218 137.143C247.299 137.178 247.393 137.141 247.428 137.06L247.82 136.159C247.855 136.078 247.818 135.984 247.737 135.949Z" fill="white"/>
<path d="M86.2132 113.799L85.3097 113.408C85.2288 113.373 85.1347 113.41 85.0996 113.49L84.7073 114.392C84.6722 114.473 84.7093 114.567 84.7902 114.602L85.6937 114.993C85.7746 115.028 85.8687 114.991 85.9038 114.911L86.2961 114.009C86.3312 113.928 86.2941 113.834 86.2132 113.799Z" fill="white"/>
<path d="M204.836 164.794L203.931 164.395C203.91 164.388 203.891 164.377 203.875 164.362C203.86 164.347 203.848 164.328 203.84 164.308C203.832 164.288 203.829 164.266 203.831 164.244C203.833 164.223 203.84 164.202 203.851 164.183L204.237 163.293L204.45 163.213L205.355 163.598C205.374 163.607 205.392 163.619 205.406 163.635C205.421 163.65 205.432 163.668 205.439 163.688C205.447 163.708 205.45 163.729 205.449 163.75C205.449 163.771 205.444 163.792 205.435 163.811L205.049 164.701C205.029 164.738 204.997 164.768 204.958 164.785C204.92 164.801 204.876 164.805 204.836 164.794Z" fill="white"/>
<path d="M273.052 64.9955L272.147 64.597L272.067 64.3978L272.466 63.4945C272.474 63.4757 272.485 63.4586 272.499 63.4442C272.513 63.4298 272.53 63.4186 272.549 63.4111C272.568 63.4036 272.588 63.4001 272.608 63.4007C272.628 63.4014 272.648 63.4062 272.666 63.4148L273.571 63.8L273.651 64.0126L273.265 64.9158C273.245 64.9526 273.213 64.9809 273.174 64.9955C273.134 65.0102 273.091 65.0102 273.052 64.9955Z" fill="white"/>
</g>
<path d="M199.511 171.528L196.996 173.029L198.713 170.612C198.926 170.944 199.232 171.223 199.511 171.528Z" fill="#F5A62E"/>
<path d="M161.616 111.992L164.279 110.504C164.412 110.916 164.531 111.341 164.665 111.74L161.616 111.992Z" fill="#F5A62E"/>
<path d="M217.454 187.296L214.446 189.049L215.338 185.768C216.043 186.353 216.735 186.857 217.454 187.296Z" fill="#F5A62E"/>
<path d="M159.726 89.7957L156.412 88.8924L159.447 87.1257C159.593 88.029 159.726 88.8924 159.726 89.7957Z" fill="#F5A62E"/>
<path d="M181.023 125.701C182.882 129.905 184.966 134.007 187.266 137.988C184.834 133.778 182.639 129.437 180.69 124.983C180.757 125.209 180.89 125.448 181.023 125.701Z" fill="#FFD427"/>
<path d="M179.346 121.769C179.785 122.845 180.198 123.921 180.677 124.983C179 121.165 177.534 117.259 176.285 113.281C177.163 116.123 178.228 118.953 179.346 121.769Z" fill="#FFD427"/>
<path d="M172.558 98.0711C172 94.4649 171.675 90.8266 171.586 87.1787C171.673 90.5183 171.962 93.8497 172.451 97.1545C172.504 97.4601 172.518 97.7523 172.558 98.0711Z" fill="#FFD427"/>
<path d="M235.596 197.484L235.796 198.414L232.721 200.194V196.209C233.68 196.7 234.638 197.099 235.596 197.484Z" fill="#F5A62E"/>
<path d="M159.46 69.6448L156.039 67.7453L159.087 65.9653L159.859 66.6162C159.726 67.5726 159.58 68.6087 159.46 69.6448Z" fill="#F5A62E"/>
<path d="M252.314 201.549L253.259 203.966L250.517 205.56L249.639 201.27C250.544 201.394 251.436 201.487 252.314 201.549Z" fill="#F5A62E"/>
<path d="M163.64 52.6288L160.352 49.733L163.107 48.1257L164.771 50.1979C164.372 51.0082 164.012 51.8052 163.64 52.6288Z" fill="#F5A62E"/>
<path d="M264.879 200.446C265.665 200.247 266.45 200.008 267.195 199.742L269.272 203.236L266.61 204.79L264.879 200.446Z" fill="#F5A62E"/>
<path d="M173.862 38.3622C173.25 38.8803 172.651 39.4116 172.092 39.9695L170.761 38.3357L169.137 36.3166L171.799 34.7625L173.889 38.3622H173.862Z" fill="#F5A62E"/>
<path d="M178.082 59.1243C178.468 58.5265 178.933 58.0351 179.333 57.4639C178.92 58.0351 178.468 58.5398 178.082 59.1243Z" fill="#FFD427"/>
<path d="M175.805 63.1756C176.125 62.5248 176.498 61.9536 176.857 61.3425C176.498 61.9801 176.125 62.5248 175.805 63.1756Z" fill="#FFD427"/>
<path d="M193.522 47.7138C194.155 47.4999 194.8 47.3181 195.452 47.1692C194.799 47.3164 194.155 47.4982 193.522 47.7138Z" fill="#FFE57D"/>
<path d="M185.535 51.4465C186.148 51.0347 186.76 50.5565 187.399 50.1182C186.773 50.5565 186.161 51.0214 185.535 51.4465Z" fill="#FFE57D"/>
<path d="M189.475 49.1484C190.061 48.8694 190.647 48.5373 191.246 48.3115C190.66 48.5772 190.048 48.9093 189.475 49.1484Z" fill="#FFE57D"/>
<path d="M179.346 121.769C178.228 118.953 177.163 116.123 176.271 113.281C176.085 112.71 175.845 112.125 175.699 111.554C176.711 114.968 177.975 118.368 179.346 121.769Z" fill="#FFE57D"/>
<path d="M172.451 97.1546C171.962 93.8497 171.673 90.5184 171.586 87.1787C171.586 86.4349 171.493 85.6511 171.493 84.9338C171.501 89.0258 171.821 93.1112 172.451 97.1546Z" fill="#FFE57D"/>
<path d="M179.319 57.4903C179.812 56.8527 180.264 56.162 180.784 55.5908C180.278 56.1487 179.812 56.8395 179.319 57.4903Z" fill="#FFE57D"/>
<path d="M176.83 61.3692C177.216 60.6253 177.602 59.8416 178.055 59.1509C177.629 59.7752 177.243 60.6121 176.83 61.3692Z" fill="#FFE57D"/>
<path d="M184.763 27.4169L186.028 30.7112L183.858 31.9731L181.742 28.3335L199.951 17.7732L200.323 18.3709L184.763 27.4169Z" fill="#F5A62E"/>
<path d="M187.412 50.1579C188.078 49.7993 188.743 49.507 189.489 49.1882C188.77 49.5203 188.064 49.7993 187.412 50.1579Z" fill="#FFD427"/>
<path d="M288.932 180.654L286.602 181.982C286.988 181.199 287.361 180.388 287.72 179.538L288.932 180.654Z" fill="#E98400"/>
<path d="M279.295 192.277L279.614 192.662L277.511 193.884C278.123 193.38 278.722 192.835 279.295 192.277Z" fill="#E98400"/>
<path d="M183.858 31.9731L186.041 30.7112L186.441 31.8004C185.669 32.013 184.897 32.2521 184.164 32.5044L183.858 31.9731Z" fill="#E98400"/>
<path d="M201.721 30.9769C200.816 30.8574 199.937 30.7644 199.059 30.698L201.401 29.3696L201.721 30.9769Z" fill="#E98400"/>
<path d="M218.612 35.9714C217.667 35.5463 216.709 35.1212 215.764 34.7493L218.612 33.0889V35.9714Z" fill="#E98400"/>
<path d="M225.88 39.6908C223.417 38.2695 221.008 37.0341 218.612 35.9714C221.008 37.0518 223.43 38.2916 225.88 39.6908Z" fill="#F5A62E"/>
<path d="M291.5 165.697C291.66 164.687 291.78 163.651 291.9 162.615L294.376 164.023L291.5 165.697Z" fill="#E98400"/>
<path d="M236.927 43.1443L236.022 46.4917C238.458 48.2983 240.841 50.2775 243.183 52.3364C240.841 50.2775 238.458 48.3514 236.022 46.4917C235.064 45.7877 234.119 45.0704 233.134 44.4063L251.369 33.7795C251.635 33.9655 251.862 34.1648 252.128 34.3242L236.927 43.1443Z" fill="#E98400"/>
<path d="M254.431 59.2174L252.714 61.6216C251.822 60.6785 250.943 59.7221 250.052 58.8189L268.26 48.1921L270.084 50.1182L254.431 59.2174Z" fill="#E98400"/>
<path d="M267.542 80.5637C266.783 79.4213 266.011 78.3188 265.252 77.203L283.514 66.656C284.273 67.7585 285.032 68.861 285.777 69.9901L267.542 80.5637Z" fill="#E98400"/>
<path d="M277.511 193.884L279.614 192.662L282.25 195.93L297.81 186.911L298.142 187.482L279.92 198.055L277.511 193.884Z" fill="#F5A62E"/>
<path d="M289.544 185.702L286.602 182.049L288.932 180.694L291.008 182.527L306.488 173.547L307.766 175.128L289.544 185.702Z" fill="#F5A62E"/>
<path d="M289.544 185.702L307.766 175.128L300.472 185.383L297.81 186.911L282.25 195.93L289.544 185.702Z" fill="#F5A62E"/>
<path d="M175.699 111.581C174.338 107.165 173.289 102.66 172.558 98.0979C172.558 97.7791 172.558 97.4869 172.451 97.1814C171.821 93.138 171.501 89.0526 171.493 84.9606C171.325 77.4809 172.796 70.0549 175.805 63.2024C176.125 62.5515 176.498 62.0069 176.83 61.3959C177.163 60.7849 177.629 59.855 178.082 59.151C178.534 58.447 178.92 58.0618 179.319 57.5171C179.719 56.9725 180.278 56.1888 180.797 55.591C181.75 54.5012 182.802 53.5008 183.938 52.6023C184.43 52.2123 184.946 51.853 185.482 51.5263C186.108 51.1013 186.72 50.6363 187.359 50.198C187.998 49.7596 188.69 49.5604 189.422 49.2283C190.154 48.8962 190.607 48.6173 191.206 48.3914C191.948 48.1387 192.703 47.9259 193.469 47.7538C194.102 47.5382 194.746 47.3564 195.399 47.2092H195.478C198.513 46.6363 201.614 46.4932 204.689 46.7842C210.095 47.356 215.362 48.8476 220.263 51.1942C222.153 52.0489 223.997 53.0022 225.786 54.0502C235.645 59.9489 244.39 67.5293 251.622 76.446C253.14 78.2791 254.63 80.1786 256.068 82.1313C260.413 87.9973 264.256 94.2182 267.555 100.728C268.655 102.906 269.693 105.12 270.67 107.37C272.582 111.752 274.24 116.24 275.634 120.812C278.318 129.45 279.73 138.43 279.827 147.472C279.827 164.634 273.664 176.696 263.855 182.248C254.045 187.801 240.441 186.977 225.48 178.369C210.519 169.762 196.996 154.991 187.226 138.094C184.936 134.077 182.866 129.94 181.023 125.701C180.917 125.448 180.784 125.209 180.69 124.983C180.225 123.921 179.812 122.845 179.359 121.769C177.975 118.368 176.711 114.968 175.699 111.581Z" fill="#FFD427"/>
<path d="M165.623 81.5468C165.729 43.5031 192.723 28.1475 225.866 47.2358C259.009 66.324 285.87 112.71 285.764 150.767C285.657 188.823 258.677 204.113 225.494 184.985C192.31 165.856 165.503 119.551 165.623 81.5468ZM180.664 124.983C182.612 129.437 184.807 133.778 187.239 137.988C197.009 154.884 210.546 169.629 225.494 178.263C240.441 186.897 254.031 187.734 263.868 182.142C273.704 176.55 279.84 164.528 279.84 147.366C279.743 138.324 278.331 129.343 275.648 120.706C274.253 116.134 272.595 111.645 270.683 107.263C269.716 105.058 268.677 102.844 267.568 100.622C264.269 94.1119 260.427 87.891 256.081 82.025C254.644 80.0723 253.153 78.1728 251.635 76.3397C244.403 67.423 235.659 59.8426 225.8 53.9439C224.01 52.8959 222.166 51.9426 220.276 51.0879C215.375 48.7413 210.108 47.2497 204.703 46.6779C201.627 46.3869 198.527 46.53 195.492 47.1029H195.412C194.76 47.2519 194.115 47.4336 193.482 47.6475C192.717 47.8196 191.961 48.0324 191.219 48.2851C190.62 48.511 190.034 48.8431 189.449 49.122C188.863 49.401 188.038 49.733 187.372 50.0917C186.707 50.4503 186.121 50.9551 185.509 51.42C184.968 51.7511 184.448 52.1149 183.951 52.5093C182.815 53.4078 181.764 54.4082 180.81 55.498C180.291 56.0825 179.838 56.8264 179.346 57.3976C178.854 57.9687 178.481 58.4602 178.095 59.058C177.709 59.6557 177.256 60.5324 176.87 61.2763C176.484 62.0202 176.138 62.4585 175.819 63.1094C172.81 69.9619 171.338 77.3879 171.506 84.8676C171.506 85.5849 171.586 86.3686 171.599 87.1125C171.689 90.7603 172.013 94.3987 172.571 98.0049C173.293 102.598 174.339 107.134 175.699 111.581C175.845 112.152 176.085 112.736 176.271 113.307C177.521 117.276 178.988 121.174 180.664 124.983Z" fill="#FFE57D"/>
<path d="M171.453 34.2047L189.662 23.6312L199.951 17.7732L181.742 28.3335L171.453 34.2047Z" fill="#F5A62E"/>
<path d="M197.355 26.3276L184.763 27.4169L200.323 18.3709L202.972 16.8566L215.564 15.7673L197.355 26.3276Z" fill="#F5A62E"/>
<path d="M200.856 26.6863L201.388 29.3297L199.046 30.6979L197.355 26.3276L215.564 15.7673L216.336 17.7067L200.856 26.6863Z" fill="#F5A62E"/>
<path d="M291.008 182.527L294.828 168.593L313.037 158.059L309.243 171.967L306.488 173.548L291.008 182.527Z" fill="#F5A62E"/>
<path d="M294.828 168.593L291.514 165.697L294.389 164.023L295.334 164.581L310.481 155.774L313.037 158.059L294.828 168.593Z" fill="#F5A62E"/>
<path d="M218.625 32.0263L218.612 33.0889L215.764 34.7494L214.898 30.4588L233.121 19.8853L233.799 23.246L218.625 32.0263Z" fill="#F5A62E"/>
<path d="M214.898 30.4588L200.856 26.6863L216.336 17.7067L219.091 16.126L233.121 19.8852L214.898 30.4588Z" fill="#F5A62E"/>
<path d="M295.334 164.581L295.374 147.964L310.335 139.276L313.596 137.403L313.543 154.021L310.481 155.774L295.334 164.581Z" fill="#F5A62E"/>
<path d="M233.147 40.3948L218.625 32.0263L233.799 23.2459L236.847 21.4792L251.383 29.8478L233.147 40.3948Z" fill="#F5A62E"/>
<path d="M233.134 44.3398L233.147 40.3947L251.383 29.8477L251.369 33.7663L233.134 44.3398Z" fill="#F5A62E"/>
<path d="M294.895 143.354L291.181 125.09L306.688 116.097L309.39 114.529L313.117 132.794L310.082 134.561L294.895 143.354Z" fill="#F5A62E"/>
<path d="M250.93 55.5511L236.914 43.1444L252.128 34.3109L255.136 32.5708L269.152 44.9775L250.93 55.5511Z" fill="#F5A62E"/>
<path d="M250.038 58.8188L250.93 55.5511L269.152 44.9775L268.247 48.232L250.038 58.8188Z" fill="#F5A62E"/>
<path d="M289.743 120.254L282.516 101.644L298.276 92.5054L300.738 91.0708L307.952 109.694L305.37 111.195L289.743 120.254Z" fill="#F5A62E"/>
<path d="M266.982 74.7987L254.431 59.2173L270.071 50.158L272.653 48.657L285.205 64.2251L266.982 74.7987Z" fill="#F5A62E"/>
<path d="M265.252 77.203L266.983 74.7987L285.205 64.2251L283.501 66.656L265.252 77.203Z" fill="#F5A62E"/>
<path d="M280.227 96.8623L269.964 79.1688L288.2 68.6218L298.435 86.2887L296.013 87.6968L280.227 96.8623Z" fill="#F5A62E"/>
<path d="M269.964 79.1688L267.555 80.5636L285.764 69.99L288.199 68.6218L269.964 79.1688Z" fill="#F5A62E"/>
<path d="M159.5 87.1257L159.42 86.2623L155.999 84.2831V67.6788L159.42 69.6448C159.54 68.6087 159.66 67.5726 159.82 66.5497L159.048 65.8989L156.505 63.6407L160.312 49.733L163.6 52.6287C163.972 51.8052 164.332 51.0082 164.731 50.1979L163.067 48.1257L161.736 46.545L169.057 36.3167L170.681 38.3358L172.012 39.9697C172.571 39.4118 173.17 38.8804 173.782 38.3624L171.693 34.7626L171.373 34.2047L181.675 28.3334L183.778 31.9731L184.085 32.5044C184.817 32.252 185.589 32.0129 186.361 31.8004L185.961 30.7112L184.63 27.4169L197.222 26.3276L198.913 30.6979C199.804 30.7643 200.683 30.8573 201.575 30.9768L201.242 29.3297L200.709 26.673L214.752 30.4455L215.617 34.736C216.562 35.108 217.521 35.533 218.466 35.9581V31.9731L232.987 40.3416V44.3266C233.972 44.9908 234.918 45.655 235.876 46.4121C238.312 48.2187 240.694 50.1979 243.037 52.2568C240.694 50.1979 238.312 48.2718 235.876 46.4121L236.768 43.1311L250.784 55.5378L249.892 58.8055C250.797 59.7088 251.675 60.6652 252.554 61.6083L254.271 59.204L266.823 74.7854L265.106 77.1897C265.864 78.3055 266.636 79.4081 267.395 80.5504L269.804 79.2221L280.067 96.9156L277.604 98.2439C278.217 99.4394 278.816 100.661 279.375 101.884L282.356 101.631L289.584 120.228L286.616 120.467C287.002 121.716 287.361 122.951 287.72 124.2L291.035 125.063L294.735 143.328L291.421 142.438C291.567 143.593 291.687 144.776 291.793 145.958L295.214 147.937V164.555L294.282 163.997L291.807 162.589C291.687 163.625 291.567 164.661 291.407 165.67L294.722 168.566L290.902 182.5L288.932 180.654L287.72 179.578C287.361 180.428 286.988 181.239 286.602 182.022L289.544 185.675L282.25 195.903L279.588 192.636L279.268 192.25C278.696 192.808 278.097 193.353 277.485 193.858L279.894 198.029L269.591 203.887L269.245 203.262L267.196 199.716C266.45 199.981 265.665 200.221 264.879 200.42L266.597 204.817L253.991 205.879L253.233 203.94L252.288 201.522C251.4 201.46 250.513 201.367 249.626 201.243L250.504 205.534L236.448 201.775L235.769 198.387L235.57 197.458C234.625 197.072 233.666 196.674 232.708 196.235V200.221L218.186 191.852V187.867L217.454 187.322C216.735 186.831 216.043 186.326 215.338 185.795L214.446 189.076L200.417 176.669L201.308 173.401L199.512 171.489C199.232 171.183 198.926 170.904 198.646 170.572L196.996 173.029L184.444 157.448L186.174 155.03C185.389 153.928 184.63 152.825 183.872 151.683L181.462 153.011L171.213 135.331L173.649 134.003C173.05 132.807 172.465 131.599 171.905 130.376L168.937 130.629L161.696 112.032L164.678 111.78C164.545 111.381 164.425 110.956 164.292 110.544C164.052 109.721 163.799 108.897 163.56 108.074L160.259 107.197L156.545 88.9323L159.859 89.8355C159.726 88.8924 159.593 88.029 159.5 87.1257ZM225.454 189.155C260.647 209.426 289.238 193.14 289.344 152.825C289.451 112.51 261.059 63.3883 225.866 43.1046C190.673 22.8208 162.109 39.1195 161.976 79.4479C161.843 119.776 190.341 168.885 225.454 189.155Z" fill="#FFD427"/>
<path d="M162.002 79.4478C162.109 39.0929 190.713 22.8606 225.893 43.1045C261.073 63.3483 289.491 112.47 289.371 152.825C289.251 193.18 260.673 209.426 225.48 189.155C190.287 168.885 161.869 119.763 162.002 79.4478ZM225.467 184.984C258.65 204.112 285.644 188.757 285.737 150.766C285.83 112.776 259.036 66.3504 225.84 47.2356C192.643 28.1208 165.703 43.503 165.596 81.5466C165.49 119.59 192.337 165.896 225.467 184.984Z" fill="#F5A62E"/>
<path d="M294.895 143.354L310.135 134.561C310.135 134.84 310.135 135.119 310.215 135.424L292.006 146.051C291.9 144.869 291.78 143.686 291.634 142.531L294.895 143.354Z" fill="#E98400"/>
<path d="M291.953 145.984L310.135 135.49L313.569 137.47L310.308 139.343L295.347 148.03L291.927 146.051L291.953 145.984Z" fill="#F5A62E"/>
<path d="M306.102 113.653L309.39 114.529L306.688 116.097L291.181 125.09L287.88 124.226L306.102 113.653Z" fill="#F5A62E"/>
<path d="M305.37 111.195C305.61 112.006 305.876 112.829 306.102 113.653L287.88 124.279C287.521 123.031 287.161 121.795 286.775 120.547L289.744 120.308L305.37 111.195Z" fill="#E98400"/>
<path d="M280.226 96.8625L296.013 87.6704C296.625 88.8659 297.197 90.088 297.756 91.2968L279.534 101.923C278.975 100.701 278.376 99.4793 277.764 98.2838L280.226 96.8625Z" fill="#E98400"/>
<path d="M297.77 91.3232L300.738 91.0708L298.276 92.5054L282.516 101.644L279.534 101.897L297.77 91.3232Z" fill="#F5A62E"/>
<path style="mix-blend-mode:multiply" d="M184.178 32.5442L183.872 32.0261L181.769 28.3865L199.977 17.7598L200.35 18.3841L203.012 16.8432L215.631 15.8071L216.403 17.7465L219.144 16.1791L233.134 19.925L233.826 23.2857L236.927 21.5057L251.462 29.861V33.846C251.715 34.0187 251.968 34.2312 252.234 34.4039L255.243 32.6505L269.259 45.0439L268.354 48.3249C268.966 48.9492 269.578 49.5868 270.177 50.2244L272.746 48.7234L285.298 64.3048L283.514 66.6958C284.166 67.6256 285.072 68.954 285.804 70.0432L288.226 68.7149L298.462 86.3419L296.039 87.75C296.638 88.9455 297.224 90.1675 297.783 91.3763L300.765 91.124L307.979 109.721L305.397 111.222C305.623 112.059 305.889 112.869 306.129 113.692L309.43 114.569L313.143 132.834L310.135 134.6C310.135 134.879 310.135 135.172 310.215 135.451L313.649 137.443V154.034L310.588 155.827L313.143 158.086L309.337 172.007L306.595 173.587L307.859 175.168L300.578 185.409L297.916 186.95L298.262 187.522L280.04 198.148L277.538 193.937C278.137 193.406 278.736 192.875 279.308 192.317L279.654 192.715L282.316 195.983L289.61 185.742L286.669 182.102C287.055 181.292 287.454 180.481 287.8 179.644L289.025 180.734L291.088 182.567L294.841 168.699L291.501 165.737C291.66 164.727 291.78 163.678 291.886 162.642L294.376 164.076L295.307 164.608V148.003L291.886 146.024C291.953 146.728 291.993 147.273 292.02 147.645C292.02 147.273 292.02 146.728 291.886 146.024C291.793 144.842 291.674 143.673 291.527 142.491L294.841 143.394L291.115 125.129L287.827 124.266C287.481 123.017 287.108 121.782 286.722 120.533L289.69 120.281L282.449 101.684L279.481 101.937C278.922 100.701 278.323 99.4925 277.724 98.297L280.16 96.9686L269.964 79.3416L267.502 80.6699L265.212 77.3358L266.929 74.9182L254.377 59.3368L252.66 61.7544C251.773 60.798 250.886 59.8549 249.998 58.925L250.89 55.644L236.927 43.1842L236.049 46.4918C238.471 48.3249 240.867 50.2908 243.21 52.363C240.867 50.2908 238.471 48.378 236.036 46.4918C235.077 45.7745 234.145 45.0837 233.16 44.4196V40.4345L218.639 32.0793V36.0643C217.694 35.6392 216.735 35.2142 215.79 34.8422L214.925 30.5517L200.882 26.7925L201.415 29.4492L201.734 31.0963C200.829 30.9768 199.937 30.8838 199.072 30.8306L197.355 26.4604L184.763 27.5364L186.094 30.8306L186.507 31.9066C185.722 32.1191 184.95 32.3582 184.204 32.6239C182.919 33.0964 181.669 33.6602 180.464 34.3109C181.658 33.6341 182.899 33.0436 184.178 32.5442Z" fill="url(#paint2_linear_2808_2081)"/>
<path d="M164.758 81.0286C164.864 42.5068 192.231 26.9785 225.866 46.359C259.502 65.7394 286.695 112.776 286.576 151.298C286.456 189.82 259.103 205.335 225.467 185.967C191.831 166.6 164.651 119.55 164.758 81.0286ZM225.494 180.481C256.467 198.348 281.651 184.015 281.77 148.468C281.89 112.922 256.893 69.6979 225.84 51.8052C194.786 33.9124 169.669 48.2718 169.549 83.6853C169.43 119.099 194.493 162.575 225.494 180.442V180.481Z" fill="#FFD427"/>
<path d="M225.84 51.8053C256.853 69.6714 281.864 112.909 281.744 148.402C281.624 183.895 256.454 198.281 225.467 180.415C194.48 162.549 169.43 119.311 169.563 83.7385C169.696 48.1656 194.853 33.9524 225.84 51.8053ZM225.507 170.28C251.569 185.343 272.866 173.308 272.946 143.328C273.025 113.347 251.888 77.0437 225.813 61.9538C199.738 46.8639 178.481 58.965 178.361 88.8659C178.241 118.767 199.378 155.27 225.507 170.306V170.28Z" fill="#FFE57D"/>
<path d="M238.817 122.606C236.847 119.949 234.105 119.218 232.681 120.826L226.159 128.251C224.828 129.832 222.166 129.021 220.262 126.458L211.757 114.768C209.973 112.311 207.471 111.594 206.153 113.148C204.822 114.689 205.222 117.93 206.979 120.387L218.679 136.819C219.171 140.937 222.219 145.241 225.48 146.33C228.741 147.419 231.084 144.882 230.565 140.671L239.816 130.363C241.253 128.676 240.814 125.222 238.817 122.606Z" fill="#F5A62E"/>
<path d="M235.49 96.6232C233.546 94.1525 230.858 93.4883 229.46 95.1355L223.031 102.68C221.7 104.288 219.038 103.597 217.241 101.166L208.882 90.0346C207.125 87.6968 204.676 87.099 203.385 88.7063C202.094 90.3136 202.453 93.4352 204.183 95.7864L215.631 111.341C216.096 115.326 219.105 119.457 222.286 120.4C225.467 121.344 227.796 118.74 227.291 114.635L236.382 104.142C237.872 102.481 237.446 99.1205 235.49 96.6232Z" fill="#F5A62E"/>
</g>
<defs>
<linearGradient id="paint0_linear_2808_2081" x1="255.642" y1="334.343" x2="219.559" y2="256.645" gradientUnits="userSpaceOnUse">
<stop stop-color="#FFE900"/>
<stop offset="0.54" stop-color="#F2A740"/>
<stop offset="1" stop-color="#FFE900"/>
</linearGradient>
<linearGradient id="paint1_linear_2808_2081" x1="246.365" y1="20.3233" x2="258.428" y2="318.139" gradientUnits="userSpaceOnUse">
<stop stop-color="#ECE4F2" stop-opacity="0"/>
<stop offset="0.28" stop-color="#EDE7F3" stop-opacity="0"/>
<stop offset="0.3" stop-color="#EDE8F3" stop-opacity="0"/>
<stop offset="0.38" stop-color="#E9ECF5" stop-opacity="0.04"/>
<stop offset="0.5" stop-color="#DFF7FB" stop-opacity="0.13"/>
<stop offset="0.57" stop-color="#D8FFFF" stop-opacity="0.2"/>
<stop offset="0.64" stop-color="#DBF6E6" stop-opacity="0.31"/>
<stop offset="0.79" stop-color="#E2DEA4" stop-opacity="0.58"/>
<stop offset="1" stop-color="#EDB83D"/>
</linearGradient>
<linearGradient id="paint2_linear_2808_2081" x1="309.377" y1="181.146" x2="211.459" y2="11.1974" gradientUnits="userSpaceOnUse">
<stop stop-color="white"/>
<stop offset="0.01" stop-color="#FBDDAF"/>
<stop offset="0.02" stop-color="#F9CC88"/>
<stop offset="0.03" stop-color="#F8BE67"/>
<stop offset="0.04" stop-color="#F7B44E"/>
<stop offset="0.05" stop-color="#F6AC3C"/>
<stop offset="0.06" stop-color="#F5A731"/>
<stop offset="0.07" stop-color="#F5A62E"/>
<stop offset="0.13" stop-color="#F7B44E"/>
<stop offset="0.24" stop-color="#F9CA83"/>
<stop offset="0.34" stop-color="#FBDDB0"/>
<stop offset="0.44" stop-color="#FDECD2"/>
<stop offset="0.54" stop-color="#FEF6EB"/>
<stop offset="0.63" stop-color="#FFFDFA"/>
<stop offset="0.7" stop-color="white"/>
<stop offset="0.75" stop-color="#FFFEFC"/>
<stop offset="0.78" stop-color="#FEF9F2"/>
<stop offset="0.82" stop-color="#FDF2E0"/>
<stop offset="0.85" stop-color="#FCE8C8"/>
<stop offset="0.89" stop-color="#FBDAA9"/>
<stop offset="0.92" stop-color="#F9CA83"/>
<stop offset="0.93" stop-color="#F8C373"/>
<stop offset="0.96" stop-color="#F8C475"/>
<stop offset="0.97" stop-color="#F8C77C"/>
<stop offset="0.98" stop-color="#FAD398"/>
<stop offset="0.99" stop-color="#FCE8CA"/>
<stop offset="1" stop-color="white"/>
</linearGradient>
<clipPath id="clip0_2808_2081">
<rect width="498" height="383" fill="white"/>
</clipPath>
</defs>
</svg>
