<svg width="449" height="472" viewBox="0 0 449 472" fill="none" xmlns="http://www.w3.org/2000/svg">
<g clip-path="url(#clip0_2911_4834)">
<path d="M205.354 165.352L203.076 166.687L203.76 164.171C204.261 164.563 204.819 164.955 205.354 165.352Z" fill="#F5A62E"/>
<path d="M219.304 173.124L219.475 173.856L217.095 175.22V172.181C217.847 172.533 218.581 172.845 219.304 173.124Z" fill="#F5A62E"/>
<path d="M232.184 176.259L232.913 178.128L230.8 179.35L230.134 176.032C230.829 176.134 231.512 176.214 232.184 176.259Z" fill="#F5A62E"/>
<path d="M241.898 175.413C242.467 175.249 243.082 175.078 243.669 174.845L245.223 177.572L243.202 178.765L241.898 175.391V175.413Z" fill="#F5A62E"/>
<path d="M260.375 160.223L258.581 161.263C258.878 160.643 259.151 160.024 259.453 159.365L260.375 160.223Z" fill="#E98400"/>
<path d="M252.933 169.119L253.201 169.415L251.578 170.358C252.051 169.969 252.504 169.556 252.933 169.119Z" fill="#E98400"/>
<path d="M262.362 148.68C262.459 147.896 262.567 147.106 262.653 146.305L264.566 147.39L262.362 148.68Z" fill="#E98400"/>
<path d="M251.578 170.357L253.201 169.414L255.228 171.959L267.196 165L267.458 165.438L253.428 173.573L251.578 170.357Z" fill="#F5A62E"/>
<path d="M260.842 164.057L258.581 161.263L260.375 160.223L261.969 161.643L273.881 154.741L274.849 155.923L260.842 164.057Z" fill="#F5A62E"/>
<path d="M260.842 164.058L274.849 155.923L269.246 163.819L267.196 165.001L255.228 171.959L260.842 164.058Z" fill="#F5A62E"/>
<path d="M261.969 161.643L264.907 150.918L278.909 142.778L275.994 153.503L273.881 154.741L261.969 161.643Z" fill="#F5A62E"/>
<path d="M264.907 150.918L262.362 148.686L264.566 147.39L265.278 147.828L276.956 141.051L278.909 142.778L264.907 150.918Z" fill="#F5A62E"/>
<path d="M265.278 147.828L265.317 135.018L276.836 128.343L279.353 126.895L279.319 139.687L276.956 141.051L265.278 147.828Z" fill="#F5A62E"/>
<path d="M264.947 131.49L262.083 117.436L274.041 110.534L276.125 109.33L278.972 123.367L276.654 124.719L264.947 131.49Z" fill="#F5A62E"/>
<path d="M264.947 131.49L276.654 124.719C276.654 124.929 276.694 125.168 276.711 125.378L262.681 133.495C262.613 132.581 262.51 131.683 262.413 130.752L264.947 131.49Z" fill="#E98400"/>
<path d="M262.681 133.496L276.728 125.378L279.37 126.895L276.853 128.343L265.34 135.018L262.681 133.496Z" fill="#F5A62E"/>
<path d="M169.727 125.367L171.583 124.282V124.299L169.727 125.367Z" fill="#F5A62E"/>
<path d="M191.546 153.151L189.547 154.321L190.891 152.475C191.09 152.702 191.318 152.94 191.546 153.151Z" fill="#F5A62E"/>
<path d="M162.416 107.365L164.386 106.229C164.482 106.552 164.585 106.876 164.682 107.183L162.416 107.365Z" fill="#F5A62E"/>
<path d="M160.964 90.2826L158.435 89.5953L160.764 88.2319C160.827 88.9193 160.901 89.5953 160.964 90.2826Z" fill="#F5A62E"/>
<path d="M177.288 117.902C178.731 121.136 180.341 124.293 182.111 127.36C180.237 124.126 178.545 120.79 177.043 117.368C177.129 117.533 177.214 117.72 177.288 117.902Z" fill="#FFD427"/>
<path d="M176.024 114.88C176.36 115.71 176.685 116.539 177.043 117.368C175.745 114.427 174.617 111.413 173.667 108.342C174.362 110.535 175.159 112.699 176.024 114.88Z" fill="#FFD427"/>
<path d="M170.82 96.6623C170.373 93.8863 170.118 91.0829 170.057 88.272C170.117 90.8414 170.337 93.4046 170.717 95.9465C170.769 96.1851 170.774 96.4237 170.82 96.6623Z" fill="#FFD427"/>
<path d="M160.73 74.7805L158.088 73.2808L160.468 71.9004L161.038 72.423C160.929 73.1899 160.815 73.9909 160.73 74.7805Z" fill="#F5A62E"/>
<path d="M163.942 61.7093L161.413 59.437L163.514 58.2271L164.801 59.812C164.505 60.4311 164.226 61.0617 163.942 61.7093Z" fill="#F5A62E"/>
<path d="M171.805 50.717C171.338 51.0976 170.871 51.535 170.444 51.9554L169.413 50.6886L168.161 49.1434L170.211 47.9448L171.805 50.717Z" fill="#F5A62E"/>
<path d="M179.594 61.584C179.987 61.3 180.403 61.05 180.813 60.7773C180.403 61.0614 179.987 61.3 179.594 61.584Z" fill="#FFD427"/>
<path d="M175.056 66.6852C175.358 66.2308 175.705 65.8388 176.013 65.4185C175.7 65.8388 175.375 66.2308 175.056 66.6852Z" fill="#FFD427"/>
<path d="M173.32 69.8152C173.56 69.3284 173.827 68.8543 174.117 68.395C173.832 68.8892 173.559 69.3039 173.32 69.8152Z" fill="#FFD427"/>
<path d="M186.94 57.8973C187.446 57.7723 187.913 57.6019 188.443 57.4883C187.902 57.6019 187.446 57.7723 186.94 57.8973Z" fill="#FFE57D"/>
<path d="M180.801 60.7832C181.28 60.448 181.741 60.0845 182.236 59.7891C181.741 60.0788 181.28 60.4423 180.801 60.7832Z" fill="#FFE57D"/>
<path d="M183.825 59.0391C184.309 58.8289 184.736 58.5733 185.203 58.4028C184.736 58.5733 184.28 58.8289 183.825 59.0391Z" fill="#FFE57D"/>
<path d="M176.024 114.88C175.159 112.698 174.362 110.534 173.667 108.341C173.513 107.904 173.354 107.455 173.217 107.023C174.003 109.665 174.976 112.267 176.024 114.88Z" fill="#FFE57D"/>
<path d="M170.723 95.9465C170.343 93.4045 170.122 90.8413 170.063 88.2719C170.063 87.7039 169.994 87.1358 169.994 86.5166C170.003 89.6735 170.247 92.8255 170.723 95.9465Z" fill="#FFE57D"/>
<path d="M176.001 65.4472C176.354 64.9348 176.734 64.4418 177.14 63.9702C176.731 64.4393 176.351 64.9325 176.001 65.4472Z" fill="#FFE57D"/>
<path d="M174.1 68.4122C174.401 67.8441 174.669 67.2363 175.039 66.708C174.715 67.2193 174.418 67.8385 174.1 68.4122Z" fill="#FFE57D"/>
<path d="M180.187 42.2811L181.177 44.8147L179.498 45.7974L177.875 43.0026L191.899 34.8735L192.155 35.3393L180.187 42.2811Z" fill="#F5A62E"/>
<path d="M182.236 59.7832C182.749 59.4878 183.312 59.289 183.825 59.0391C183.29 59.3061 182.737 59.4992 182.236 59.7832Z" fill="#FFD427"/>
<path d="M185.203 58.403C185.772 58.1929 186.342 58.0565 186.94 57.8975C186.359 58.0565 185.767 58.1929 185.203 58.403Z" fill="#FFD427"/>
<path d="M179.498 45.7977L181.177 44.8149L181.479 45.6727C180.91 45.8261 180.34 45.9965 179.731 46.2067L179.498 45.7977Z" fill="#E98400"/>
<path d="M193.254 45.0251C192.548 44.9286 191.871 44.8547 191.187 44.7979L192.975 43.7754L193.254 45.0251Z" fill="#E98400"/>
<path d="M206.254 48.8539C205.519 48.5017 204.79 48.2063 204.073 47.9109L206.254 46.6157V48.8539Z" fill="#E98400"/>
<path d="M211.862 51.7451C210 50.6658 208.093 49.7058 206.254 48.9048C208.093 49.7058 209.972 50.6601 211.862 51.7451Z" fill="#F5A62E"/>
<path d="M220.358 54.3695L219.663 56.9145C218.928 56.3464 218.188 55.8181 217.471 55.3125L231.444 47.1494C231.643 47.3085 231.854 47.4448 232.013 47.5755L220.358 54.3695Z" fill="#E98400"/>
<path d="M233.83 66.7533L232.492 68.6109C231.825 67.8781 231.125 67.1623 230.43 66.4465L244.449 58.3062C244.91 58.7947 245.371 59.3059 245.85 59.7661L233.83 66.7533Z" fill="#E98400"/>
<path d="M243.914 83.1708C243.344 82.313 242.746 81.4666 242.16 80.6145L256.179 72.4741C256.748 73.3149 257.317 74.1783 257.944 75.0588L243.914 83.1708Z" fill="#E98400"/>
<path d="M173.217 107.024C172.181 103.629 171.382 100.167 170.826 96.6622C170.774 96.4236 170.769 96.185 170.723 95.9464C170.247 92.8254 170.003 89.6735 169.994 86.5165C169.994 79.9213 171.19 74.3145 173.32 69.8154C173.559 69.3098 173.832 68.8894 174.1 68.4123C174.419 67.8442 174.715 67.2193 175.056 66.7081C175.398 66.1968 175.7 65.8617 176.001 65.4697C176.35 64.9453 176.73 64.4425 177.14 63.9643C177.14 63.9643 177.14 63.9643 177.14 63.9075C177.906 63.1038 178.718 62.3451 179.572 61.6353C179.964 61.3512 180.38 61.1126 180.779 60.8286C181.177 60.5446 181.718 60.1299 182.214 59.8345C182.709 59.5391 183.267 59.3573 183.802 59.0903C184.337 58.8233 184.713 58.6245 185.18 58.4541C185.75 58.2439 186.319 58.1076 186.917 57.9485C187.515 57.7894 187.89 57.6531 188.42 57.5395C188.437 57.5349 188.455 57.5349 188.471 57.5395C190.803 57.078 193.189 56.9593 195.555 57.1873C199.703 57.6514 203.744 58.8033 207.512 60.5957C208.913 61.2546 210.331 61.9875 211.783 62.7998C218.968 66.958 225.744 72.9454 231.643 80.0179C232.816 81.438 233.966 82.8979 235.06 84.4033C238.401 88.9315 241.355 93.7314 243.891 98.7527C244.739 100.411 245.548 102.099 246.282 103.786C247.764 107.159 249.043 110.617 250.114 114.142C252.193 120.782 253.278 127.692 253.337 134.649C253.303 147.862 248.588 157.099 241.027 161.427C233.465 165.756 223.017 165.052 211.481 158.417C199.945 151.782 189.61 140.363 182.111 127.36C180.341 124.293 178.731 121.136 177.288 117.902C177.214 117.72 177.129 117.533 177.043 117.368C176.685 116.539 176.36 115.709 176.024 114.88C174.977 112.267 174.003 109.665 173.217 107.024Z" fill="#FFD427"/>
<path d="M211.521 163.524C237.069 178.225 257.836 166.421 257.927 137.182C258.018 107.944 237.348 72.2354 211.851 57.5339C186.353 42.8323 165.564 54.6935 165.462 83.9148C165.359 113.136 186.029 148.833 211.521 163.524ZM173.667 108.342C173.513 107.904 173.354 107.455 173.217 107.024C172.181 103.629 171.381 100.167 170.826 96.6622C170.379 93.8862 170.124 91.0828 170.063 88.2719C170.063 87.7038 169.994 87.1357 169.994 86.5166C169.994 79.9213 171.19 74.3145 173.32 69.8154C173.56 69.3286 173.827 68.8546 174.117 68.3953C174.418 67.8272 174.686 67.2194 175.056 66.6911C175.426 66.1628 175.705 65.8447 176.013 65.4243C176.365 64.9119 176.746 64.4189 177.152 63.9473C177.152 63.9473 177.152 63.9473 177.152 63.8905C177.917 63.0868 178.729 62.3281 179.583 61.6182C179.976 61.3342 180.391 61.0843 180.801 60.8116C181.211 60.5389 181.73 60.1129 182.225 59.8175C182.72 59.5221 183.301 59.3233 183.814 59.0733C184.326 58.8234 184.725 58.6075 185.191 58.4371C185.761 58.2269 186.33 58.0906 186.928 57.9315C187.526 57.7724 187.902 57.6361 188.431 57.5225C188.448 57.5179 188.466 57.5179 188.483 57.5225C190.814 57.061 193.2 56.9423 195.566 57.1703C199.714 57.6344 203.756 58.7863 207.523 60.5787C208.924 61.2376 210.342 61.9704 211.794 62.7828C218.98 66.941 225.756 72.9284 231.655 80.0008C232.827 81.421 233.978 82.8809 235.071 84.3863C238.412 88.9145 241.366 93.7144 243.902 98.7356C244.751 100.394 245.559 102.082 246.294 103.769C247.775 107.142 249.055 110.6 250.126 114.125C252.204 120.765 253.29 127.675 253.349 134.632C253.314 147.845 248.6 157.082 241.038 161.41C233.477 165.739 223.028 165.035 211.492 158.4C199.956 151.765 189.61 140.363 182.111 127.36C180.237 124.126 178.545 120.79 177.043 117.368C175.745 114.427 174.617 111.413 173.667 108.342Z" fill="#FFE57D"/>
<path d="M169.949 47.496L183.979 39.3726L191.899 34.8735L177.875 43.0026L169.949 47.496Z" fill="#F5A62E"/>
<path d="M189.889 41.452L180.187 42.2813L192.155 35.3396L194.217 34.175L203.913 33.3286L189.889 41.452Z" fill="#F5A62E"/>
<path d="M192.594 41.736L192.981 43.7753L191.187 44.7979L189.889 41.452L203.913 33.3286L204.494 34.8226L192.594 41.736Z" fill="#F5A62E"/>
<path d="M206.254 45.8544V46.6383L204.073 47.9335L203.384 44.6444L217.414 36.4927L217.943 39.066L206.254 45.8544Z" fill="#F5A62E"/>
<path d="M203.384 44.6442L192.594 41.7357L204.494 34.8224L206.624 33.584L217.414 36.4925L203.384 44.6442Z" fill="#F5A62E"/>
<path d="M217.442 52.2791L206.254 45.8542L217.943 39.0659L220.289 37.7139L231.472 44.1671L217.442 52.2791Z" fill="#F5A62E"/>
<path d="M217.442 55.3124V52.279L231.472 44.167L231.444 47.1721L217.442 55.3124Z" fill="#F5A62E"/>
<path d="M231.125 63.93L220.329 54.3695L232.025 47.5925L234.353 46.2632L245.155 55.801L231.125 63.93Z" fill="#F5A62E"/>
<path d="M230.43 66.4468L231.125 63.9303L245.155 55.8013L244.449 58.3064L230.43 66.4468Z" fill="#F5A62E"/>
<path d="M260.973 113.716L255.433 99.3776L267.544 92.362L269.457 91.2827L275.009 105.575L273.016 106.74L260.973 113.716Z" fill="#F5A62E"/>
<path d="M243.47 78.7454L233.83 66.7536L245.85 59.7664L247.825 58.6416L257.494 70.6335L243.47 78.7454Z" fill="#F5A62E"/>
<path d="M242.16 80.6142L243.47 78.7453L257.494 70.6333L256.179 72.4738L242.16 80.6142Z" fill="#F5A62E"/>
<path d="M253.656 95.7192L245.776 82.1197L259.8 73.9907L267.675 87.5845L265.796 88.6639L253.656 95.7192Z" fill="#F5A62E"/>
<path d="M245.776 82.1197L243.914 83.1707L257.944 75.0587L259.8 73.9907L245.776 82.1197Z" fill="#F5A62E"/>
<path d="M160.964 90.2826L158.435 89.5953L161.282 103.632L163.799 104.308C163.981 104.944 164.192 105.575 164.369 106.206C164.465 106.529 164.568 106.853 164.665 107.16L162.387 107.37L167.973 121.697L170.25 121.486C170.695 122.424 171.139 123.367 171.6 124.281L169.744 125.349L177.624 138.937L179.509 137.869C180.044 138.739 180.648 139.613 181.217 140.454L179.93 142.34L189.564 154.321L190.908 152.474C191.108 152.702 191.352 152.94 191.563 153.15C192.03 153.656 192.48 154.15 192.947 154.639L192.269 157.144L203.088 166.687L203.771 164.171C204.295 164.563 204.853 164.955 205.388 165.352C205.587 165.466 205.77 165.631 205.957 165.744V168.767L217.135 175.22V172.181C217.869 172.533 218.604 172.845 219.327 173.124L219.498 173.856L220.016 176.441L230.835 179.35L230.168 176.032C230.863 176.134 231.546 176.214 232.218 176.259L232.947 178.128L233.516 179.617L243.196 178.787L241.892 175.413C242.462 175.248 243.077 175.078 243.663 174.845L245.218 177.572L245.514 178.06L253.423 173.55L251.572 170.334C252.046 169.946 252.498 169.533 252.927 169.096L253.195 169.391L255.222 171.936L260.836 164.035L258.559 161.24C258.855 160.621 259.128 160.001 259.43 159.342L260.352 160.2L261.947 161.615L264.885 150.895L262.339 148.657C262.436 147.873 262.544 147.084 262.63 146.283L264.543 147.368L265.255 147.799L265.295 134.995L262.681 133.495C262.613 132.581 262.51 131.683 262.413 130.752L264.947 131.467L262.1 117.413L259.572 116.737C259.305 115.794 259.003 114.84 258.724 113.897L261.001 113.704L255.461 99.366L253.183 99.5875C252.739 98.6332 252.29 97.7072 251.823 96.7472L253.69 95.6849L245.81 82.0514L243.948 83.108C243.378 82.2502 242.781 81.4038 242.194 80.5517L243.504 78.6827L233.864 66.6909L232.526 68.5484C231.859 67.8156 231.159 67.0999 230.464 66.3841L231.159 63.8676L220.358 54.3695L219.663 56.9145C218.928 56.3464 218.188 55.8181 217.471 55.3125V52.262L206.254 45.8542V48.8536C205.519 48.5014 204.79 48.206 204.073 47.9106L203.384 44.6215L192.594 41.713L192.975 43.7524L193.254 45.0021C192.548 44.9055 191.871 44.8317 191.187 44.7749L189.889 41.4688L180.209 42.2981L181.2 44.8317L181.502 45.6895C180.932 45.8429 180.363 46.0133 179.754 46.2235L179.52 45.8145L177.897 43.0196L169.971 47.513L170.233 47.9617L171.828 50.7339C171.361 51.1145 170.894 51.5519 170.467 51.9723L169.436 50.7055L168.184 49.1604L162.558 57.0281L163.537 58.2551L164.824 59.84C164.528 60.4478 164.255 61.0784 163.964 61.726L161.436 59.4537L158.492 70.1617L160.491 71.8659L161.06 72.3886C160.964 73.1725 160.85 73.9735 160.764 74.7631L158.088 73.2804V86.0676L160.73 87.573C160.734 87.7993 160.753 88.0251 160.787 88.249C160.827 88.9193 160.901 89.5953 160.964 90.2826ZM162.672 82.3297C162.757 51.2963 184.759 38.7988 211.839 54.3752C238.92 69.9516 260.756 107.739 260.654 138.79C260.552 169.84 238.578 182.349 211.503 166.744C184.428 151.139 162.581 113.335 162.683 82.3127L162.672 82.3297Z" fill="#FFD427"/>
<path d="M211.503 166.744C238.59 182.332 260.58 169.778 260.665 138.773C260.751 107.768 238.92 69.9573 211.851 54.3583C184.782 38.7592 162.769 51.2793 162.683 82.3128C162.598 113.346 184.485 151.157 211.503 166.744ZM165.462 83.9147C165.564 54.665 186.319 42.8436 211.851 57.5337C237.383 72.2239 257.995 107.933 257.938 137.182C257.881 166.432 237.081 178.225 211.532 163.523C185.983 148.822 165.365 113.164 165.462 83.9147Z" fill="#F5A62E"/>
<path d="M273.579 108.637L276.125 109.33L274.041 110.535L262.083 117.437L259.555 116.761L273.579 108.637Z" fill="#F5A62E"/>
<path d="M273.016 106.74C273.204 107.37 273.403 107.989 273.585 108.637L259.561 116.76C259.293 115.817 258.991 114.863 258.712 113.92L260.99 113.727L273.016 106.74Z" fill="#E98400"/>
<path d="M253.656 95.7246L265.796 88.6636C266.274 89.6066 266.73 90.5211 267.174 91.4755L253.149 99.5988C252.705 98.6445 252.255 97.7185 251.789 96.7585L253.656 95.7246Z" fill="#E98400"/>
<path d="M267.174 91.4759L269.457 91.2827L267.544 92.362L255.433 99.3776L253.149 99.5992L267.174 91.4759Z" fill="#F5A62E"/>
<path style="mix-blend-mode:multiply" d="M179.754 46.2349L179.509 45.8373L177.892 42.997L191.928 34.8736L192.184 35.3224L194.239 34.1863L203.919 33.3398L204.488 34.8452L206.595 33.6068L217.414 36.504L217.943 39.0887L220.301 37.7253L231.461 44.1615V47.1836C231.66 47.354 231.859 47.4676 232.03 47.621L234.359 46.2577L245.144 55.8012L244.455 58.329C244.904 58.8119 245.371 59.3118 245.833 59.7947L247.831 58.6585L257.511 70.6333L256.173 72.508C256.685 73.2067 257.391 74.2462 257.966 75.104L259.817 74.0077L267.68 87.6015L265.813 88.6978C266.297 89.6124 266.724 90.5384 267.168 91.4813L269.446 91.2939L275.02 105.603L273.016 106.74C273.232 107.376 273.403 107.989 273.585 108.637L276.136 109.313L278.983 123.367L276.66 124.719C276.66 124.94 276.7 125.151 276.717 125.378L279.347 126.895L279.33 139.744L276.99 141.096L278.937 142.8L276.005 153.514L273.881 154.764L274.872 155.957L269.258 163.842L267.214 165.023L267.475 165.443L253.445 173.601L251.606 170.386C252.056 169.988 252.523 169.596 252.95 169.147L253.212 169.454L255.25 171.971L260.87 164.097L258.593 161.291C258.872 160.672 259.162 160.041 259.453 159.405L260.381 160.234L261.975 161.654L264.896 150.958L262.368 148.725C262.453 147.924 262.562 147.123 262.647 146.322L264.577 147.43L265.289 147.839V135.046L262.67 133.53C262.715 134.098 262.755 134.501 262.772 134.779C262.772 134.501 262.715 134.081 262.67 133.53C262.59 132.632 262.487 131.729 262.374 130.814L264.925 131.519L262.078 117.482L259.555 116.789C259.276 115.851 258.986 114.891 258.707 113.948L260.984 113.75L255.444 99.4115L253.166 99.6217C252.711 98.6787 252.272 97.7414 251.811 96.7814L253.667 95.7248L245.833 82.1992L243.936 83.199C243.367 82.3412 242.798 81.4948 242.183 80.6256L243.487 78.768L233.807 66.7819L232.48 68.6338C231.82 67.918 231.119 67.1738 230.436 66.4694L231.119 63.9586L220.301 54.4151L219.617 56.9316C218.871 56.3635 218.143 55.858 217.402 55.341V52.3076L206.276 45.8827V46.6837V48.9048C205.548 48.5526 204.802 48.2572 204.09 47.9619L203.424 44.6728L192.605 41.7643L193.004 43.7979L193.266 45.0647C192.571 44.9681 191.882 44.9 191.204 44.8432L189.895 41.4973L180.215 42.3096L181.2 44.8432L181.513 45.6839C180.944 45.8543 180.374 46.0361 179.759 46.252C178.77 46.6293 177.804 47.0656 176.867 47.5585C177.802 47.06 178.766 46.618 179.754 46.2349Z" fill="url(#paint0_linear_2911_4834)"/>
<path d="M198.72 102.82C200.093 102.252 202.023 103.78 202.991 106.188L207.318 116.948C208.212 119.169 210.08 120.668 211.532 120.328L218.763 118.623C220.42 118.237 222.487 119.862 223.318 122.225C224.15 124.56 223.449 126.656 221.804 126.934L211.993 128.638C211.424 130.911 209.203 131.24 207.068 129.485C204.933 127.73 203.555 124.452 203.976 122.1L198.054 107.989C197.098 105.66 197.371 103.388 198.72 102.82Z" fill="#F5A62E"/>
<path d="M201.306 82.0855C202.894 81.1823 205.092 82.824 206.162 85.7268L210.923 98.639C211.902 101.286 214.02 102.916 215.717 102.303L224.201 99.2525C226.16 98.5481 228.534 100.32 229.445 103.183C230.356 106.047 229.445 108.705 227.492 109.262L216.042 112.511C215.33 115.351 212.773 116.022 210.376 114.119C207.979 112.216 206.47 108.37 207 105.439L200.48 88.6751C199.415 85.9257 199.757 82.966 201.306 82.0855Z" fill="#F5A62E"/>
<path d="M135.944 271.076C136.83 270.625 137.811 270.39 138.805 270.39C139.8 270.39 140.781 270.625 141.667 271.076C143.25 271.984 143.25 273.461 141.667 274.37C140.78 274.819 139.8 275.052 138.805 275.052C137.811 275.052 136.831 274.819 135.944 274.37C134.378 273.461 134.378 271.984 135.944 271.076Z" fill="#0347FD"/>
<path d="M174.806 232.339C175.688 231.893 176.663 231.66 177.653 231.66C178.642 231.66 179.617 231.893 180.5 232.339C182.077 233.248 182.077 234.725 180.5 235.634C179.613 236.082 178.633 236.315 177.638 236.315C176.644 236.315 175.664 236.082 174.777 235.634C173.194 234.719 173.194 233.242 174.806 232.339Z" fill="#0347FD"/>
<path d="M179.97 245.711C180.857 245.263 181.837 245.029 182.831 245.029C183.825 245.029 184.806 245.263 185.693 245.711C187.275 246.626 187.275 248.097 185.693 249.012C184.806 249.46 183.825 249.693 182.831 249.693C181.837 249.693 180.857 249.46 179.97 249.012C178.387 248.097 178.387 246.626 179.97 245.711Z" fill="#0347FD"/>
<path d="M287.216 276.171C288.104 275.723 289.085 275.489 290.081 275.489C291.076 275.489 292.057 275.723 292.945 276.171C294.522 277.08 294.522 278.557 292.945 279.466C292.058 279.917 291.076 280.152 290.081 280.152C289.085 280.152 288.104 279.917 287.216 279.466C285.639 278.557 285.639 277.08 287.216 276.171Z" fill="#0347FD"/>
<path d="M289.181 261.594C290.064 261.151 291.039 260.92 292.028 260.92C293.017 260.92 293.992 261.151 294.875 261.594C296.458 262.503 296.458 263.98 294.875 264.889C293.993 265.335 293.017 265.568 292.028 265.568C291.039 265.568 290.063 265.335 289.181 264.889C287.598 263.98 287.598 262.503 289.181 261.594Z" fill="#0347FD"/>
<path d="M216.822 468.654L23.9945 357.921C15.3738 352.962 15.1802 326.922 18.6706 318.117L199.489 224.585C209.442 218.853 224.634 218.228 233.249 223.188L430.466 323.383C437.703 334.79 433.626 361.835 423.679 367.567L250.581 467.257C240.634 472.989 225.442 473.614 216.822 468.654Z" fill="url(#paint1_linear_2911_4834)"/>
<path d="M216.822 440.041L23.9945 329.314C15.3738 324.366 16.4671 315.6 26.4202 309.869L199.489 210.185C209.442 204.453 224.634 203.828 233.249 208.787L426.076 319.509C434.697 324.474 433.603 333.222 423.656 338.954L250.559 438.643C240.634 444.375 225.442 445.006 216.822 440.041Z" fill="url(#paint2_linear_2911_4834)"/>
<path d="M216.548 427.186L46.2922 329.478C37.6715 324.513 38.7647 315.765 48.7121 310.033L199.768 223.023C209.716 217.291 224.907 216.66 233.528 221.625L403.778 319.333C412.393 324.298 411.306 333.046 401.353 338.778L250.308 425.799C240.355 431.531 225.163 432.162 216.548 427.186Z" fill="url(#paint3_linear_2911_4834)"/>
<path d="M218.12 390.534L73.5721 307.528C67.1095 303.807 66.9614 294.934 69.5863 288.339L205.126 218.217C212.585 213.922 223.973 213.451 230.436 217.172L378.258 292.281C383.684 300.836 380.632 310.459 373.173 314.754L243.43 389.489C235.971 393.783 224.583 394.238 218.12 390.534Z" fill="url(#paint4_linear_2911_4834)"/>
<path d="M218.12 379.735L73.5721 296.729C67.1094 293.008 67.9294 286.447 75.3885 282.153L205.126 207.418C212.585 203.123 223.973 202.652 230.436 206.373L374.989 289.379C381.446 293.099 380.632 299.661 373.173 303.955L243.43 378.684C235.971 382.984 224.583 383.445 218.12 379.735Z" fill="url(#paint5_linear_2911_4834)"/>
<path d="M217.915 370.106L90.284 296.826C83.8213 293.105 84.6412 286.544 92.1004 282.249L205.337 217.046C212.796 212.752 224.184 212.28 230.641 216.001L358.272 289.282C364.735 293.003 363.915 299.564 356.455 303.858L243.219 369.061C235.76 373.355 224.372 373.827 217.915 370.106Z" fill="url(#paint6_linear_2911_4834)"/>
<path d="M222.168 343.919L147.902 301.274C144.582 299.359 144.485 283.329 145.852 279.943L215.495 243.916C219.327 241.707 225.175 241.462 228.494 243.377L304.447 281.965C307.231 286.362 305.665 302.779 301.833 304.983L235.162 343.379C231.341 345.589 225.482 345.833 222.168 343.919Z" fill="url(#paint7_linear_2911_4834)"/>
<path d="M222.168 326.899L147.902 284.249C144.582 282.34 145.003 278.966 148.835 276.762L215.495 238.366C219.327 236.156 225.175 235.918 228.494 237.826L302.767 280.471C306.081 282.386 305.665 285.754 301.833 287.964L235.162 326.359C231.341 328.564 225.482 328.808 222.168 326.899Z" fill="url(#paint8_linear_2911_4834)"/>
<path d="M222.066 321.951L156.488 284.311C153.168 282.397 153.59 279.028 157.422 276.824L215.597 243.308C219.429 241.104 225.277 240.86 228.602 242.774L294.175 280.414C297.494 282.323 297.078 285.697 293.241 287.901L235.065 321.417C231.233 323.621 225.38 323.86 222.066 321.951Z" fill="#F4BF3D"/>
<path opacity="0.8" d="M0 74.2632L146.091 279.369L220.067 321.974C222.655 323.467 225.591 324.253 228.58 324.253C231.569 324.253 234.505 323.467 237.092 321.974L301.827 284.061L449 79.3247C449 79.3247 322.992 -5.57271 226.49 0.289729C125.177 6.44756 0 74.2632 0 74.2632Z" fill="url(#paint9_linear_2911_4834)"/>
<g opacity="0.5">
<path d="M327.735 160.319H326.699C326.661 160.319 326.63 160.35 326.63 160.388V161.421C326.63 161.459 326.661 161.49 326.699 161.49H327.735C327.773 161.49 327.803 161.459 327.803 161.421V160.388C327.803 160.35 327.773 160.319 327.735 160.319Z" fill="white"/>
<path d="M321.904 241.053H320.868C320.83 241.053 320.8 241.083 320.8 241.121V242.155C320.8 242.192 320.83 242.223 320.868 242.223H321.904C321.942 242.223 321.973 242.192 321.973 242.155V241.121C321.973 241.083 321.942 241.053 321.904 241.053Z" fill="white"/>
<path d="M284.865 223.545H283.829C283.791 223.545 283.76 223.575 283.76 223.613V224.647C283.76 224.685 283.791 224.715 283.829 224.715H284.865C284.903 224.715 284.933 224.685 284.933 224.647V223.613C284.933 223.575 284.903 223.545 284.865 223.545Z" fill="white"/>
<path d="M259.999 229.271H258.963C258.925 229.271 258.895 229.302 258.895 229.339V230.373C258.895 230.411 258.925 230.441 258.963 230.441H259.999C260.037 230.441 260.067 230.411 260.067 230.373V229.339C260.067 229.302 260.037 229.271 259.999 229.271Z" fill="white"/>
<path d="M247.119 204.952L246.168 204.538C246.16 204.534 246.153 204.53 246.147 204.524C246.141 204.518 246.136 204.51 246.133 204.502C246.13 204.494 246.128 204.486 246.128 204.477C246.129 204.469 246.131 204.46 246.134 204.452L246.544 203.498L246.635 203.464L247.586 203.879C247.595 203.881 247.603 203.886 247.61 203.893C247.617 203.899 247.622 203.907 247.625 203.916C247.628 203.925 247.63 203.934 247.629 203.943C247.628 203.952 247.625 203.961 247.62 203.969L247.21 204.918C247.202 204.934 247.188 204.946 247.171 204.952C247.155 204.958 247.136 204.958 247.119 204.952Z" fill="white"/>
<path d="M227.504 253.8L226.553 253.385L226.518 253.294L226.934 252.346C226.937 252.338 226.942 252.33 226.948 252.324C226.954 252.318 226.961 252.313 226.969 252.31C226.977 252.307 226.986 252.305 226.995 252.306C227.003 252.306 227.012 252.308 227.02 252.312L227.976 252.726C227.984 252.73 227.992 252.734 227.998 252.74C228.004 252.746 228.009 252.754 228.012 252.762C228.015 252.77 228.017 252.778 228.016 252.787C228.016 252.795 228.014 252.804 228.01 252.812L227.595 253.76C227.587 253.777 227.574 253.79 227.557 253.798C227.54 253.805 227.521 253.806 227.504 253.8Z" fill="white"/>
<path d="M197.49 183.485L196.54 183.071L196.505 182.98L196.915 182.031C196.924 182.015 196.938 182.003 196.955 181.997C196.971 181.991 196.99 181.991 197.007 181.997L197.957 182.412C197.965 182.415 197.973 182.419 197.979 182.425C197.985 182.431 197.99 182.439 197.993 182.447C197.996 182.455 197.998 182.463 197.998 182.472C197.997 182.481 197.995 182.489 197.992 182.497L197.582 183.451C197.573 183.467 197.559 183.479 197.542 183.485C197.526 183.491 197.507 183.491 197.49 183.485Z" fill="white"/>
<path d="M147.298 205.639L146.347 205.23C146.331 205.222 146.318 205.208 146.311 205.192C146.304 205.175 146.303 205.157 146.307 205.139L146.723 204.191L146.814 204.157L147.765 204.566C147.773 204.569 147.781 204.575 147.787 204.581C147.793 204.588 147.798 204.596 147.801 204.604C147.804 204.613 147.806 204.622 147.805 204.631C147.805 204.64 147.803 204.648 147.799 204.657L147.389 205.605C147.385 205.614 147.38 205.621 147.373 205.627C147.367 205.633 147.359 205.638 147.351 205.641C147.342 205.645 147.333 205.646 147.324 205.646C147.315 205.645 147.306 205.643 147.298 205.639Z" fill="white"/>
<path d="M171.959 278.966L171.008 278.551L170.974 278.466L171.389 277.517C171.396 277.501 171.408 277.487 171.424 277.48C171.44 277.473 171.458 277.472 171.475 277.477L172.426 277.892C172.442 277.9 172.454 277.914 172.461 277.93C172.469 277.947 172.47 277.965 172.465 277.983L172.05 278.931L171.959 278.966Z" fill="white"/>
<path d="M181.766 227.864L180.815 227.452C180.781 227.437 180.741 227.453 180.726 227.487L180.313 228.436C180.298 228.47 180.314 228.51 180.348 228.525L181.299 228.937C181.334 228.952 181.374 228.936 181.389 228.902L181.802 227.953C181.817 227.919 181.801 227.879 181.766 227.864Z" fill="white"/>
<path d="M147.298 168.482L146.347 168.068L146.307 167.977L146.723 167.028C146.727 167.02 146.732 167.012 146.738 167.006C146.745 167 146.753 166.995 146.761 166.992C146.77 166.989 146.779 166.988 146.788 166.988C146.797 166.988 146.806 166.99 146.814 166.994L147.765 167.403C147.773 167.407 147.781 167.412 147.787 167.419C147.793 167.425 147.798 167.433 147.801 167.441C147.804 167.45 147.806 167.459 147.805 167.468C147.805 167.477 147.803 167.486 147.799 167.494L147.389 168.443C147.381 168.459 147.367 168.471 147.35 168.478C147.334 168.486 147.315 168.487 147.298 168.482Z" fill="white"/>
<path d="M107.503 217.314L106.552 216.899C106.544 216.896 106.536 216.891 106.53 216.885C106.524 216.879 106.519 216.872 106.516 216.864C106.513 216.856 106.511 216.847 106.512 216.839C106.512 216.83 106.514 216.821 106.518 216.814L106.928 215.859L107.019 215.825L107.97 216.24C107.986 216.247 108 216.261 108.007 216.278C108.014 216.294 108.015 216.313 108.009 216.331L107.594 217.279C107.585 217.295 107.571 217.307 107.555 217.314C107.538 217.32 107.519 217.32 107.503 217.314Z" fill="white"/>
<path d="M107.503 180.156L106.552 179.747C106.543 179.744 106.536 179.738 106.53 179.732C106.524 179.725 106.519 179.717 106.516 179.709C106.512 179.701 106.511 179.692 106.511 179.683C106.512 179.673 106.514 179.665 106.518 179.656L106.928 178.708L107.019 178.668L107.97 179.083C107.986 179.091 107.998 179.105 108.005 179.121C108.013 179.138 108.014 179.156 108.009 179.174L107.594 180.122C107.59 180.13 107.585 180.138 107.578 180.144C107.572 180.15 107.564 180.155 107.555 180.158C107.547 180.161 107.538 180.163 107.529 180.163C107.52 180.162 107.511 180.16 107.503 180.156Z" fill="white"/>
<path d="M352.458 204.952L351.507 204.538C351.499 204.535 351.492 204.53 351.486 204.524C351.48 204.518 351.475 204.511 351.472 204.503C351.468 204.495 351.467 204.486 351.467 204.477C351.467 204.469 351.47 204.46 351.473 204.453L351.889 203.498C351.892 203.49 351.897 203.483 351.903 203.477C351.909 203.471 351.916 203.466 351.924 203.462C351.932 203.459 351.941 203.458 351.949 203.458C351.958 203.458 351.967 203.46 351.974 203.464L352.925 203.879C352.942 203.886 352.955 203.9 352.963 203.917C352.97 203.933 352.971 203.952 352.965 203.97L352.549 204.918L352.458 204.952Z" fill="white"/>
<path d="M356.764 180.35L355.811 179.937C355.776 179.922 355.736 179.938 355.721 179.972L355.306 180.924C355.291 180.958 355.307 180.998 355.342 181.014L356.295 181.427C356.33 181.442 356.37 181.426 356.385 181.392L356.8 180.44C356.815 180.406 356.799 180.366 356.764 180.35Z" fill="white"/>
<path d="M307.295 214.177L306.345 213.765C306.31 213.75 306.27 213.766 306.255 213.801L305.842 214.749C305.827 214.784 305.843 214.824 305.878 214.839L306.828 215.251C306.863 215.266 306.903 215.25 306.918 215.215L307.331 214.267C307.346 214.232 307.33 214.192 307.295 214.177Z" fill="white"/>
<path d="M286.277 172.084L285.326 171.669C285.313 171.668 285.301 171.664 285.29 171.657C285.28 171.65 285.271 171.64 285.265 171.628C285.259 171.617 285.257 171.604 285.257 171.591C285.258 171.579 285.262 171.566 285.269 171.555L285.685 170.607C285.689 170.599 285.694 170.591 285.7 170.585C285.707 170.579 285.715 170.574 285.723 170.571C285.732 170.568 285.741 170.566 285.75 170.566C285.759 170.567 285.768 170.569 285.776 170.573L286.727 170.987C286.735 170.99 286.742 170.995 286.748 171.001C286.755 171.007 286.759 171.015 286.763 171.023C286.766 171.031 286.767 171.039 286.767 171.048C286.767 171.056 286.765 171.065 286.761 171.073L286.351 172.021L286.277 172.084Z" fill="white"/>
<path d="M232.076 296.786H231.04C231.002 296.786 230.971 296.816 230.971 296.854V297.888C230.971 297.925 231.002 297.956 231.04 297.956H232.076C232.114 297.956 232.144 297.925 232.144 297.888V296.854C232.144 296.816 232.114 296.786 232.076 296.786Z" fill="white"/>
<path d="M294.157 257.828L293.207 257.419C293.198 257.415 293.191 257.41 293.185 257.403C293.178 257.397 293.174 257.389 293.17 257.38C293.167 257.372 293.166 257.363 293.166 257.354C293.166 257.345 293.169 257.336 293.172 257.328L293.582 256.379C293.586 256.371 293.591 256.364 293.598 256.357C293.605 256.351 293.612 256.346 293.621 256.343C293.629 256.34 293.638 256.339 293.647 256.339C293.656 256.339 293.665 256.341 293.673 256.345L294.624 256.754C294.633 256.758 294.64 256.763 294.646 256.77C294.653 256.776 294.657 256.784 294.661 256.792C294.664 256.801 294.665 256.81 294.665 256.819C294.664 256.828 294.662 256.837 294.659 256.845L294.249 257.794L294.157 257.828Z" fill="white"/>
<path d="M148.516 237.866L147.566 237.457C147.557 237.453 147.55 237.448 147.544 237.442C147.537 237.435 147.533 237.427 147.529 237.419C147.526 237.41 147.525 237.401 147.525 237.392C147.525 237.383 147.528 237.374 147.531 237.366L147.947 236.418C147.95 236.41 147.955 236.402 147.961 236.396C147.967 236.39 147.974 236.385 147.982 236.382C147.99 236.379 147.999 236.377 148.008 236.377C148.016 236.378 148.025 236.38 148.032 236.384L148.983 236.793C148.999 236.801 149.012 236.814 149.019 236.831C149.026 236.848 149.028 236.866 149.023 236.883L148.608 237.832L148.516 237.866Z" fill="white"/>
<path d="M256.399 281.679L255.449 281.267C255.414 281.252 255.374 281.268 255.359 281.302L254.946 282.251C254.931 282.285 254.947 282.325 254.981 282.34L255.932 282.752C255.966 282.767 256.007 282.751 256.022 282.717L256.434 281.769C256.45 281.734 256.434 281.694 256.399 281.679Z" fill="white"/>
<path d="M268.637 189.018L267.686 188.609L267.652 188.518L268.062 187.569C268.07 187.553 268.084 187.541 268.1 187.534C268.117 187.526 268.136 187.525 268.153 187.53L269.104 187.944L269.138 188.035L268.728 188.984L268.637 189.018Z" fill="white"/>
</g>
<g opacity="0.5">
<path d="M256.554 26.1196H255.518C255.48 26.1196 255.45 26.1501 255.45 26.1878V27.2217C255.45 27.2593 255.48 27.2898 255.518 27.2898H256.554C256.592 27.2898 256.623 27.2593 256.623 27.2217V26.1878C256.623 26.1501 256.592 26.1196 256.554 26.1196Z" fill="white"/>
<path d="M250.724 106.848H249.687C249.65 106.848 249.619 106.878 249.619 106.916V107.95C249.619 107.987 249.65 108.018 249.687 108.018H250.724C250.761 108.018 250.792 107.987 250.792 107.95V106.916C250.792 106.878 250.761 106.848 250.724 106.848Z" fill="white"/>
<path d="M216.087 66.2422H215.051C215.013 66.2422 214.982 66.2727 214.982 66.3104V67.3442C214.982 67.3819 215.013 67.4124 215.051 67.4124H216.087C216.125 67.4124 216.155 67.3819 216.155 67.3442V66.3104C216.155 66.2727 216.125 66.2422 216.087 66.2422Z" fill="white"/>
<path d="M188.819 95.0659H187.782C187.745 95.0659 187.714 95.0964 187.714 95.1341V96.168C187.714 96.2056 187.745 96.2361 187.782 96.2361H188.819C188.856 96.2361 188.887 96.2056 188.887 96.168V95.1341C188.887 95.0964 188.856 95.0659 188.819 95.0659Z" fill="white"/>
<path d="M165.895 45.9565L164.944 45.5418C164.936 45.5388 164.928 45.534 164.922 45.528C164.916 45.5219 164.911 45.5147 164.908 45.5067C164.905 45.4987 164.903 45.4901 164.903 45.4815C164.904 45.4729 164.906 45.4644 164.909 45.4566L165.325 44.508C165.328 44.4994 165.332 44.4915 165.338 44.4847C165.344 44.478 165.351 44.4725 165.359 44.4687C165.367 44.465 165.376 44.463 165.385 44.4629C165.394 44.4628 165.402 44.4646 165.411 44.4682L166.361 44.8829L166.401 44.9738L165.986 45.9224C165.982 45.9307 165.977 45.9381 165.97 45.9443C165.963 45.9505 165.956 45.9553 165.947 45.9585C165.939 45.9617 165.93 45.9631 165.921 45.9628C165.912 45.9624 165.903 45.9603 165.895 45.9565Z" fill="white"/>
<path d="M156.782 118.533L155.832 118.121C155.797 118.106 155.757 118.122 155.742 118.157L155.329 119.105C155.314 119.14 155.33 119.18 155.365 119.195L156.315 119.607C156.35 119.622 156.39 119.606 156.405 119.571L156.818 118.623C156.833 118.588 156.817 118.548 156.782 118.533Z" fill="white"/>
<path d="M126.769 48.1884L125.818 47.7767C125.784 47.7617 125.743 47.7775 125.728 47.812L125.316 48.7604C125.301 48.7949 125.317 48.8351 125.351 48.8501L126.302 49.2618C126.336 49.2768 126.377 49.261 126.392 49.2264L126.804 48.2781C126.819 48.2436 126.803 48.2034 126.769 48.1884Z" fill="white"/>
<path d="M100.784 144.766L99.8328 144.351C99.8247 144.348 99.8174 144.343 99.8112 144.337C99.8051 144.331 99.8002 144.324 99.797 144.316C99.7938 144.308 99.7923 144.299 99.7926 144.291C99.7928 144.282 99.7949 144.274 99.7986 144.266L100.209 143.311L100.3 143.277L101.251 143.692C101.267 143.7 101.281 143.713 101.288 143.73C101.295 143.747 101.296 143.766 101.29 143.783L100.875 144.732C100.866 144.747 100.852 144.759 100.836 144.766C100.819 144.772 100.8 144.772 100.784 144.766Z" fill="white"/>
<path d="M110.139 94.7248L109.188 94.3158C109.18 94.3122 109.172 94.3069 109.166 94.3003C109.16 94.2937 109.155 94.286 109.152 94.2775C109.149 94.2691 109.147 94.2601 109.148 94.251C109.148 94.242 109.15 94.2331 109.154 94.2249L109.564 93.2763L109.655 93.2422L110.606 93.6512C110.614 93.6549 110.622 93.6602 110.628 93.6667C110.634 93.6733 110.639 93.6811 110.642 93.6895C110.645 93.698 110.647 93.707 110.646 93.716C110.646 93.725 110.644 93.7339 110.64 93.7421L110.23 94.6908C110.226 94.699 110.221 94.7064 110.214 94.7126C110.208 94.7188 110.2 94.7236 110.192 94.7268C110.183 94.73 110.174 94.7314 110.165 94.7311C110.156 94.7308 110.147 94.7286 110.139 94.7248Z" fill="white"/>
<path d="M281.283 70.7526L280.332 70.3379L280.298 70.2471L280.714 69.3041C280.718 69.2958 280.723 69.2884 280.73 69.2822C280.736 69.276 280.744 69.2712 280.752 69.268C280.761 69.2648 280.77 69.2634 280.779 69.2637C280.788 69.2641 280.797 69.2662 280.805 69.27L281.756 69.6847C281.772 69.691 281.786 69.7035 281.793 69.7193C281.8 69.7352 281.801 69.7533 281.796 69.7699L281.38 70.7185C281.371 70.7347 281.356 70.747 281.338 70.7532C281.32 70.7594 281.301 70.7592 281.283 70.7526Z" fill="white"/>
<path d="M303.541 120.64L302.59 120.225L302.55 120.14L302.966 119.191C302.975 119.175 302.988 119.163 303.005 119.156C303.021 119.148 303.04 119.147 303.057 119.152L304.008 119.566C304.016 119.57 304.024 119.575 304.03 119.582C304.036 119.588 304.041 119.596 304.044 119.605C304.047 119.613 304.049 119.622 304.049 119.631C304.048 119.64 304.046 119.649 304.042 119.657L303.632 120.606C303.629 120.614 303.623 120.622 303.617 120.628C303.61 120.634 303.602 120.639 303.594 120.642C303.585 120.645 303.576 120.647 303.567 120.646C303.558 120.646 303.549 120.644 303.541 120.64Z" fill="white"/>
<path d="M355.875 115.993L354.918 115.579C354.91 115.576 354.903 115.571 354.897 115.565C354.89 115.559 354.886 115.551 354.882 115.543C354.879 115.535 354.878 115.527 354.878 115.518C354.878 115.51 354.88 115.501 354.884 115.493L355.3 114.545C355.303 114.536 355.308 114.528 355.314 114.521C355.32 114.514 355.328 114.509 355.337 114.505C355.345 114.502 355.354 114.5 355.364 114.5C355.373 114.499 355.382 114.501 355.391 114.505L356.342 114.92C356.35 114.923 356.357 114.929 356.364 114.935C356.37 114.942 356.375 114.95 356.378 114.958C356.381 114.966 356.382 114.975 356.382 114.984C356.382 114.993 356.38 115.002 356.376 115.011L355.96 115.959L355.875 115.993Z" fill="white"/>
<path d="M390.392 100.548L389.441 100.133C389.433 100.129 389.425 100.124 389.419 100.117C389.413 100.111 389.408 100.103 389.405 100.095C389.402 100.086 389.4 100.077 389.4 100.068C389.401 100.059 389.403 100.05 389.407 100.042L389.822 99.0934C389.825 99.0853 389.83 99.078 389.836 99.0719C389.842 99.0657 389.85 99.0609 389.858 99.0577C389.866 99.0545 389.874 99.053 389.883 99.0533C389.891 99.0535 389.9 99.0556 389.908 99.0593L390.859 99.474L390.898 99.5592L390.483 100.508L390.392 100.548Z" fill="white"/>
<path d="M160.895 162.586H159.859C159.821 162.586 159.791 162.616 159.791 162.654V163.688C159.791 163.726 159.821 163.756 159.859 163.756H160.895C160.933 163.756 160.964 163.726 160.964 163.688V162.654C160.964 162.616 160.933 162.586 160.895 162.586Z" fill="white"/>
<path d="M223.426 122.561L222.476 122.15C222.441 122.135 222.401 122.151 222.386 122.185L221.973 123.133C221.958 123.168 221.974 123.208 222.009 123.223L222.959 123.635C222.994 123.65 223.034 123.634 223.049 123.599L223.462 122.651C223.477 122.617 223.461 122.576 223.426 122.561Z" fill="white"/>
<path d="M77.7941 102.595L76.8435 102.183C76.8089 102.168 76.7686 102.184 76.7536 102.218L76.3409 103.167C76.3259 103.201 76.3417 103.241 76.3763 103.256L77.3269 103.668C77.3615 103.683 77.4018 103.667 77.4168 103.633L77.8295 102.684C77.8446 102.65 77.8287 102.61 77.7941 102.595Z" fill="white"/>
<path d="M184.747 148.555L183.796 148.14C183.781 148.132 183.769 148.118 183.762 148.101C183.756 148.084 183.756 148.066 183.762 148.049L184.178 147.1L184.263 147.066L185.22 147.481C185.228 147.484 185.235 147.489 185.242 147.495C185.248 147.501 185.252 147.508 185.256 147.516C185.259 147.524 185.26 147.533 185.26 147.541C185.26 147.55 185.258 147.559 185.254 147.566L184.838 148.515C184.831 148.532 184.817 148.545 184.801 148.552C184.784 148.56 184.765 148.561 184.747 148.555Z" fill="white"/>
<path d="M246.254 58.6018L245.303 58.1927L245.269 58.1019L245.679 57.1532C245.683 57.1449 245.688 57.1375 245.694 57.1313C245.701 57.1251 245.709 57.1203 245.717 57.1171C245.726 57.114 245.735 57.1125 245.744 57.1128C245.753 57.1132 245.762 57.1153 245.77 57.1191L246.721 57.5281L246.761 57.619L246.345 58.5677C246.341 58.5759 246.336 58.5834 246.329 58.5895C246.323 58.5957 246.315 58.6005 246.307 58.6037C246.298 58.6069 246.289 58.6084 246.28 58.608C246.271 58.6077 246.262 58.6055 246.254 58.6018Z" fill="white"/>
</g>
</g>
<defs>
<linearGradient id="paint0_linear_2911_4834" x1="276.09" y1="160.564" x2="200.774" y2="29.8125" gradientUnits="userSpaceOnUse">
<stop stop-color="white"/>
<stop offset="0.01" stop-color="#FBDDAF"/>
<stop offset="0.02" stop-color="#F9CC88"/>
<stop offset="0.03" stop-color="#F8BE67"/>
<stop offset="0.04" stop-color="#F7B44E"/>
<stop offset="0.05" stop-color="#F6AC3C"/>
<stop offset="0.06" stop-color="#F5A731"/>
<stop offset="0.07" stop-color="#F5A62E"/>
<stop offset="0.13" stop-color="#F7B44E"/>
<stop offset="0.24" stop-color="#F9CA83"/>
<stop offset="0.34" stop-color="#FBDDB0"/>
<stop offset="0.44" stop-color="#FDECD2"/>
<stop offset="0.54" stop-color="#FEF6EB"/>
<stop offset="0.63" stop-color="#FFFDFA"/>
<stop offset="0.7" stop-color="white"/>
<stop offset="0.75" stop-color="#FFFEFC"/>
<stop offset="0.78" stop-color="#FEF9F2"/>
<stop offset="0.82" stop-color="#FDF2E0"/>
<stop offset="0.85" stop-color="#FCE8C8"/>
<stop offset="0.89" stop-color="#FBDAA9"/>
<stop offset="0.92" stop-color="#F9CA83"/>
<stop offset="0.93" stop-color="#F8C373"/>
<stop offset="0.96" stop-color="#F8C475"/>
<stop offset="0.97" stop-color="#F8C77C"/>
<stop offset="0.98" stop-color="#FAD398"/>
<stop offset="0.99" stop-color="#FCE8CA"/>
<stop offset="1" stop-color="white"/>
</linearGradient>
<linearGradient id="paint1_linear_2911_4834" x1="455.901" y1="418.244" x2="50.6085" y2="290.681" gradientUnits="userSpaceOnUse">
<stop stop-color="#FFEB00"/>
<stop offset="0.11" stop-color="#FEE701"/>
<stop offset="0.22" stop-color="#FCDA05"/>
<stop offset="0.34" stop-color="#F9C40C"/>
<stop offset="0.46" stop-color="#F4A615"/>
<stop offset="0.54" stop-color="#F08D1D"/>
<stop offset="0.58" stop-color="#F3A217"/>
<stop offset="0.64" stop-color="#F8BC0E"/>
<stop offset="0.7" stop-color="#FBD108"/>
<stop offset="0.78" stop-color="#FDE003"/>
<stop offset="0.86" stop-color="#FFE801"/>
<stop offset="1" stop-color="#FFEB00"/>
</linearGradient>
<linearGradient id="paint2_linear_2911_4834" x1="209.616" y1="229.492" x2="212.435" y2="473.664" gradientUnits="userSpaceOnUse">
<stop offset="0.03" stop-color="#FFEB00"/>
<stop offset="0.97" stop-color="#EA5A29"/>
</linearGradient>
<linearGradient id="paint3_linear_2911_4834" x1="55.1406" y1="231.958" x2="302.659" y2="367.288" gradientUnits="userSpaceOnUse">
<stop offset="0.09" stop-color="#F4BF3D"/>
<stop offset="0.82" stop-color="#F2E632"/>
<stop offset="1" stop-color="#F4A940"/>
</linearGradient>
<linearGradient id="paint4_linear_2911_4834" x1="268.096" y1="392.397" x2="211.494" y2="270.463" gradientUnits="userSpaceOnUse">
<stop stop-color="#F08D1D"/>
<stop offset="0.54" stop-color="#F4A940"/>
<stop offset="1" stop-color="#FFEB00"/>
</linearGradient>
<linearGradient id="paint5_linear_2911_4834" x1="211.15" y1="221.824" x2="213.263" y2="404.864" gradientUnits="userSpaceOnUse">
<stop offset="0.03" stop-color="#F4BF3D"/>
<stop offset="0.97" stop-color="#F2E632"/>
</linearGradient>
<linearGradient id="paint6_linear_2911_4834" x1="211.951" y1="229.489" x2="213.837" y2="392.78" gradientUnits="userSpaceOnUse">
<stop offset="0.09" stop-color="#F4BF3D"/>
<stop offset="0.97" stop-color="#F4A940"/>
</linearGradient>
<linearGradient id="paint7_linear_2911_4834" x1="230.487" y1="301.348" x2="197.975" y2="231.304" gradientUnits="userSpaceOnUse">
<stop stop-color="#F08D1D"/>
<stop offset="0.54" stop-color="#FFEB00"/>
<stop offset="1" stop-color="#FFEB00"/>
</linearGradient>
<linearGradient id="paint8_linear_2911_4834" x1="215.746" y1="245.664" x2="216.832" y2="339.706" gradientUnits="userSpaceOnUse">
<stop stop-color="#F4BF3D"/>
<stop offset="1" stop-color="#EA5A29"/>
</linearGradient>
<linearGradient id="paint9_linear_2911_4834" x1="222.163" y1="19.3199" x2="232.999" y2="286.864" gradientUnits="userSpaceOnUse">
<stop stop-color="#F3EBF9" stop-opacity="0"/>
<stop offset="0.28" stop-color="#F4EEFA" stop-opacity="0"/>
<stop offset="0.3" stop-color="#F4EFFA" stop-opacity="0"/>
<stop offset="0.38" stop-color="#F0F2FB" stop-opacity="0.04"/>
<stop offset="0.5" stop-color="#E6F9FD" stop-opacity="0.13"/>
<stop offset="0.57" stop-color="#DFFFFF" stop-opacity="0.2"/>
<stop offset="0.64" stop-color="#E2F7E6" stop-opacity="0.3"/>
<stop offset="0.78" stop-color="#E9E2A7" stop-opacity="0.56"/>
<stop offset="0.99" stop-color="#F4C041" stop-opacity="0.98"/>
<stop offset="1" stop-color="#F4BF3D"/>
</linearGradient>
<clipPath id="clip0_2911_4834">
<rect width="449" height="472" fill="white"/>
</clipPath>
</defs>
</svg>
