<svg width="34" height="33" viewBox="0 0 34 33" fill="none" xmlns="http://www.w3.org/2000/svg">
<path d="M33.6132 16.0352C33.5532 13.0981 32.6818 10.231 31.0906 7.73475C29.4994 5.23855 27.247 3.20542 24.57 1.84886C21.893 0.492293 18.8902 -0.137659 15.8768 0.0251487C12.8634 0.187956 9.95056 1.13752 7.44425 2.77412C4.93794 4.41073 2.93058 6.674 1.63295 9.32628C0.335312 11.9786 -0.204718 14.922 0.0695613 17.8475C0.343841 20.773 1.42231 23.5727 3.19173 25.9526C4.96114 28.3324 7.35622 30.2046 10.1255 31.3726C10.9425 30.1787 11.5653 28.8692 11.972 27.4903C12.3167 26.6516 12.686 25.8368 13.0553 25.0459C13.9679 25.3161 14.9391 25.3378 15.8636 25.1089C16.788 24.8799 17.6304 24.4089 18.2994 23.7471L18.3487 23.6991C17.5203 23.4027 16.6287 23.3132 15.7556 23.4388C14.8825 23.5644 14.0556 23.9011 13.3507 24.4181C13.8185 23.4835 14.3109 22.5488 14.828 21.6621C15.726 21.9671 16.692 22.0301 17.6238 21.8445C18.5556 21.6589 19.4186 21.2315 20.1213 20.6077L20.1706 20.5598C19.3719 20.2288 18.5011 20.097 17.6369 20.1765C16.7727 20.2561 15.9426 20.5443 15.2219 21.0151C15.7389 20.1763 16.2806 19.3615 16.8468 18.5947C17.7754 18.8322 18.7533 18.8171 19.6737 18.5508C20.594 18.2846 21.4217 17.7775 22.0663 17.0849L22.1156 17.037C21.3462 16.7913 20.5281 16.7263 19.7279 16.847C18.9278 16.9678 18.1684 17.271 17.5116 17.7319C17.5608 17.684 17.61 17.6121 17.6593 17.5642C18.004 17.1328 18.3487 16.7254 18.6933 16.2941C19.7626 15.9535 20.7167 15.3366 21.4539 14.5093C22.191 13.6821 22.6835 12.6755 22.8788 11.597L22.8985 11.5251H22.8739C21.7596 11.8073 20.749 12.3881 19.9569 13.2015C19.1648 14.0149 18.623 15.0282 18.393 16.1263L17.3835 17.3245C17.6519 16.6285 17.7601 15.8836 17.7005 15.1424C17.641 14.4013 17.4151 13.6818 17.0389 13.0349L16.9896 13.0828C16.4156 13.8467 16.0704 14.7505 15.9922 15.6939C15.9139 16.6373 16.1058 17.5833 16.5464 18.4269C16.0048 19.1698 15.4878 19.9127 14.9954 20.7036C15.1505 19.9056 15.1086 19.0831 14.8732 18.304C14.6378 17.5249 14.2155 16.8113 13.6413 16.2222L13.6166 16.2941C13.2526 17.1657 13.145 18.1187 13.3059 19.0465C13.4668 19.9742 13.8898 20.8401 14.5276 21.5471C14.0352 22.3859 13.5674 23.2486 13.1242 24.1353C13.26 23.3036 13.1901 22.4523 12.9203 21.6521C12.6506 20.8519 12.1887 20.1258 11.5731 19.5341L11.5485 19.606C11.2265 20.517 11.1664 21.4964 11.3747 22.4382C11.583 23.3801 12.0517 24.2487 12.7303 24.9501C12.4349 25.5732 12.164 26.1723 11.8932 26.8193C11.827 26.7494 11.7415 26.6995 11.647 26.6755C11.1702 26.5354 10.7149 26.3339 10.2929 26.0764C9.93801 25.8801 9.56751 25.7118 9.18498 25.5732C7.65852 25.0939 7.8801 24.3749 7.11687 22.9371C6.86553 22.6402 6.5941 22.36 6.3044 22.0983C6.03677 21.9302 5.81669 21.6995 5.66427 21.4273C5.49501 21.0883 5.38675 20.7235 5.34421 20.3489C5.3405 20.14 5.26963 19.9375 5.14156 19.7699C5.01349 19.6022 4.83466 19.4778 4.63022 19.4143C2.38977 18.6713 3.39921 15.8435 3.47307 15.484C3.44265 15.0072 3.33462 14.538 3.153 14.0941C3.12838 14.0462 3.12838 13.9743 3.10376 13.9263C3.04272 13.6343 3.05326 13.3324 3.13454 13.0451C3.21582 12.7578 3.36554 12.4932 3.57155 12.2728C3.84237 12.0092 4.77794 11.5778 4.97491 11.3382C5.17187 11.0985 5.31959 10.8109 5.51655 10.5953C6.14459 9.992 6.86771 9.4904 7.65852 9.10945C8.29865 8.77395 8.42175 7.88726 8.66795 7.62364C9.0865 7.16832 9.72662 7.16832 10.219 6.73695C10.4652 6.52127 10.8099 6.42541 11.0315 6.20973C12.153 5.21301 13.563 4.57703 15.0692 4.38842C16.1193 4.30816 17.1758 4.39722 18.196 4.65203C18.3461 4.67251 18.4943 4.70457 18.6392 4.74789C20.9535 4.81978 23.7356 5.29907 24.745 6.25766C25.2376 6.73474 25.6086 7.31746 25.8283 7.95915C25.9945 8.45331 26.2175 8.92763 26.4931 9.37306L27.1086 10.3556C27.5025 10.9788 27.6265 11.7286 27.4532 12.4405C27.3341 12.7895 27.3255 13.1652 27.4286 13.5189C27.758 13.9955 28.1375 14.4372 28.5612 14.837C28.7327 15.001 28.9226 15.1457 29.1274 15.2684C29.5952 15.5559 30.063 15.8435 30.5062 16.179C30.5165 16.3117 30.4927 16.4447 30.4368 16.5661C30.3809 16.6875 30.2947 16.7933 30.1861 16.874C29.7922 17.2095 29.0289 17.7607 29.0289 17.7607C29.0557 17.9109 29.1055 18.0563 29.1767 18.1921C29.2998 18.3838 29.546 18.6953 29.4475 18.935C29.349 19.1746 28.8074 19.4143 28.9797 19.7018C29.152 19.9894 29.5214 20.0853 29.4229 20.3489C29.3244 20.6125 28.7581 21.0678 28.8074 21.2595C28.8566 21.4513 29.3244 23.2726 28.2657 23.6081C26.9741 23.849 25.6654 23.9932 24.3511 24.0394C24.14 24.0548 23.9358 24.1194 23.7558 24.2279C23.5758 24.3363 23.4253 24.4854 23.317 24.6625C23.1208 25.0285 22.9956 25.4266 22.9477 25.8368C22.5695 27.2968 22.0671 28.7236 21.4459 30.1025C21.4043 30.1703 21.3712 30.2427 21.3474 30.3182C21.2028 30.5852 21.1188 30.8795 21.1012 31.1809C21.194 31.4022 21.3275 31.6053 21.4951 31.78C21.5826 31.883 21.6994 31.9585 21.8308 31.9968C21.9623 32.0352 22.1025 32.0348 22.2337 31.9957C25.6041 30.8235 28.5133 28.6544 30.5539 25.7924C32.5945 22.9303 33.6642 19.5186 33.6132 16.0352Z" fill="#00DACC"/>
</svg>
