<svg width="56" height="43" viewBox="0 0 56 43" fill="none" xmlns="http://www.w3.org/2000/svg">
<g clip-path="url(#clip0_2955_5756)">
<path d="M37.765 4.76538L37.7386 14.2463L29.1756 19.3263L29.1097 19.3665L29.1362 9.88384L29.2021 9.84536L30.8288 8.88289L37.765 4.76538Z" fill="url(#paint0_linear_2955_5756)"/>
<path d="M30.8271 8.88059L29.2021 9.84519L29.1232 9.79944L30.7612 8.82886L30.8271 8.88059Z" fill="url(#paint1_linear_2955_5756)"/>
<path d="M29.2021 9.84531L29.1362 9.88379L29.0573 9.8359L29.1232 9.79956L29.2021 9.84531Z" fill="url(#paint2_linear_2955_5756)"/>
<path d="M29.0572 9.8358L29.1362 9.88369L29.1097 19.3664L21.0081 14.6011L21.0346 5.11841L29.0572 9.8358Z" fill="url(#paint3_linear_2955_5756)"/>
<path d="M37.765 4.76357L30.8271 8.88066L30.7612 8.82892L29.1232 9.79951L29.0572 9.83585L21.0346 5.11846L21.0988 5.07998L29.6634 0L37.765 4.76357Z" fill="url(#paint4_linear_2955_5756)"/>
<path d="M24.8868 11.8983L3.89117 24.6006L4.08348 24.9303L25.0791 12.228L24.8868 11.8983Z" fill="url(#paint5_linear_2955_5756)"/>
<path d="M16.7569 17.2859L16.7325 26.769L8.16751 31.8468L8.1037 31.887L8.12973 22.4043L8.19395 22.3659H8.19563L9.82065 21.4034L16.7569 17.2859Z" fill="url(#paint6_linear_2955_5756)"/>
<path d="M9.82064 21.4013L8.19394 22.3659L8.11502 22.3198L9.75263 21.3496L9.82064 21.4013Z" fill="url(#paint7_linear_2955_5756)"/>
<path d="M8.19393 22.3658L8.1297 22.4042L8.05078 22.3564L8.11501 22.3196L8.19393 22.3658Z" fill="url(#paint8_linear_2955_5756)"/>
<path d="M16.7569 17.2841L9.82065 21.4012L9.75265 21.3494L8.11504 22.3196L8.05081 22.3564L0.0264587 17.639L0.0902673 17.6005L8.65531 12.5205L16.7569 17.2841Z" fill="url(#paint9_linear_2955_5756)"/>
<path d="M8.12972 22.4042L8.10369 31.8869L0 27.1216L0.026447 17.6389L8.05079 22.3563L8.12972 22.4042Z" fill="url(#paint10_linear_2955_5756)"/>
<path d="M33.6054 11.9046L33.4046 12.229L51.5738 23.8963L51.7746 23.5718L33.6054 11.9046Z" fill="url(#paint11_linear_2955_5756)"/>
<path d="M47.3711 21.5509L47.3447 31.034L39.2431 26.2683L39.2696 16.7856L47.2922 21.503L47.3711 21.5509Z" fill="url(#paint12_linear_2955_5756)"/>
<path d="M56 16.4324L55.9736 25.9138L47.4106 30.9933L47.4371 21.5123L49.0638 20.5477L56 16.4324Z" fill="url(#paint13_linear_2955_5756)"/>
<path d="M49.0617 20.5478L47.4371 21.5107L47.3577 21.4645L48.9958 20.4961L49.0617 20.5478Z" fill="url(#paint14_linear_2955_5756)"/>
<path d="M47.437 21.5107V21.5125L47.4106 30.9934L47.3447 31.034L47.3711 21.5509L47.437 21.5107Z" fill="url(#paint15_linear_2955_5756)"/>
<path d="M47.4371 21.5108L47.3712 21.551L47.2922 21.5031L47.3577 21.4646L47.4371 21.5108Z" fill="url(#paint16_linear_2955_5756)"/>
<path d="M56 16.4308L49.0617 20.5479L48.9958 20.4962L47.3577 21.4646L47.2922 21.5031L39.2696 16.7857L39.3334 16.7472L47.8984 11.6655L56 16.4308Z" fill="url(#paint17_linear_2955_5756)"/>
<path d="M43.2079 23.3546L23.743 35.5752L23.9406 35.9017L43.4055 23.6811L43.2079 23.3546Z" fill="url(#paint18_linear_2955_5756)"/>
<path d="M36.3793 28.4011L36.3528 37.8821L27.7899 42.9621L27.8163 33.4807L29.4414 32.5165L36.3793 28.4011Z" fill="url(#paint19_linear_2955_5756)"/>
<path d="M29.4414 32.5141L27.8147 33.4787L27.7353 33.4326L29.3755 32.4641L29.4414 32.5141Z" fill="url(#paint20_linear_2955_5756)"/>
<path d="M27.8164 33.4805L27.7899 42.9619L27.724 42.9999L27.7504 33.5172L27.8147 33.4788L27.8164 33.4805Z" fill="url(#paint21_linear_2955_5756)"/>
<path d="M27.8147 33.4788L27.7504 33.5173L27.6715 33.4711L27.7353 33.4326L27.8147 33.4788Z" fill="url(#paint22_linear_2955_5756)"/>
<path d="M28.276 23.6335L36.3793 28.3988L29.4413 32.5142L29.3754 32.4642L27.7353 33.4326L27.6715 33.4711L19.6467 28.7537L19.7126 28.7135L28.276 23.6335Z" fill="url(#paint23_linear_2955_5756)"/>
<path d="M27.7504 33.5172L27.724 42.9999L19.6207 38.2363L19.6468 28.7537L27.6715 33.4711L27.7504 33.5172Z" fill="url(#paint24_linear_2955_5756)"/>
<path opacity="0.67" d="M29.1509 16.4101C32.721 16.4101 35.6153 13.5482 35.6153 10.0179C35.6153 6.48761 32.721 3.62573 29.1509 3.62573C25.5807 3.62573 22.6865 6.48761 22.6865 10.0179C22.6865 13.5482 25.5807 16.4101 29.1509 16.4101Z" fill="url(#paint25_radial_2955_5756)"/>
<path opacity="0.67" d="M47.4371 27.9431C51.0072 27.9431 53.9014 25.0812 53.9014 21.5509C53.9014 18.0206 51.0072 15.1587 47.4371 15.1587C43.8669 15.1587 40.9727 18.0206 40.9727 21.5509C40.9727 25.0812 43.8669 27.9431 47.4371 27.9431Z" fill="url(#paint26_radial_2955_5756)"/>
<path opacity="0.67" d="M27.8163 39.9096C31.3865 39.9096 34.2807 37.0477 34.2807 33.5174C34.2807 29.9871 31.3865 27.1252 27.8163 27.1252C24.2461 27.1252 21.3519 29.9871 21.3519 33.5174C21.3519 37.0477 24.2461 39.9096 27.8163 39.9096Z" fill="url(#paint27_radial_2955_5756)"/>
<path opacity="0.67" d="M8.20695 28.7966C11.7771 28.7966 14.6713 25.9347 14.6713 22.4044C14.6713 18.8741 11.7771 16.0122 8.20695 16.0122C4.63676 16.0122 1.74255 18.8741 1.74255 22.4044C1.74255 25.9347 4.63676 28.7966 8.20695 28.7966Z" fill="url(#paint28_radial_2955_5756)"/>
</g>
<defs>
<linearGradient id="paint0_linear_2955_5756" x1="32.4769" y1="-4.13708" x2="35.7966" y2="49.8382" gradientUnits="userSpaceOnUse">
<stop stop-color="#EA5A29"/>
<stop offset="0.58" stop-color="#DFAE4C"/>
<stop offset="1" stop-color="#BEEEE8"/>
</linearGradient>
<linearGradient id="paint1_linear_2955_5756" x1="1.50159" y1="-14.1428" x2="59.0584" y2="31.6149" gradientUnits="userSpaceOnUse">
<stop stop-color="#EA5A29"/>
<stop offset="0.58" stop-color="#DFAE4C"/>
<stop offset="1" stop-color="#BEEEE8"/>
</linearGradient>
<linearGradient id="paint2_linear_2955_5756" x1="0.926385" y1="-13.4193" x2="58.4833" y2="32.3385" gradientUnits="userSpaceOnUse">
<stop stop-color="#EA5A29"/>
<stop offset="0.58" stop-color="#DFAE4C"/>
<stop offset="1" stop-color="#BEEEE8"/>
</linearGradient>
<linearGradient id="paint3_linear_2955_5756" x1="25.3622" y1="49.2746" x2="24.7112" y2="-30.8842" gradientUnits="userSpaceOnUse">
<stop stop-color="#EA5A29"/>
<stop offset="0.58" stop-color="#DFAE4C"/>
<stop offset="1" stop-color="#BEEEE8"/>
</linearGradient>
<linearGradient id="paint4_linear_2955_5756" x1="3.38647" y1="-16.5132" x2="60.9428" y2="29.2444" gradientUnits="userSpaceOnUse">
<stop stop-color="#EA5A29"/>
<stop offset="0.58" stop-color="#DFAE4C"/>
<stop offset="1" stop-color="#BEEEE8"/>
</linearGradient>
<linearGradient id="paint5_linear_2955_5756" x1="24.3099" y1="12.5439" x2="3.46956" y2="24.5471" gradientUnits="userSpaceOnUse">
<stop stop-color="white" stop-opacity="0"/>
<stop offset="0.51" stop-color="white"/>
<stop offset="1" stop-color="white" stop-opacity="0"/>
</linearGradient>
<linearGradient id="paint6_linear_2955_5756" x1="10.8063" y1="-2.80398" x2="14.1261" y2="51.1713" gradientUnits="userSpaceOnUse">
<stop stop-color="#EA5A29"/>
<stop offset="0.58" stop-color="#E2B049"/>
<stop offset="1" stop-color="#BEEEE8"/>
</linearGradient>
<linearGradient id="paint7_linear_2955_5756" x1="-12.8293" y1="3.88373" x2="44.7271" y2="49.6414" gradientUnits="userSpaceOnUse">
<stop stop-color="#EA5A29"/>
<stop offset="0.58" stop-color="#E2B049"/>
<stop offset="1" stop-color="#BEEEE8"/>
</linearGradient>
<linearGradient id="paint8_linear_2955_5756" x1="-13.4045" y1="4.60718" x2="44.1515" y2="50.365" gradientUnits="userSpaceOnUse">
<stop stop-color="#EA5A29"/>
<stop offset="0.58" stop-color="#E2B049"/>
<stop offset="1" stop-color="#BEEEE8"/>
</linearGradient>
<linearGradient id="paint9_linear_2955_5756" x1="-10.9453" y1="1.51354" x2="46.6115" y2="47.2712" gradientUnits="userSpaceOnUse">
<stop stop-color="#EA5A29"/>
<stop offset="0.58" stop-color="#E2B049"/>
<stop offset="1" stop-color="#BEEEE8"/>
</linearGradient>
<linearGradient id="paint10_linear_2955_5756" x1="4.25838" y1="49.446" x2="3.60732" y2="-30.7128" gradientUnits="userSpaceOnUse">
<stop stop-color="#EA5A29"/>
<stop offset="0.58" stop-color="#E2B049"/>
<stop offset="1" stop-color="#BEEEE8"/>
</linearGradient>
<linearGradient id="paint11_linear_2955_5756" x1="33.4052" y1="17.8983" x2="51.7753" y2="17.8983" gradientUnits="userSpaceOnUse">
<stop stop-color="white" stop-opacity="0"/>
<stop offset="0.51" stop-color="white"/>
<stop offset="1" stop-color="white" stop-opacity="0"/>
</linearGradient>
<linearGradient id="paint12_linear_2955_5756" x1="43.5044" y1="49.1271" x2="42.8534" y2="-31.0316" gradientUnits="userSpaceOnUse">
<stop stop-color="#EA5A29"/>
<stop offset="0.58" stop-color="#E5B347"/>
<stop offset="1" stop-color="#BEEEE8"/>
</linearGradient>
<linearGradient id="paint13_linear_2955_5756" x1="49.9902" y1="-5.21428" x2="53.31" y2="48.761" gradientUnits="userSpaceOnUse">
<stop stop-color="#EA5A29"/>
<stop offset="0.58" stop-color="#E5B347"/>
<stop offset="1" stop-color="#BEEEE8"/>
</linearGradient>
<linearGradient id="paint14_linear_2955_5756" x1="3.12121" y1="-16.1801" x2="60.678" y2="29.5779" gradientUnits="userSpaceOnUse">
<stop stop-color="#EA5A29"/>
<stop offset="0.58" stop-color="#E5B347"/>
<stop offset="1" stop-color="#BEEEE8"/>
</linearGradient>
<linearGradient id="paint15_linear_2955_5756" x1="45.54" y1="-4.94054" x2="48.8603" y2="49.0347" gradientUnits="userSpaceOnUse">
<stop stop-color="#EA5A29"/>
<stop offset="0.58" stop-color="#E5B347"/>
<stop offset="1" stop-color="#BEEEE8"/>
</linearGradient>
<linearGradient id="paint16_linear_2955_5756" x1="2.54669" y1="-15.4564" x2="60.1031" y2="30.3005" gradientUnits="userSpaceOnUse">
<stop stop-color="#EA5A29"/>
<stop offset="0.58" stop-color="#E5B347"/>
<stop offset="1" stop-color="#BEEEE8"/>
</linearGradient>
<linearGradient id="paint17_linear_2955_5756" x1="5.0052" y1="-18.5497" x2="62.562" y2="27.208" gradientUnits="userSpaceOnUse">
<stop stop-color="#EA5A29"/>
<stop offset="0.58" stop-color="#E5B347"/>
<stop offset="1" stop-color="#BEEEE8"/>
</linearGradient>
<linearGradient id="paint18_linear_2955_5756" x1="23.7426" y1="29.6287" x2="43.4057" y2="29.6287" gradientUnits="userSpaceOnUse">
<stop stop-color="white" stop-opacity="0"/>
<stop offset="0.51" stop-color="white"/>
<stop offset="1" stop-color="white" stop-opacity="0"/>
</linearGradient>
<linearGradient id="paint19_linear_2955_5756" x1="29.7339" y1="-3.96817" x2="33.0537" y2="50.0071" gradientUnits="userSpaceOnUse">
<stop stop-color="#EA5A29"/>
<stop offset="0.58" stop-color="#E5B347"/>
<stop offset="1" stop-color="#BEEEE8"/>
</linearGradient>
<linearGradient id="paint20_linear_2955_5756" x1="-10.3954" y1="0.822143" x2="47.161" y2="46.5798" gradientUnits="userSpaceOnUse">
<stop stop-color="#EA5A29"/>
<stop offset="0.58" stop-color="#E5B347"/>
<stop offset="1" stop-color="#BEEEE8"/>
</linearGradient>
<linearGradient id="paint21_linear_2955_5756" x1="25.2837" y1="-3.69472" x2="28.6039" y2="50.2805" gradientUnits="userSpaceOnUse">
<stop stop-color="#EA5A29"/>
<stop offset="0.58" stop-color="#E5B347"/>
<stop offset="1" stop-color="#BEEEE8"/>
</linearGradient>
<linearGradient id="paint22_linear_2955_5756" x1="-10.9713" y1="1.54538" x2="46.5862" y2="47.3034" gradientUnits="userSpaceOnUse">
<stop stop-color="#EA5A29"/>
<stop offset="0.58" stop-color="#E5B347"/>
<stop offset="1" stop-color="#BEEEE8"/>
</linearGradient>
<linearGradient id="paint23_linear_2955_5756" x1="-8.51174" y1="-1.54742" x2="49.0446" y2="44.2107" gradientUnits="userSpaceOnUse">
<stop stop-color="#EA5A29"/>
<stop offset="0.58" stop-color="#E5B347"/>
<stop offset="1" stop-color="#BEEEE8"/>
</linearGradient>
<linearGradient id="paint24_linear_2955_5756" x1="23.7905" y1="49.2874" x2="23.1395" y2="-30.8714" gradientUnits="userSpaceOnUse">
<stop stop-color="#EA5A29"/>
<stop offset="0.58" stop-color="#E5B347"/>
<stop offset="1" stop-color="#BEEEE8"/>
</linearGradient>
<radialGradient id="paint25_radial_2955_5756" cx="0" cy="0" r="1" gradientUnits="userSpaceOnUse" gradientTransform="translate(29.1509 10.0179) scale(6.37078 6.48882)">
<stop stop-color="white"/>
<stop offset="1" stop-color="#AFC7FF" stop-opacity="0"/>
</radialGradient>
<radialGradient id="paint26_radial_2955_5756" cx="0" cy="0" r="1" gradientUnits="userSpaceOnUse" gradientTransform="translate(47.4371 21.5509) scale(6.37078 6.48882)">
<stop stop-color="white"/>
<stop offset="1" stop-color="#AFC7FF" stop-opacity="0"/>
</radialGradient>
<radialGradient id="paint27_radial_2955_5756" cx="0" cy="0" r="1" gradientUnits="userSpaceOnUse" gradientTransform="translate(27.8163 33.5174) scale(6.37078 6.48882)">
<stop stop-color="white"/>
<stop offset="1" stop-color="#AFC7FF" stop-opacity="0"/>
</radialGradient>
<radialGradient id="paint28_radial_2955_5756" cx="0" cy="0" r="1" gradientUnits="userSpaceOnUse" gradientTransform="translate(8.20695 22.4044) scale(6.37078 6.48882)">
<stop stop-color="white"/>
<stop offset="1" stop-color="#AFC7FF" stop-opacity="0"/>
</radialGradient>
<clipPath id="clip0_2955_5756">
<rect width="56" height="43" fill="white"/>
</clipPath>
</defs>
</svg>
