<svg width="347" height="156" viewBox="0 0 347 156" fill="none" xmlns="http://www.w3.org/2000/svg">
<path d="M346.667 3C346.667 4.47276 345.473 5.66667 344 5.66667C342.527 5.66667 341.333 4.47276 341.333 3C341.333 1.52724 342.527 0.333333 344 0.333333C345.473 0.333333 346.667 1.52724 346.667 3ZM344 3.5H340.931V2.5H344V3.5ZM334.794 3.5H328.656V2.5H334.794V3.5ZM322.519 3.5H316.382V2.5H322.519V3.5ZM310.244 3.5H304.107V2.5H310.244V3.5ZM297.969 3.5H291.832V2.5H297.969V3.5ZM285.695 3.5H279.557V2.5H285.695V3.5ZM273.42 3.5H267.282V2.5H273.42V3.5ZM261.145 3.5H255.008V2.5H261.145V3.5ZM248.87 3.5H242.733V2.5H248.87V3.5ZM236.595 3.5H230.458V2.5H236.595V3.5ZM224.321 3.5H218.183V2.5H224.321V3.5ZM212.046 3.5H205.908V2.5H212.046V3.5ZM199.771 3.5H193.634V2.5H199.771V3.5ZM187.496 3.5H181.359V2.5H187.496V3.5ZM175.221 3.5H169.084V2.5H175.221V3.5ZM162.947 3.5H156.809V2.5H162.947V3.5ZM150.672 3.5H144.534V2.5H150.672V3.5ZM138.397 3.5H135.328V2.5H138.397V3.5Z" fill="#0000FE"/>
<path d="M2.99989 150.333C1.52713 150.333 0.333222 151.527 0.333222 153C0.333222 154.473 1.52713 155.667 2.99989 155.667C4.47265 155.667 5.66656 154.473 5.66656 153C5.66656 151.527 4.47265 150.333 2.99989 150.333ZM68.6641 84.25L68.6641 87.2969L69.6641 87.2969L69.6641 84.25L68.6641 84.25ZM68.6641 93.3906L68.6641 99.4844L69.6641 99.4844L69.6641 93.3906L68.6641 93.3906ZM68.6641 105.578L68.6641 111.672L69.6641 111.672L69.6641 105.578L68.6641 105.578ZM68.6641 117.766L68.6641 123.859L69.6641 123.859L69.6641 117.766L68.6641 117.766ZM68.6641 129.953L68.6641 133L69.6641 133L69.6641 129.953L68.6641 129.953ZM68.6641 133C68.6641 133.864 68.6079 134.714 68.4992 135.548L69.4908 135.677C69.6051 134.801 69.6641 133.907 69.6641 133L68.6641 133ZM67.1846 140.464C66.5273 142.049 65.6669 143.529 64.6356 144.871L65.4285 145.48C66.5124 144.07 67.4171 142.514 68.1083 140.847L67.1846 140.464ZM61.0351 148.472C59.6931 149.503 58.2133 150.363 56.6283 151.021L57.0113 151.944C58.6782 151.253 60.2339 150.348 61.6444 149.264L61.0351 148.472ZM51.7116 152.335C50.878 152.444 50.0277 152.5 49.1641 152.5L49.1641 153.5C50.0711 153.5 50.9646 153.441 51.8409 153.327L51.7116 152.335ZM49.1641 152.5L46.2788 152.5L46.2788 153.5L49.1641 153.5L49.1641 152.5ZM40.5083 152.5L34.7378 152.5L34.7378 153.5L40.5083 153.5L40.5083 152.5ZM28.9672 152.5L23.1967 152.5L23.1967 153.5L28.9672 153.5L28.9672 152.5ZM17.4262 152.5L11.6557 152.5L11.6557 153.5L17.4262 153.5L17.4262 152.5ZM5.88515 152.5L2.99989 152.5L2.99989 153.5L5.88515 153.5L5.88515 152.5ZM2.99989 150.333C1.52713 150.333 0.333222 151.527 0.333222 153C0.333222 154.473 1.52713 155.667 2.99989 155.667C4.47265 155.667 5.66656 154.473 5.66656 153C5.66656 151.527 4.47265 150.333 2.99989 150.333ZM68.6641 84.25L68.6641 87.2969L69.6641 87.2969L69.6641 84.25L68.6641 84.25ZM68.6641 93.3906L68.6641 99.4844L69.6641 99.4844L69.6641 93.3906L68.6641 93.3906ZM68.6641 105.578L68.6641 111.672L69.6641 111.672L69.6641 105.578L68.6641 105.578ZM68.6641 117.766L68.6641 123.859L69.6641 123.859L69.6641 117.766L68.6641 117.766ZM68.6641 129.953L68.6641 133L69.6641 133L69.6641 129.953L68.6641 129.953ZM68.6641 133C68.6641 133.864 68.6079 134.714 68.4992 135.548L69.4908 135.677C69.6051 134.801 69.6641 133.907 69.6641 133L68.6641 133ZM67.1846 140.464C66.5273 142.049 65.6669 143.529 64.6356 144.871L65.4285 145.48C66.5124 144.07 67.4171 142.514 68.1083 140.847L67.1846 140.464ZM61.0351 148.472C59.6931 149.503 58.2133 150.363 56.6283 151.021L57.0113 151.944C58.6782 151.253 60.2339 150.348 61.6444 149.264L61.0351 148.472ZM51.7116 152.335C50.878 152.444 50.0277 152.5 49.1641 152.5L49.1641 153.5C50.0711 153.5 50.9646 153.441 51.8409 153.327L51.7116 152.335ZM49.1641 152.5L46.2788 152.5L46.2788 153.5L49.1641 153.5L49.1641 152.5ZM40.5083 152.5L34.7378 152.5L34.7378 153.5L40.5083 153.5L40.5083 152.5ZM28.9672 152.5L23.1967 152.5L23.1967 153.5L28.9672 153.5L28.9672 152.5ZM17.4262 152.5L11.6557 152.5L11.6557 153.5L17.4262 153.5L17.4262 152.5ZM5.88515 152.5L2.99989 152.5L2.99989 153.5L5.88515 153.5L5.88515 152.5Z" fill="#0000FE"/>
<path d="M135.328 2.99991L89.1641 2.99991C78.1184 2.99991 69.1641 11.9542 69.1641 22.9999L69.1641 94.1458" stroke="#0000FE" stroke-dasharray="6 6"/>
</svg>
