<svg width="271" height="159" viewBox="0 0 271 159" fill="none" xmlns="http://www.w3.org/2000/svg">
<path d="M270.667 3C270.667 4.47276 269.473 5.66667 268 5.66667C266.527 5.66667 265.333 4.47276 265.333 3C265.333 1.52724 266.527 0.333333 268 0.333333C269.473 0.333333 270.667 1.52724 270.667 3ZM268 3.5L264.981 3.5L264.981 2.5L268 2.5L268 3.5ZM258.942 3.5L252.904 3.5L252.904 2.5L258.942 2.5L258.942 3.5ZM246.865 3.5L240.827 3.5L240.827 2.5L246.865 2.5L246.865 3.5ZM234.788 3.5L228.75 3.5L228.75 2.5L234.788 2.5L234.788 3.5ZM222.712 3.5L216.673 3.5L216.673 2.5L222.712 2.5L222.712 3.5ZM210.635 3.50001L204.596 3.50001L204.596 2.50001L210.635 2.50001L210.635 3.50001ZM198.558 3.50001L192.519 3.50001L192.519 2.50001L198.558 2.50001L198.558 3.50001ZM186.481 3.50001L180.442 3.50001L180.442 2.50001L186.481 2.50001L186.481 3.50001ZM174.404 3.50001L168.365 3.50001L168.365 2.50001L174.404 2.50001L174.404 3.50001ZM162.327 3.50001L156.288 3.50001L156.288 2.50001L162.327 2.50001L162.327 3.50001ZM150.25 3.50001L144.212 3.50001L144.212 2.50001L150.25 2.50001L150.25 3.50001ZM138.173 3.50001L132.135 3.50001L132.135 2.50001L138.173 2.50001L138.173 3.50001ZM126.096 3.50001L120.058 3.50001L120.058 2.50001L126.096 2.50001L126.096 3.50001ZM114.019 3.50001L111 3.50001L111 2.50001L114.019 2.50001L114.019 3.50001Z" fill="#FFEB00"/>
<path d="M3 153.333C1.52724 153.333 0.333331 154.527 0.333331 156C0.333331 157.473 1.52724 158.667 3 158.667C4.47276 158.667 5.66667 157.473 5.66667 156C5.66667 154.527 4.47276 153.333 3 153.333ZM45.5 90L45.5 92.875L46.5 92.875L46.5 90L45.5 90ZM45.5 98.625L45.5 104.375L46.5 104.375L46.5 98.625L45.5 98.625ZM45.5 110.125L45.5 115.875L46.5 115.875L46.5 110.125L45.5 110.125ZM45.5 121.625L45.5 127.375L46.5 127.375L46.5 121.625L45.5 121.625ZM45.5 133.125L45.5 136L46.5 136L46.5 133.125L45.5 133.125ZM45.5 136C45.5 136.864 45.4439 137.714 45.3352 138.548L46.3268 138.677C46.4411 137.801 46.5 136.907 46.5 136L45.5 136ZM44.0205 143.464C43.3632 145.049 42.5028 146.529 41.4715 147.871L42.2644 148.48C43.3483 147.07 44.253 145.514 44.9443 143.847L44.0205 143.464ZM37.871 151.472C36.529 152.503 35.0493 153.363 33.4642 154.021L33.8473 154.944C35.5142 154.253 37.0699 153.348 38.4803 152.264L37.871 151.472ZM28.5475 155.335C27.714 155.444 26.8637 155.5 26 155.5L26 156.5C26.907 156.5 27.8005 156.441 28.6769 156.327L28.5475 155.335ZM26 155.5L23.125 155.5L23.125 156.5L26 156.5L26 155.5ZM17.375 155.5L11.625 155.5L11.625 156.5L17.375 156.5L17.375 155.5ZM5.875 155.5L3 155.5L3 156.5L5.875 156.5L5.875 155.5ZM3 153.333C1.52724 153.333 0.333331 154.527 0.333331 156C0.333331 157.473 1.52724 158.667 3 158.667C4.47276 158.667 5.66667 157.473 5.66667 156C5.66667 154.527 4.47276 153.333 3 153.333ZM45.5 90L45.5 92.875L46.5 92.875L46.5 90L45.5 90ZM45.5 98.625L45.5 104.375L46.5 104.375L46.5 98.625L45.5 98.625ZM45.5 110.125L45.5 115.875L46.5 115.875L46.5 110.125L45.5 110.125ZM45.5 121.625L45.5 127.375L46.5 127.375L46.5 121.625L45.5 121.625ZM45.5 133.125L45.5 136L46.5 136L46.5 133.125L45.5 133.125ZM45.5 136C45.5 136.864 45.4439 137.714 45.3352 138.548L46.3268 138.677C46.4411 137.801 46.5 136.907 46.5 136L45.5 136ZM44.0205 143.464C43.3632 145.049 42.5028 146.529 41.4715 147.871L42.2644 148.48C43.3483 147.07 44.253 145.514 44.9443 143.847L44.0205 143.464ZM37.871 151.472C36.529 152.503 35.0493 153.363 33.4642 154.021L33.8473 154.944C35.5142 154.253 37.0699 153.348 38.4803 152.264L37.871 151.472ZM28.5475 155.335C27.714 155.444 26.8637 155.5 26 155.5L26 156.5C26.907 156.5 27.8005 156.441 28.6769 156.327L28.5475 155.335ZM26 155.5L23.125 155.5L23.125 156.5L26 156.5L26 155.5ZM17.375 155.5L11.625 155.5L11.625 156.5L17.375 156.5L17.375 155.5ZM5.875 155.5L3 155.5L3 156.5L5.875 156.5L5.875 155.5Z" fill="#FFEB00"/>
<path d="M111 3L66 3C54.9543 3 46 11.9543 46 23L46 90.5" stroke="#FFEB00" stroke-dasharray="6 6"/>
</svg>
