<svg width="41" height="41" viewBox="0 0 41 41" fill="none" xmlns="http://www.w3.org/2000/svg">
<g clip-path="url(#clip0_2955_5747)">
<path d="M20.5 41C31.8218 41 41 31.8218 41 20.5C41 9.17816 31.8218 0 20.5 0C9.17816 0 0 9.17816 0 20.5C0 31.8218 9.17816 41 20.5 41Z" fill="url(#paint0_linear_2955_5747)"/>
<path d="M12.2958 21.1722C12.4891 20.9789 12.7187 20.8255 12.9713 20.7208C13.2239 20.6161 13.4947 20.5623 13.7681 20.5623C14.0416 20.5623 14.3124 20.6161 14.565 20.7208C14.8176 20.8255 15.0472 20.9789 15.2405 21.1722L19.0286 24.9585C19.2217 25.1519 19.4511 25.3052 19.7036 25.4099C19.9561 25.5145 20.2267 25.5684 20.5 25.5684C20.7733 25.5684 21.044 25.5145 21.2964 25.4099C21.5489 25.3052 21.7783 25.1519 21.9715 24.9585L25.7596 21.1722C25.9527 20.9789 26.1821 20.8255 26.4346 20.7209C26.6871 20.6163 26.9577 20.5624 27.231 20.5624C27.5043 20.5624 27.775 20.6163 28.0274 20.7209C28.2799 20.8255 28.5093 20.9789 28.7025 21.1722C28.8958 21.3654 29.0492 21.5948 29.1538 21.8473C29.2585 22.0998 29.3123 22.3704 29.3123 22.6437C29.3123 22.917 29.2585 23.1876 29.1538 23.4401C29.0492 23.6926 28.8958 23.922 28.7025 24.1152L23.4447 29.3747C23.4447 30.1557 23.1345 30.9047 22.5822 31.4569C22.03 32.0092 21.281 32.3194 20.5 32.3194C19.719 32.3194 18.97 32.0092 18.4178 31.4569C17.8656 30.9047 17.5553 30.1557 17.5553 29.3747L12.2958 24.1134C11.9067 23.7229 11.6883 23.1941 11.6883 22.6428C11.6883 22.0916 11.9067 21.5628 12.2958 21.1722Z" fill="white"/>
<path d="M12.2958 11.0713C12.6867 10.6816 13.2162 10.4628 13.7681 10.4628C14.3201 10.4628 14.8496 10.6816 15.2405 11.0713L19.0285 14.8594C19.2217 15.0527 19.4511 15.2061 19.7036 15.3107C19.9561 15.4153 20.2267 15.4692 20.5 15.4692C20.7733 15.4692 21.044 15.4153 21.2964 15.3107C21.5489 15.2061 21.7783 15.0527 21.9715 14.8594L25.7595 11.0713C26.15 10.6808 26.6797 10.4614 27.2319 10.4614C27.7841 10.4614 28.3138 10.6808 28.7043 11.0713C29.0947 11.4618 29.3141 11.9914 29.3141 12.5436C29.3141 13.0959 29.0947 13.6255 28.7043 14.016L23.4447 19.2755C23.4447 20.0565 23.1345 20.8055 22.5822 21.3577C22.03 21.91 21.281 22.2202 20.5 22.2202C19.719 22.2202 18.97 21.91 18.4178 21.3577C17.8656 20.8055 17.5553 20.0565 17.5553 19.2755L12.2958 14.016C11.9061 13.6251 11.6873 13.0956 11.6873 12.5436C11.6873 11.9917 11.9061 11.4622 12.2958 11.0713Z" fill="white"/>
</g>
<defs>
<linearGradient id="paint0_linear_2955_5747" x1="6.00409" y1="6.00409" x2="34.9959" y2="34.9959" gradientUnits="userSpaceOnUse">
<stop stop-color="#E9B43D"/>
<stop offset="0.03" stop-color="#D4A24F"/>
<stop offset="0.11" stop-color="#A97C75"/>
<stop offset="0.2" stop-color="#835B96"/>
<stop offset="0.29" stop-color="#633FB2"/>
<stop offset="0.38" stop-color="#4828C9"/>
<stop offset="0.49" stop-color="#3417DB"/>
<stop offset="0.61" stop-color="#260AE8"/>
<stop offset="0.76" stop-color="#1E03EF"/>
<stop offset="1" stop-color="#1B01F1"/>
</linearGradient>
<clipPath id="clip0_2955_5747">
<rect width="41" height="41" fill="white"/>
</clipPath>
</defs>
</svg>
