<svg width="166" height="121" viewBox="0 0 166 121" fill="none" xmlns="http://www.w3.org/2000/svg">
<g clip-path="url(#clip0_3125_643)">
<path d="M9.80343 88.4578H9.64248C9.27941 88.442 8.91774 88.4029 8.55971 88.3406C8.22317 88.3406 7.90127 88.1942 7.57937 88.1063C7.26963 88.0208 6.96645 87.9132 6.67218 87.7841C6.38785 87.6596 6.11385 87.5127 5.85279 87.3447H5.75037L60.2253 119.008H60.3131C60.5904 119.17 60.8789 119.312 61.1764 119.433C61.4748 119.564 61.783 119.672 62.0982 119.755C62.4188 119.857 62.7464 119.935 63.0785 119.989C63.4318 120.051 63.7885 120.09 64.1467 120.106H64.3808L9.80343 88.4578Z" fill="#B9C1C4"/>
<path d="M160.206 39.5424C159.571 37.108 158.025 35.0109 155.889 33.6843L101.37 1.9917C103.528 3.31113 105.099 5.40737 105.76 7.84984C106.534 10.6574 106.708 13.5965 106.272 16.476C106.17 17.2815 106.038 18.087 105.862 18.9217C105.687 19.7565 105.555 20.2545 105.365 20.9282C105.175 21.6018 105.014 22.1144 104.824 22.7149C104.633 23.3153 104.546 23.5057 104.399 23.9012L104.209 24.4284C104.004 24.9556 103.785 25.4829 103.565 26.0101C103.346 26.5373 103.112 27.0206 102.863 27.4746C102.614 27.9286 102.38 28.4559 102.131 28.9392C101.883 29.4225 101.605 29.9058 101.327 30.4037C101.049 30.9016 100.741 31.3703 100.434 31.8682C100.127 32.3662 99.7756 32.8641 99.439 33.3328C99.1025 33.8014 98.6782 34.3872 98.2831 34.8998C97.8881 35.4124 97.3613 36.0568 96.8199 36.6133C96.2785 37.1699 95.5616 38.0047 94.9031 38.6637L94.0252 39.4838C92.5071 40.9013 90.8389 42.1486 89.0503 43.2038C88.2727 43.6565 87.4662 44.0577 86.6361 44.4047C85.9794 44.6798 85.3048 44.9098 84.6168 45.093C84.135 45.2258 83.6467 45.3334 83.1536 45.4152C82.7229 45.4874 82.2879 45.5314 81.8514 45.547H80.7686L26.6302 42.7937C26.2791 42.7937 25.9425 42.7937 25.5914 42.7937C25.1354 42.8086 24.6809 42.8526 24.2306 42.9255C23.6924 43.0041 23.1597 43.1166 22.6357 43.2623C21.9288 43.4579 21.2349 43.6976 20.558 43.98C19.6937 44.3415 18.8532 44.7573 18.0413 45.2248C16.1794 46.3317 14.447 47.6432 12.8762 49.1351L11.969 49.9846C11.2813 50.6729 10.6082 51.3759 9.9644 52.1228C9.32059 52.8697 8.98405 53.2944 8.5012 53.8949C8.01834 54.4953 7.68181 54.964 7.30137 55.5205C6.92094 56.077 6.59904 56.531 6.27713 57.0583C5.95523 57.5855 5.64796 58.0541 5.35532 58.5228C5.06268 58.9915 4.78467 59.5187 4.5213 59.9873C4.25792 60.456 3.99454 60.9979 3.7458 61.4519C3.49706 61.9059 3.26294 62.4917 3.02883 63.0189C2.79472 63.5462 2.57524 64.1173 2.35576 64.6592C2.2826 64.8496 2.22407 65.0253 2.15091 65.2011C2.00459 65.6112 1.85827 66.0212 1.72658 66.4167C1.52174 67.0464 1.33152 67.6615 1.15594 68.2913C0.980352 68.921 0.790136 69.7558 0.643816 70.3563C0.497496 70.9567 0.321912 72.0551 0.204856 72.8899C-0.268518 75.9367 -0.0737967 79.0501 0.775504 82.014C1.43092 84.5526 3.03321 86.7433 5.2529 88.1357L59.7717 119.799C57.5527 118.403 55.9469 116.214 55.2797 113.677C54.4735 110.766 54.289 107.717 54.7383 104.729C54.8407 103.909 54.987 103.059 55.1773 102.195C55.3675 101.331 55.4845 100.819 55.6894 100.13C55.8942 99.442 56.0406 98.8854 56.26 98.2557C56.3917 97.8602 56.5234 97.4502 56.6844 97.0401C56.6844 96.8644 56.8161 96.6886 56.8892 96.4982C57.0941 95.9564 57.3135 95.3998 57.5623 94.8579C57.811 94.3161 58.0159 93.8035 58.2793 93.2909C58.5426 92.7783 58.7767 92.2657 59.0401 91.8264C59.3035 91.387 59.5961 90.8158 59.8741 90.3618L60.796 88.8973C61.1325 88.3701 61.469 87.8575 61.8348 87.4328C62.2006 87.008 62.6103 86.3344 63.02 85.8071C63.4297 85.2799 63.9857 84.6062 64.4832 84.035C64.9807 83.4639 65.8001 82.5705 66.4878 81.8968L67.3803 81.0474C68.9547 79.5765 70.6869 78.2847 72.5454 77.1956C73.3524 76.7282 74.1881 76.3125 75.0475 75.9508C75.7294 75.6682 76.4282 75.4285 77.1399 75.2332C77.6813 75.0867 78.208 74.9842 78.7348 74.8963C79.1851 74.8234 79.6396 74.7794 80.0956 74.7645H81.1198L135.258 77.5178H136.268C136.699 77.4335 137.124 77.321 137.541 77.181C138.035 77.1056 138.524 76.998 139.004 76.8588C139.735 76.6716 140.454 76.4368 141.155 76.1558C141.984 75.8059 142.79 75.4048 143.569 74.9549C145.358 73.8998 147.026 72.6524 148.544 71.235L149.407 70.4148C150.08 69.7558 150.724 69.0675 151.339 68.3645C151.953 67.6615 152.29 67.2368 152.802 66.651C153.314 66.0652 153.577 65.6258 153.958 65.0986L154.953 63.634C155.245 63.1654 155.553 62.6674 155.831 62.1695C156.109 61.6716 156.387 61.2029 156.636 60.705C156.884 60.207 157.148 59.7384 157.382 59.2404C157.616 58.7425 157.85 58.2445 158.069 57.7759C158.289 57.3072 158.508 56.7214 158.713 56.1942L158.918 55.667C159.064 55.2715 159.196 54.8761 159.328 54.4807C159.46 54.0853 159.708 53.2798 159.884 52.694C160.059 52.1081 160.235 51.3466 160.367 50.6875C160.498 50.0285 160.689 49.0473 160.791 48.2418C161.224 45.3336 161.024 42.3662 160.206 39.5424Z" fill="url(#paint0_linear_3125_643)"/>
<path d="M112.388 8.61142C105.058 4.39355 105.058 4.39355 104.911 4.39355C105.325 4.89676 105.819 5.32739 106.375 5.6677C113.691 9.91486 113.691 9.91486 113.866 9.9295C113.72 9.50479 112.403 8.68465 112.403 8.67L112.388 8.61142Z" fill="#969696"/>
<path d="M126.816 17.0031C115.988 10.7056 115.988 10.7056 115.827 10.6763C115.827 10.9545 116.939 11.7747 117.29 11.9944C128.103 18.2919 128.103 18.2919 128.279 18.3065V18.2186C127.858 17.739 127.364 17.3288 126.816 17.0031Z" fill="#969696"/>
<path d="M139.223 26.2007C122.411 16.4176 122.411 16.4176 122.587 17.062C122.81 17.6676 123.227 18.1824 123.772 18.5266C140.555 28.2657 140.555 28.2657 140.467 27.6653C140.245 27.0414 139.803 26.5204 139.223 26.2007Z" fill="#969696"/>
<path d="M119.982 15.0117C106.667 7.32283 106.667 7.32283 106.814 7.90865C107.047 8.50795 107.462 9.01971 107.999 9.37318C121.446 17.1352 121.446 17.1352 121.226 16.403C120.978 15.818 120.547 15.3297 119.997 15.0117H119.982Z" fill="#969696"/>
<path d="M147.256 30.8726C145.53 29.8621 143.876 28.7344 142.077 27.8557C141.462 27.5628 141.535 27.9728 141.579 28.1046C141.802 28.7102 142.219 29.225 142.764 29.5692C144.491 30.5797 146.13 31.722 147.944 32.5861C148.398 32.8058 148.559 32.5861 148.471 32.2786C148.232 31.6959 147.805 31.2109 147.256 30.9019V30.8726Z" fill="#969696"/>
<path d="M151.734 31.5021C133.283 20.7671 133.283 20.7671 133.151 20.6938V20.811C133.577 21.2777 134.07 21.6776 134.614 21.9973C153.197 32.8056 153.197 32.8056 153.373 32.7763C153.226 32.3369 152.07 31.6339 151.909 31.5021H151.734Z" fill="#969696"/>
<path d="M128.659 27.9875C122.002 24.1064 115.578 19.8153 108.672 16.3444C107.867 15.949 107.545 16.7545 107.735 17.5014C107.777 17.7073 107.859 17.9029 107.977 18.0765C108.095 18.2501 108.247 18.3982 108.423 18.5119C115.081 22.3929 121.504 26.6987 128.425 30.2282C129.186 30.609 129.625 29.8767 129.391 29.0712C129.281 28.6549 129.02 28.2946 128.659 28.0607V27.9875Z" fill="#969696"/>
<path d="M146.203 38.1803C143.496 36.6133 143.496 36.6133 143.394 36.6133C142.911 36.6133 142.633 37.1552 142.808 37.8728C142.898 38.2899 143.144 38.6568 143.496 38.898C146.203 40.465 146.203 40.465 146.422 40.4797C146.876 40.4797 147.242 39.9817 147.037 39.2055C146.921 38.7922 146.662 38.4338 146.305 38.195L146.203 38.1803Z" fill="#969696"/>
<path d="M158.918 45.5764L149.481 40.0844H149.393C148.69 39.7915 148.354 40.4945 148.544 41.2854C148.637 41.6971 148.883 42.0582 149.232 42.2959L158.669 47.7879H158.757C159.416 48.0662 159.869 47.4364 159.635 46.587C159.527 46.1742 159.272 45.815 158.918 45.5764Z" fill="#969696"/>
<path d="M116.588 28.8223C107.487 23.5207 107.487 23.5207 107.37 23.4914C106.697 23.257 105.906 24.1797 106.243 25.2049C106.274 25.3499 106.333 25.487 106.419 25.608C106.505 25.7289 106.614 25.8309 106.74 25.9078C115.827 31.1948 115.827 31.1948 115.959 31.2388C116.646 31.4877 117.422 30.5504 117.1 29.5253C117.027 29.2332 116.843 28.981 116.588 28.8223Z" fill="#969696"/>
<path d="M155.333 51.3611C153.738 50.3414 152.092 49.4029 150.402 48.5492C149.715 48.4321 149.129 49.3987 149.363 50.292C149.431 50.5824 149.61 50.8347 149.861 50.995C151.454 52.0262 153.106 52.965 154.806 53.8069C155.465 53.9241 156.138 53.0307 155.845 52.0641C155.773 51.772 155.589 51.5199 155.333 51.3611Z" fill="#969696"/>
<path d="M113.647 39.8355L102.673 33.4501H102.585C102.368 33.425 102.149 33.4489 101.942 33.5198C101.736 33.5907 101.548 33.707 101.392 33.86C101.236 34.0131 101.117 34.199 101.042 34.4043C100.968 34.6096 100.94 34.829 100.961 35.0464C101.022 35.2417 101.152 35.4081 101.327 35.5151L112.301 41.9005H112.403C112.621 41.9597 112.849 41.9645 113.069 41.9145C113.289 41.8645 113.493 41.7612 113.664 41.6136C113.834 41.466 113.966 41.2788 114.047 41.0683C114.128 40.8579 114.157 40.6306 114.13 40.4066C114.105 40.288 114.056 40.1759 113.985 40.0775C113.915 39.9791 113.824 39.8966 113.72 39.8355H113.647Z" fill="#969696"/>
<path d="M149.758 60.837L144.301 57.6736L139.194 54.7445H139.092C138.865 54.7077 138.633 54.7248 138.414 54.7944C138.195 54.8641 137.996 54.9844 137.832 55.1455C137.668 55.3066 137.544 55.5041 137.471 55.722C137.397 55.9398 137.376 56.1719 137.409 56.3994C137.47 56.5912 137.601 56.7532 137.775 56.8534L148.339 63.0045H148.442C148.656 63.0632 148.881 63.0686 149.098 63.0201C149.315 62.9716 149.516 62.8707 149.685 62.7263C149.854 62.5818 149.985 62.3982 150.067 62.1914C150.148 61.9846 150.178 61.7609 150.154 61.54C150.132 61.4223 150.085 61.3105 150.017 61.2121C149.949 61.1137 149.861 61.0308 149.758 60.9688V60.837Z" fill="#969696"/>
<path d="M105.848 40.2453C99.9951 36.8769 99.9951 36.8769 99.9951 36.8623C98.9854 36.6133 98.0051 37.6092 98.2392 38.3268C98.2644 38.4203 98.3085 38.5076 98.369 38.5832C98.4294 38.6588 98.5048 38.7211 98.5904 38.7662C104.443 42.1492 104.443 42.1492 104.575 42.1932C105.394 42.3982 106.506 41.5341 106.228 40.7286C106.166 40.5417 106.042 40.3815 105.877 40.2746L105.848 40.2453Z" fill="#969696"/>
<path d="M147.242 64.3225C145.623 63.2918 143.947 62.353 142.223 61.5106C141.345 61.3348 140.335 62.2575 140.57 62.9751C140.625 63.1618 140.751 63.3194 140.921 63.4145C142.537 64.4855 144.212 65.4634 145.94 66.3435C146.861 66.5339 147.842 65.6406 147.593 64.879C147.531 64.692 147.407 64.5319 147.242 64.425V64.3225Z" fill="#969696"/>
<path d="M139.867 60.0461C137.974 58.84 136.02 57.7304 134.015 56.7216C133.239 56.5312 132.127 57.41 132.361 58.1862C132.422 58.3701 132.546 58.5261 132.712 58.6255C138.36 61.9061 138.36 61.9061 138.565 61.95C139.399 62.1551 140.496 61.3056 140.233 60.4855C140.205 60.3895 140.158 60.3 140.095 60.222C140.033 60.1441 139.955 60.0794 139.867 60.0315V60.0461Z" fill="#969696"/>
<path d="M138.521 72.0406C137.431 71.3046 136.281 70.6628 135.083 70.122C134.292 69.9316 133.254 70.2392 133.356 70.7811C133.383 70.87 133.428 70.9523 133.489 71.0229C133.549 71.0934 133.624 71.1507 133.707 71.1911C134.817 72.0016 136.015 72.6844 137.277 73.2268C138.082 73.4172 139.048 73.0657 138.872 72.4946C138.804 72.3298 138.68 72.1947 138.521 72.1138V72.0406Z" fill="#969696"/>
<path d="M131.161 67.7496C127.459 65.6114 127.459 65.6114 127.298 65.5674C126.333 65.3038 125.382 65.7139 125.469 66.1972C125.469 66.4169 125.718 66.5487 125.821 66.6219C127.102 67.4292 128.426 68.1674 129.786 68.8334C130.722 69.0823 131.688 68.6723 131.498 68.1157C131.426 67.9584 131.308 67.8259 131.161 67.735V67.7496Z" fill="#969696"/>
<path d="M135.448 73.4906C130.737 70.7519 126.201 67.6324 121.314 65.2745C120.495 64.8645 119.207 64.9963 119.309 65.4796C119.309 65.6553 119.573 65.8018 119.675 65.8603C124.387 68.599 128.923 71.7185 133.81 74.0764C134.717 74.5304 135.917 74.4132 135.814 73.9006C135.785 73.8104 135.738 73.7272 135.675 73.6566C135.612 73.5859 135.535 73.5293 135.448 73.4906Z" fill="#969696"/>
<path d="M97.1272 44.39C94.0838 42.6179 94.0838 42.6179 93.8643 42.5886C92.8547 42.4275 91.9914 43.0573 92.1524 43.5991C92.2167 43.7662 92.3423 43.9024 92.5035 43.9799C95.5762 45.7813 95.5762 45.7813 95.8835 45.8252C96.7761 45.9717 97.654 45.4005 97.4784 44.8001C97.4192 44.6228 97.2932 44.4757 97.1272 44.39Z" fill="#969696"/>
<path d="M102.98 52.0934L90.7183 44.9611H90.6305C89.7234 44.5511 88.3918 44.9611 88.6113 45.503C88.6792 45.6558 88.7982 45.7802 88.9479 45.8545L101.224 52.9868H101.312C102.351 53.4701 103.536 52.9868 103.331 52.4596C103.263 52.3032 103.145 52.1743 102.995 52.0934H102.98Z" fill="#969696"/>
<path d="M89.3723 49.1353C85.2461 46.7334 85.2461 46.7334 85.0851 46.6602C84.2657 46.3234 83.2269 46.2941 83.3439 46.6602C83.461 47.0263 83.6219 46.9385 83.7097 46.9971C87.8798 49.4135 87.8798 49.4135 88.0993 49.5161C88.9626 49.8822 89.8405 49.8968 89.7235 49.5161C89.7235 49.4135 89.5625 49.2964 89.3577 49.1646L89.3723 49.1353Z" fill="#969696"/>
<path d="M105.716 58.5814C101.766 56.282 97.932 53.763 93.8643 51.698C93.0449 51.2733 91.7866 51.1854 91.9183 51.5516C91.9183 51.6834 92.1963 51.8298 92.2841 51.8884C96.2347 54.1731 100.068 56.6775 104.136 58.7717C105.102 59.2697 106.097 59.3136 106.082 58.9768C106.082 58.9036 106.082 58.7571 105.716 58.5814Z" fill="#969696"/>
<path d="M117.349 17.8089C116.877 17.508 116.388 17.2342 115.885 16.9888C115.622 16.9888 115.564 17.1792 115.637 17.4428C115.702 17.6832 115.853 17.8914 116.061 18.0286C116.533 18.3287 117.022 18.6025 117.524 18.8487C117.758 18.8487 117.861 18.7023 117.773 18.3947C117.7 18.1538 117.545 17.9464 117.334 17.8089H117.349Z" fill="#969696"/>
<path d="M122.909 21.0308L119.982 19.3758C119.763 19.288 119.587 19.3758 119.69 19.8152C119.763 20.0561 119.918 20.2635 120.129 20.401C122.923 22.0413 122.923 22.0413 123.055 22.0559C123.187 22.0706 123.45 21.9681 123.348 21.6166C123.269 21.3789 123.115 21.1733 122.909 21.0308ZM128.425 24.2381L125.586 22.5978C125.367 22.5099 125.191 22.671 125.294 23.0225C125.356 23.2726 125.513 23.4883 125.733 23.623L128.659 25.2779C128.879 25.3658 129.054 25.19 128.952 24.8239C128.872 24.5825 128.712 24.3758 128.498 24.2381H128.425ZM133.971 27.4601C131.161 25.8198 131.161 25.8198 131.044 25.8052C130.927 25.7905 130.664 25.8784 130.766 26.2445C130.841 26.4881 130.996 26.6995 131.205 26.845C134 28.4706 134 28.4706 134.132 28.4853C134.263 28.4999 134.527 28.3974 134.424 28.0459C134.345 27.8082 134.191 27.6026 133.985 27.4601H133.971ZM139.487 30.6674C136.692 29.0418 136.692 29.0418 136.56 29.0271C136.429 29.0125 136.18 29.1004 136.282 29.4665C136.348 29.7069 136.499 29.9151 136.707 30.0523L139.633 31.7072C139.867 31.7951 140.043 31.6194 139.94 31.2679C139.861 31.0222 139.701 30.8105 139.487 30.6674ZM145.018 33.8894L142.091 32.2345C141.872 32.1612 141.696 32.2345 141.799 32.6738C141.876 32.9164 142.03 33.1272 142.238 33.2743L145.164 34.9292C145.398 34.9292 145.574 34.8267 145.471 34.4752C145.391 34.2338 145.231 34.0271 145.018 33.8894Z" fill="#969696"/>
<path d="M149.071 36.262C148.599 35.9611 148.11 35.6873 147.608 35.4419C147.359 35.4419 147.3 35.6323 147.373 35.8959C147.441 36.1394 147.591 36.3518 147.798 36.4964C148.27 36.7973 148.758 37.0711 149.261 37.3165C149.524 37.3165 149.598 37.1115 149.524 36.8625C149.45 36.6145 149.289 36.4015 149.071 36.262Z" fill="#969696"/>
<path d="M136.473 45.4005L124.372 38.4146H124.284C123.392 38.0778 122.602 39.2494 122.821 40.1574C122.884 40.399 123.035 40.6081 123.245 40.7432L135.346 47.7877H135.434C136.268 48.1099 137.131 47.1579 136.897 46.162C136.867 46.0188 136.808 45.883 136.725 45.7624C136.643 45.6418 136.537 45.5387 136.414 45.4591L136.473 45.4005Z" fill="#969696"/>
<path d="M151.792 32.542L97.2736 0.834786L97.5808 0L152.085 31.7072L151.792 32.542Z" fill="#B9C1C4"/>
<path d="M101.839 1.20092H101.736C101.444 1.03982 101.151 0.893367 100.844 0.761559C100.536 0.629751 100.215 0.527233 99.8927 0.439361C99.5636 0.317621 99.2262 0.219733 98.8831 0.146454C98.5169 0.0679173 98.145 0.018942 97.771 0L97.5808 0L152.173 31.7072H152.363C152.732 31.7214 153.099 31.7654 153.46 31.839C153.807 31.8946 154.149 31.9729 154.485 32.0733C154.803 32.163 155.115 32.2706 155.421 32.3955C155.728 32.5274 156.036 32.6738 156.328 32.8349H156.416L101.839 1.20092Z" fill="url(#paint1_linear_3125_643)"/>
<path d="M123.611 73.8711L120.597 72.1283C120.09 71.8412 119.534 71.6524 118.958 71.5718C118.519 71.5718 118.578 71.7622 119.061 72.0404L122.075 73.7979C122.58 74.0853 123.137 74.2694 123.714 74.3398C124.138 74.3398 124.094 74.1494 123.611 73.8711Z" fill="#969696"/>
<path d="M116.31 69.624L112.798 67.5736C112.304 67.2974 111.763 67.1138 111.203 67.0317C110.779 67.0317 110.823 67.2221 111.306 67.5004L114.817 69.5507C115.326 69.8422 115.888 70.0266 116.471 70.0926C116.895 70.0926 116.836 69.9022 116.368 69.624H116.31Z" fill="#969696"/>
<path d="M120.934 73.7394L107.004 65.6405C106.495 65.3462 105.933 65.1569 105.35 65.084C104.926 65.084 104.955 65.2744 105.438 65.5526L119.397 73.6662C119.902 73.9536 120.459 74.1377 121.036 74.208C121.46 74.208 121.416 74.0177 120.934 73.7394Z" fill="#969696"/>
<path d="M82.2026 48.4761L79.364 46.8651C78.8589 46.5777 78.3019 46.3935 77.7252 46.3232C77.2862 46.3232 77.3448 46.5136 77.8276 46.7919L80.6662 48.4468C81.1732 48.7298 81.7294 48.9137 82.305 48.9887C82.7293 48.9887 82.6854 48.7983 82.2026 48.52V48.4761Z" fill="#969696"/>
<path d="M88.4358 53.7045L76.262 46.6307C75.7549 46.3452 75.1992 46.1565 74.6232 46.0742C74.1989 46.0742 74.2428 46.2646 74.7256 46.5429L86.8995 53.6312C87.409 53.9205 87.9711 54.1047 88.5529 54.1731C88.9772 54.1731 88.9333 53.9827 88.4505 53.7045H88.4358Z" fill="#969696"/>
<path d="M75.5011 48.681L71.5504 46.3817C71.0409 46.0925 70.4788 45.9082 69.897 45.8398C69.4727 45.8398 69.5166 46.0302 69.9995 46.3085L73.9647 48.6078C74.4711 48.8949 75.0271 49.0837 75.6035 49.1643C76.0278 49.1643 75.9839 48.974 75.5011 48.681Z" fill="#969696"/>
<path d="M91.7133 58.1127L80.0077 51.3319C79.5027 51.0445 78.9456 50.8603 78.3689 50.79C77.93 50.79 77.9885 50.9804 78.4567 51.2587L90.1623 58.0395C90.6718 58.3287 91.234 58.513 91.8157 58.5814C92.2401 58.5814 92.1962 58.391 91.7133 58.1127Z" fill="#969696"/>
<path d="M77.2862 51.2586L68.7704 46.2499C68.262 45.9555 67.6998 45.7663 67.117 45.6934C66.6927 45.6934 66.7366 45.8837 67.2194 46.162L75.7206 51.1121C76.2322 51.3994 76.793 51.5881 77.374 51.6687C77.7984 51.6687 77.7545 51.4783 77.2716 51.2L77.2862 51.2586Z" fill="#969696"/>
<path d="M90.7916 59.0501L82.1148 53.9974C81.6097 53.7101 81.0527 53.5259 80.476 53.4556C80.0517 53.4556 80.0956 53.646 80.5784 53.9242L90.9525 59.9581L89.2552 58.9769C88.7723 58.684 88.7138 58.4789 89.1528 58.5082C89.7295 58.5785 90.2865 58.7627 90.7916 59.0501Z" fill="#969696"/>
<path d="M115.593 73.4612L90.7916 59.0502C90.2812 58.7883 89.7244 58.6291 89.1528 58.5815C88.7139 58.5815 88.7724 58.7573 89.2552 59.0502L90.9379 60.0314L114.042 73.4612C114.547 73.7486 115.104 73.9328 115.681 74.0031C116.105 74.0031 116.061 73.8274 115.578 73.5345L115.593 73.4612Z" fill="#969696"/>
<path d="M74.5208 51.0535L66.0196 46.1034C65.5155 45.8138 64.958 45.6295 64.3808 45.5615C63.9565 45.5615 64.0004 45.7519 64.4832 46.0302L72.999 50.9803C73.5041 51.2677 74.0611 51.4519 74.6378 51.5222C75.0768 51.5222 75.0329 51.3318 74.5354 51.0535H74.5208Z" fill="#969696"/>
<path d="M85.9923 57.7176L77.5496 52.7235C77.0401 52.4343 76.4779 52.25 75.8962 52.1816C75.4718 52.1816 75.5157 52.372 75.9986 52.6503L84.4998 57.6004C85.0093 57.8897 85.5715 58.0739 86.1532 58.1423C86.5775 58.1423 86.5336 57.9519 86.0508 57.6737L85.9923 57.7176Z" fill="#969696"/>
<path d="M75.0915 53.0306L62.9176 45.9423C62.4091 45.6508 61.8465 45.4664 61.2642 45.4004C60.8399 45.4004 60.8838 45.5908 61.3666 45.869L73.5405 52.9428C74.0489 53.2371 74.6111 53.4263 75.1939 53.4993C75.6182 53.4993 75.5743 53.3089 75.0915 53.0306Z" fill="#969696"/>
<path d="M107.428 73.227L100.112 68.9506C99.6007 68.6655 99.0394 68.4816 98.4587 68.4087C98.0343 68.4087 98.0782 68.5991 98.5611 68.8773L105.877 73.1391C106.389 73.4264 106.949 73.6151 107.531 73.6957C107.955 73.6957 107.911 73.5053 107.428 73.227Z" fill="#969696"/>
<path d="M62.0836 48.3299L57.6062 45.723C57.0946 45.4358 56.5338 45.247 55.9528 45.1665C55.5285 45.1665 55.5724 45.3569 56.0552 45.6352L60.5326 48.242C61.041 48.5364 61.6033 48.7256 62.186 48.7986C62.6104 48.7986 62.5665 48.6082 62.0836 48.3299Z" fill="#969696"/>
<path d="M65.844 52.1816L54.3725 45.5033C53.8476 45.2132 53.2709 45.0291 52.6752 44.9614C52.2508 44.9614 52.2801 45.1518 52.7629 45.4301L64.2344 52.0937C64.724 52.4083 65.2711 52.6224 65.844 52.7235C66.2829 52.7235 66.239 52.5331 65.7562 52.2548L65.844 52.1816Z" fill="#969696"/>
<path d="M101.444 72.919L95.0202 69.1698C94.5107 68.8806 93.9485 68.6963 93.3668 68.6279C92.9424 68.6279 92.9863 68.8183 93.4692 69.0966L99.9073 72.8458C100.412 73.1332 100.969 73.3174 101.546 73.3877C101.985 73.3877 101.926 73.1973 101.444 72.919Z" fill="#969696"/>
<path d="M77.5496 60.6023L72.3553 57.556C71.8502 57.2686 71.2932 57.0845 70.7165 57.0142C70.2922 57.0142 70.3361 57.2045 70.8189 57.4828L76.0864 60.529C76.5915 60.8164 77.1485 61.0006 77.7252 61.0709C78.1495 61.0709 78.1056 60.8805 77.6228 60.6023H77.5496Z" fill="#969696"/>
<path d="M104.399 72.9048L93.6448 66.6073C93.1384 66.3202 92.5824 66.1314 92.006 66.0508C91.5817 66.0508 91.6256 66.2412 92.1085 66.5194L102.921 72.8169C103.433 73.1042 103.994 73.2929 104.575 73.3735C104.999 73.3735 104.955 73.1831 104.472 72.9048H104.399Z" fill="#969696"/>
<path d="M52.8362 49.0913L45.9591 45.0785C45.4469 44.7954 44.886 44.6116 44.3057 44.5366C43.8814 44.5366 43.9253 44.727 44.4081 45.0053L51.2852 49.0035C51.7936 49.2978 52.3558 49.4871 52.9386 49.56C53.3629 49.56 53.319 49.3696 52.8362 49.0913Z" fill="#969696"/>
<path d="M92.7522 72.3043L82.3196 66.2411C81.8089 65.9519 81.2477 65.763 80.6662 65.6846C80.2419 65.6846 80.2858 65.875 80.7686 66.1532L91.2012 72.2311C91.7107 72.5203 92.2729 72.7045 92.8546 72.7729C93.279 72.7729 93.2351 72.5825 92.7522 72.3043Z" fill="#969696"/>
<path d="M46.7053 47.451L42.3157 44.9027C41.8093 44.6156 41.2533 44.4268 40.677 44.3462C40.238 44.3462 40.2819 44.5366 40.7648 44.8148L45.1544 47.3778C45.6657 47.6628 46.227 47.8468 46.8078 47.9197C47.2321 47.9197 47.1882 47.7293 46.7053 47.451Z" fill="#969696"/>
<path d="M89.1089 72.1284L82.1733 68.0863C81.6505 67.7915 81.0728 67.607 80.476 67.5444C80.0517 67.5444 80.0956 67.7202 80.5784 68.0131L87.514 72.0406C88.0191 72.328 88.5761 72.5121 89.1528 72.5824C89.5917 72.5824 89.5332 72.4067 89.0504 72.1284H89.1089Z" fill="#969696"/>
<path d="M47.4516 49.7942L38.6724 44.683C38.1674 44.3956 37.6103 44.2114 37.0336 44.1411C36.6093 44.1411 36.6532 44.3315 37.136 44.6098L45.9152 49.7064C46.4268 49.9936 46.9876 50.1823 47.5687 50.2629C47.993 50.2629 47.9491 50.0725 47.4662 49.7942H47.4516Z" fill="#969696"/>
<path d="M54.8992 54.1878L50.1438 51.4198C49.6325 51.1348 49.0712 50.9508 48.4904 50.8779C48.0661 50.8779 48.11 51.0683 48.5928 51.3466L53.3629 54.1146C53.8679 54.4019 54.4249 54.5861 55.0017 54.6564C55.426 54.6564 55.3821 54.4807 54.8992 54.1878Z" fill="#969696"/>
<path d="M36.697 47.2898L31.6636 44.3607C31.152 44.0735 30.5912 43.8847 30.0102 43.8042C29.5859 43.8042 29.6298 43.9946 30.1126 44.2729L35.1607 47.2019C35.6668 47.4869 36.2233 47.6709 36.7994 47.7438C37.2238 47.7438 37.1799 47.5534 36.697 47.2751V47.2898Z" fill="#969696"/>
<path d="M54.0506 57.3804L39.1405 48.7103C38.6355 48.4229 38.0785 48.2388 37.5018 48.1685C37.0774 48.1685 37.1213 48.3588 37.6042 48.6371L52.4996 57.3072C53.0046 57.5946 53.5616 57.7787 54.1383 57.849C54.5627 57.849 54.5188 57.6587 54.0359 57.3804H54.0506Z" fill="#969696"/>
<path d="M62.4055 62.2429L56.9478 59.0648C56.4384 58.7979 55.8816 58.6337 55.309 58.5815C54.8847 58.5815 54.9286 58.7719 55.4114 59.0502L60.8545 62.2282C61.3667 62.5113 61.9277 62.6951 62.508 62.7701C62.9323 62.7701 62.8884 62.5797 62.4055 62.3015V62.2429Z" fill="#969696"/>
<path d="M78.4568 71.5867L66.0196 64.3519C65.5192 64.0517 64.9605 63.862 64.3808 63.7954C63.9565 63.7954 64.0004 63.9858 64.4979 64.2641L76.9351 71.4989C77.4402 71.7863 77.9972 71.9704 78.5739 72.0407C78.9982 72.0407 78.9543 71.865 78.4715 71.5867H78.4568Z" fill="#969696"/>
<path d="M24.2744 50.1602C19.7678 47.5386 19.7678 47.5386 19.6215 47.4947C18.5826 47.2164 17.6754 47.8315 17.851 48.432C17.9099 48.6013 18.03 48.7423 18.1875 48.8274C22.6942 51.4489 22.6942 51.4489 22.8551 51.4929C23.7331 51.7272 24.8158 51.1414 24.6256 50.5263C24.5528 50.3683 24.4292 50.2394 24.2744 50.1602Z" fill="#969696"/>
<path d="M66.4439 74.6912C59.4498 70.6198 59.4498 70.6198 59.3474 70.5905C58.3377 70.2244 57.2842 70.8541 57.4745 71.4985C57.5379 71.6651 57.6568 71.8047 57.811 71.8939C64.8051 75.9507 64.8051 75.9507 64.9075 75.9946C65.8001 76.3022 66.9853 75.7164 66.7804 75.072C66.7173 74.9089 66.5979 74.7738 66.4439 74.6912Z" fill="#969696"/>
<path d="M24.5964 55.8428C15.7148 50.673 15.7148 50.673 15.4953 50.5998C14.8808 50.3801 13.6078 51.1417 13.8565 51.9765C13.9116 52.1552 14.0317 52.3068 14.193 52.4012C22.9722 57.5124 22.9722 57.5124 23.1039 57.5563C24.2013 57.9371 25.2256 56.6923 25.0061 56.1943C24.8996 56.0461 24.7591 55.9255 24.5964 55.8428Z" fill="#969696"/>
<path d="M32.0002 60.1483C30.3074 59.0456 28.5372 58.0666 26.7034 57.2192C26.44 57.2192 24.9768 57.7172 25.2402 58.6838C25.3007 58.8677 25.4253 59.0237 25.5914 59.1231C27.2142 60.1689 28.8947 61.1224 30.6248 61.979C31.7514 62.228 32.6001 61.027 32.4099 60.5877C32.2987 60.4437 32.1593 60.3241 32.0002 60.2362V60.1483Z" fill="#969696"/>
<path d="M14.0028 62.0229C8.86699 59.0938 8.86699 59.0938 8.70603 59.006C8.49638 58.9877 8.2854 59.0199 8.09077 59.1C7.89614 59.1802 7.72352 59.3058 7.58739 59.4664C7.45126 59.6271 7.35558 59.818 7.30836 60.0233C7.26114 60.2286 7.26376 60.4422 7.316 60.6462C7.38231 60.8824 7.53341 61.0858 7.74032 61.2174C9.44514 62.3181 11.2085 63.3252 13.0225 64.2344C13.2296 64.2421 13.4357 64.2019 13.6247 64.1169C13.8137 64.0319 13.9806 63.9043 14.1123 63.7441C14.244 63.584 14.3369 63.3955 14.3839 63.1935C14.4309 62.9915 14.4307 62.7813 14.3832 62.5794C14.3289 62.3495 14.1872 62.1499 13.9882 62.0229H14.0028Z" fill="#969696"/>
<path d="M31.2394 72.0553L16.4318 63.4439H16.344C15.4953 63.0777 14.515 64.0736 14.7784 65.0256C14.8357 65.2619 14.9826 65.4668 15.1881 65.5967L30.0103 74.2082H30.0981C30.9028 74.5597 31.8832 73.5345 31.6491 72.6119C31.6219 72.4962 31.5716 72.3872 31.5012 72.2916C31.4308 72.1959 31.3417 72.1156 31.2394 72.0553Z" fill="#969696"/>
<path d="M19.4752 72.1284L6.17474 64.4396H6.08695C5.29682 64.1174 4.50669 65.084 4.75544 66.0653C4.78359 66.2073 4.84108 66.3419 4.92423 66.4605C5.00738 66.579 5.11435 66.6789 5.23829 66.7536L18.5388 74.501H18.6266C19.3728 74.8085 20.0898 73.842 19.9434 72.8754C19.9154 72.7351 19.8595 72.6019 19.779 72.4837C19.6986 72.3655 19.5953 72.2646 19.4752 72.187V72.1284Z" fill="#969696"/>
<path d="M12.1446 74.4131C4.12626 69.7559 4.12626 69.7558 4.0092 69.7119C3.38003 69.4922 2.75085 70.2684 3.04349 71.1764C3.13328 71.5039 3.34202 71.7859 3.62877 71.9673C11.7056 76.6831 11.7056 76.6831 11.7056 76.727C12.3055 76.9321 12.9055 76.1705 12.6421 75.2625C12.5749 74.933 12.3803 74.6435 12.1007 74.457L12.1446 74.4131Z" fill="#969696"/>
<path d="M21.948 88.985C20.9187 88.3134 19.8485 87.7069 18.7436 87.169C18.3339 87.0665 18.012 87.4179 18.2022 88.0623C18.342 88.5471 18.6543 88.9639 19.0801 89.234L22.0065 90.9475C22.0065 89.9662 21.9334 89.8344 21.9334 88.985H21.948ZM25.8986 91.2697L23.6892 89.9955C23.6892 90.9914 23.6892 91.1379 23.7624 91.958L25.9572 93.2321C25.9572 92.2509 25.9572 92.1191 25.9572 91.2697H25.8986ZM29.8346 93.569L27.552 92.2656C27.552 93.2468 27.552 93.4079 27.6252 94.2134L29.8346 95.5022C29.7764 94.8497 29.7519 94.1947 29.7615 93.5397L29.8346 93.569ZM34.5169 96.293L31.5905 94.5795C31.5506 95.2331 31.5506 95.8884 31.5905 96.542C32.6198 97.2136 33.69 97.8201 34.7949 98.358C35.2338 98.4752 35.4533 98.0944 35.307 97.4793C35.1718 96.9965 34.8714 96.5766 34.4583 96.293H34.5169Z" fill="#969696"/>
<path d="M22.2846 93.2765L19.168 91.4751C18.7729 91.3286 18.568 91.4751 18.6705 91.9291C18.8789 92.4952 19.2771 92.9714 19.7971 93.2765L22.7235 94.99C22.4748 94.1406 22.4309 94.0234 22.2699 93.2765H22.2846ZM26.2206 95.5758L24.0258 94.287C24.1463 94.8659 24.2977 95.4379 24.4794 96.0005L26.6888 97.2893C26.4254 96.4252 26.3962 96.3227 26.2206 95.5758ZM30.1712 97.8605L27.9618 96.6596C28.0796 97.2405 28.2361 97.8129 28.43 98.3731L30.6248 99.6472C30.4385 99.0859 30.287 98.5137 30.1712 97.9337V97.8605ZM34.8535 100.585L31.9271 98.871C32.0518 99.4503 32.2081 100.022 32.3953 100.585L35.5119 102.386C35.9801 102.562 36.0533 102.283 35.9655 101.976C35.7677 101.405 35.387 100.916 34.8827 100.585H34.8535Z" fill="#969696"/>
<path d="M23.5576 96.9378L20.4849 95.195C20.2946 95.1072 20.0313 95.0632 20.0752 95.2829C20.3984 95.8485 20.8753 96.3107 21.4506 96.6156L24.377 98.3292C24.1721 98.007 23.8795 97.5969 23.7039 97.2747C23.6719 97.1814 23.6276 97.0927 23.5722 97.0111L23.5576 96.9378ZM27.4936 99.2225L25.2988 97.9484C25.5361 98.4059 25.805 98.8464 26.1035 99.2665L28.2983 100.541C28.0935 100.233 27.8155 99.823 27.6399 99.4861C27.6003 99.3935 27.5513 99.3051 27.4936 99.2225ZM31.4296 101.522L29.2641 100.233C29.498 100.693 29.767 101.133 30.0688 101.551L32.2636 102.84C32.0588 102.518 31.7808 102.108 31.6052 101.771C31.5647 101.683 31.5157 101.6 31.4589 101.522H31.4296ZM36.1265 104.246L33.2001 102.532C33.4394 102.989 33.7082 103.429 34.0048 103.85C35.0437 104.451 36.0533 105.11 37.1214 105.652C37.1214 105.652 37.5604 105.857 37.4872 105.652C37.176 105.085 36.7155 104.614 36.1557 104.29L36.1265 104.246Z" fill="#969696"/>
<path d="M23.1771 84.943C22.6796 84.694 22.2553 84.943 22.1383 85.5142C22.0029 86.6661 21.9394 87.8253 21.948 88.9851C21.948 89.981 21.948 90.1274 22.0212 90.9476C22.0923 91.7292 22.2046 92.5065 22.3577 93.2762C22.4783 93.8551 22.6297 94.4271 22.8113 94.9897C23.0354 95.6586 23.3093 96.3097 23.6307 96.9375C23.8646 97.397 24.1337 97.8377 24.4355 98.2556C25.3181 99.5622 26.5646 100.581 28.0203 101.185C27.9506 101.135 27.8773 101.091 27.8008 101.053C27.1594 100.533 26.5932 99.9269 26.1182 99.2515C25.8172 98.833 25.5482 98.3924 25.3134 97.9334C24.9914 97.3058 24.7175 96.6547 24.494 95.9856C24.2453 95.1362 24.2014 95.019 24.0404 94.2721C23.8876 93.5023 23.7752 92.725 23.7039 91.9435C23.7039 90.9622 23.6307 90.8304 23.6307 89.981C23.7894 88.6978 23.8822 87.4073 23.9087 86.1146C23.8904 85.8665 23.8164 85.6258 23.6923 85.4102C23.5681 85.1947 23.3971 85.01 23.1918 84.8698L23.1771 84.943Z" fill="#969696"/>
<path d="M27.1131 87.1836C26.6156 86.92 26.1912 87.1836 26.0888 87.7548C25.9192 88.9189 25.8312 90.0934 25.8254 91.2697C25.8254 92.2656 25.8254 92.4267 25.8254 93.2322C25.8974 94.0185 26.0098 94.8006 26.162 95.5754C26.2868 96.1547 26.4431 96.7267 26.6302 97.2889C26.8553 97.9505 27.1242 98.5963 27.435 99.2221C27.6723 99.6797 27.9412 100.12 28.2397 100.54C29.1165 101.852 30.3648 102.872 31.8246 103.469L31.6636 103.323C31.026 102.794 30.4603 102.183 29.9809 101.507C29.6799 101.088 29.4109 100.648 29.1762 100.189C28.8559 99.5673 28.5868 98.9207 28.3714 98.2555C28.2065 97.7311 28.0698 97.1982 27.9617 96.6592C27.8102 95.8843 27.6978 95.1022 27.6252 94.3159C27.6252 93.3347 27.552 93.2029 27.552 92.3681C27.7104 91.0608 27.7934 89.7454 27.8008 88.4285C27.7824 88.1804 27.7084 87.9396 27.5843 87.7241C27.4602 87.5086 27.2891 87.3239 27.0838 87.1836H27.1131Z" fill="#969696"/>
<path d="M31.0637 89.4832C30.9627 89.4178 30.8461 89.3806 30.7259 89.3756C30.6057 89.3706 30.4863 89.3979 30.3803 89.4547C30.2742 89.5115 30.1853 89.5958 30.1228 89.6987C30.0603 89.8016 30.0264 89.9193 30.0249 90.0397C29.8626 91.2095 29.7746 92.3884 29.7615 93.5693C29.7615 94.5652 29.7615 94.7116 29.8346 95.5318C29.9406 96.91 30.2057 98.2713 30.6248 99.5885C30.8496 100.255 31.1185 100.906 31.4295 101.536C31.6702 101.992 31.939 102.432 32.2343 102.854C33.124 104.16 34.3749 105.178 35.8338 105.784L35.6582 105.622C35.0205 105.099 34.4547 104.493 33.9755 103.821C33.6831 103.397 33.4144 102.957 33.1707 102.503C32.8543 101.875 32.5853 101.224 32.366 100.555C32.1026 99.7057 32.0733 99.5885 31.8977 98.8416C31.7446 98.0724 31.6371 97.2949 31.5758 96.513C31.542 95.8593 31.542 95.2042 31.5758 94.5505C31.7369 93.2678 31.8248 91.9769 31.8392 90.6841C31.8225 90.4393 31.7506 90.2015 31.629 89.9884C31.5074 89.7754 31.3391 89.5926 31.1369 89.4539L31.0637 89.4832Z" fill="#969696"/>
<path d="M39.5064 76.8882C33.9755 73.6809 33.9755 73.6809 33.7999 73.637C33.5917 73.6203 33.3826 73.654 33.1902 73.7352C32.9977 73.8164 32.8276 73.9427 32.6942 74.1036C32.5607 74.2644 32.4679 74.455 32.4235 74.6593C32.3792 74.8635 32.3845 75.0755 32.4392 75.2773C32.4965 75.5136 32.6434 75.7185 32.8488 75.8484C38.4236 79.085 38.4236 79.085 38.4968 79.085C38.7091 79.1085 38.9239 79.0811 39.1235 79.005C39.3231 78.929 39.5018 78.8065 39.6448 78.6477C39.7877 78.4888 39.8909 78.2982 39.9457 78.0916C40.0005 77.885 40.0054 77.6683 39.96 77.4594C39.9272 77.3383 39.87 77.2252 39.792 77.127C39.714 77.0288 39.6168 76.9476 39.5064 76.8882Z" fill="#969696"/>
<path d="M55.5137 86.1736L43.1497 78.9827H43.0473C42.1986 78.6312 41.2329 79.6124 41.4963 80.5644C41.5536 80.8008 41.7006 81.0056 41.906 81.1356L54.27 88.3264H54.3578C55.2357 88.6779 56.1283 87.5795 55.9088 86.7301C55.8545 86.5002 55.7128 86.3006 55.5137 86.1736Z" fill="#969696"/>
<path d="M26.718 82.8928L14.632 75.907H14.5442C13.8126 75.6141 13.2127 76.4635 13.4907 77.3715C13.5751 77.7016 13.7852 77.9854 14.076 78.1624L26.0889 85.1482H26.1767C26.9375 85.4558 27.435 84.5331 27.2155 83.6837C27.1363 83.3555 26.9382 83.0684 26.6595 82.8782L26.718 82.8928Z" fill="#969696"/>
<path d="M50.7145 96.8499L36.2728 88.4581H36.185C35.5265 88.1652 34.8388 88.9414 35.1315 89.9227C35.2158 90.2527 35.4259 90.5366 35.7167 90.7135L50.1439 99.1199H50.2317C50.934 99.4275 51.5193 98.5781 51.2706 97.6554C51.183 97.331 50.9867 97.0466 50.7145 96.8499Z" fill="#969696"/>
<path d="M72.5454 76.9905C75.1123 75.3758 78.0881 74.5321 81.1198 74.5593L135.258 77.3127C138.185 77.3348 141.058 76.522 143.54 74.9694C145.328 73.9143 146.997 72.6669 148.515 71.2495C153.098 66.9154 156.605 61.5693 158.757 55.6375C160.967 49.6476 161.435 43.9212 160.103 39.5276C158.772 35.134 155.787 32.6443 151.69 32.4686L151.997 31.6338C156.24 31.8242 159.313 34.4311 160.776 38.9565C162.24 43.4819 161.669 49.384 159.313 55.579C157.057 61.7464 153.389 67.299 148.603 71.7914C147.029 73.253 145.302 74.5396 143.452 75.6285C140.877 77.2382 137.899 78.0861 134.863 78.0742L80.7247 75.3063C77.7919 75.2898 74.9148 76.1075 72.4284 77.6642C70.6472 78.718 68.9842 79.9602 67.4681 81.3694C62.8846 85.7087 59.3773 91.0598 57.2257 96.996C55.0163 102.971 54.5334 108.712 55.8796 113.106C57.2257 117.5 60.196 119.975 64.293 120.165L63.9857 121C59.7424 120.795 56.6697 118.203 55.2065 113.677C53.7433 109.152 54.314 103.25 56.6697 97.04C58.9332 90.8807 62.6006 85.3346 67.3803 80.8422C68.9546 79.3713 70.6869 78.0796 72.5454 76.9905Z" fill="#D2DBDF"/>
</g>
<defs>
<linearGradient id="paint0_linear_3125_643" x1="48.9148" y1="112.96" x2="102.774" y2="23.6224" gradientUnits="userSpaceOnUse">
<stop stop-color="#222121"/>
<stop offset="0.01" stop-color="#252424"/>
<stop offset="0.06" stop-color="#4B4E4F"/>
<stop offset="0.13" stop-color="#4E5153"/>
<stop offset="0.23" stop-color="#2E3333"/>
<stop offset="0.5" stop-color="#3F3C3C"/>
<stop offset="0.76" stop-color="#2F2F32"/>
<stop offset="0.86" stop-color="#2B2D2E"/>
<stop offset="0.93" stop-color="#3C3F41"/>
<stop offset="1" stop-color="#404446"/>
</linearGradient>
<linearGradient id="paint1_linear_3125_643" x1="97.5808" y1="16.4614" x2="156.343" y2="16.4614" gradientUnits="userSpaceOnUse">
<stop stop-color="#D7DFE3"/>
<stop offset="0.16" stop-color="#EAEEF0"/>
<stop offset="0.35" stop-color="#FAFBFB"/>
<stop offset="0.5" stop-color="white"/>
<stop offset="0.66" stop-color="#FBFCFC"/>
<stop offset="0.81" stop-color="#F0F3F4"/>
<stop offset="0.96" stop-color="#DDE4E7"/>
<stop offset="1" stop-color="#D7DFE3"/>
</linearGradient>
<clipPath id="clip0_3125_643">
<rect width="166" height="121" fill="white"/>
</clipPath>
</defs>
</svg>
