<svg width="34" height="37" viewBox="0 0 34 37" fill="none" xmlns="http://www.w3.org/2000/svg">
<path fill-rule="evenodd" clip-rule="evenodd" d="M7.50348e-07 18.4972C-0.000998124 21.9757 0.995313 25.3764 2.86291 28.2692C4.73051 31.1619 7.3855 33.4167 10.492 34.7484C13.5986 36.0801 17.0171 36.4288 20.3153 35.7504C23.6134 35.072 26.643 33.397 29.0208 30.9373C31.3986 28.4776 33.0178 25.3437 33.6736 21.9319C34.3294 18.5201 33.9923 14.9838 32.705 11.7702C31.4177 8.55667 29.2379 5.81022 26.4415 3.87829C23.6451 1.94635 20.3577 0.915716 16.9949 0.916749C12.488 0.918134 8.16607 2.7708 4.97918 6.06746C1.7923 9.36413 0.00133951 13.835 7.50348e-07 18.4972Z" fill="#0C0C4F"/>
<path fill-rule="evenodd" clip-rule="evenodd" d="M9.49989 14.3595L9.91908 13.0168C9.96122 12.8822 10.0342 12.7601 10.1318 12.6609C10.2294 12.5618 10.3488 12.4885 10.4797 12.4474L11.7777 12.0346C11.8176 12.0227 11.8527 11.9976 11.8777 11.9632C11.9027 11.9288 11.9162 11.887 11.9162 11.844C11.9162 11.8009 11.9027 11.7591 11.8777 11.7247C11.8527 11.6903 11.8176 11.6652 11.7777 11.6533L10.4797 11.2196C10.3499 11.1753 10.2323 11.0995 10.1365 10.9986C10.0408 10.8978 9.9697 10.7747 9.92918 10.6397L9.53524 9.27611C9.52367 9.23479 9.49944 9.19848 9.46619 9.17263C9.43295 9.14679 9.39249 9.13281 9.3509 9.13281C9.30931 9.13281 9.26885 9.14679 9.2356 9.17263C9.20236 9.19848 9.17812 9.23479 9.16655 9.27611L8.74736 10.6188C8.70534 10.7527 8.63299 10.8742 8.53635 10.9732C8.43971 11.0723 8.32158 11.146 8.19181 11.1883L6.88878 11.601C6.85075 11.6143 6.8177 11.6396 6.7943 11.6733C6.77089 11.7071 6.7583 11.7476 6.7583 11.7891C6.7583 11.8306 6.77089 11.8711 6.7943 11.9048C6.8177 11.9386 6.85075 11.9639 6.88878 11.9772L8.18171 12.4108C8.31151 12.4535 8.42938 12.5281 8.52525 12.6282C8.62112 12.7282 8.69213 12.8508 8.73221 12.9855L9.1312 14.3334C9.13974 14.3758 9.16143 14.4142 9.19298 14.4426C9.22454 14.4711 9.26422 14.4881 9.30598 14.491C9.34773 14.494 9.38928 14.4827 9.42429 14.459C9.4593 14.4353 9.48585 14.4003 9.49989 14.3595Z" fill="#FAFAFA"/>
<path fill-rule="evenodd" clip-rule="evenodd" d="M30.0909 13.5756C29.4986 12.9652 28.7281 12.574 27.899 12.4628C27.0731 12.3191 26.2299 12.3191 25.404 12.4628C23.8209 12.7654 22.3139 13.3982 20.9747 14.3227C20.3269 14.7487 19.7092 15.2219 19.1262 15.7385C18.8384 15.9945 18.5808 16.261 18.3081 16.5326L17.5606 17.2954C16.8101 18.1207 16.0142 18.9004 15.1767 19.6308C14.5016 20.2255 13.7587 20.7325 12.9646 21.1406C12.1901 21.5186 11.3462 21.72 10.4899 21.731C9.3365 21.7399 8.18697 21.5924 7.07068 21.2921C5.8131 20.9891 4.49492 20.5607 3.03027 20.1898C3.54755 21.6478 4.32156 22.9941 5.3131 24.1604C6.37296 25.431 7.69736 26.4366 9.18684 27.1018C10.9086 27.8589 12.8099 28.0663 14.6464 27.6974C16.4106 27.3167 18.0683 26.5272 19.4949 25.3881C20.7502 24.3895 21.8667 23.2169 22.8131 21.9034C23.0656 21.5586 23.1969 21.381 23.3788 21.0988L23.8838 20.3308C24.2323 19.8554 24.5505 19.3173 24.8939 18.8419C25.5502 17.8434 26.2583 16.8824 27.0151 15.9632C27.4097 15.4862 27.8404 15.0425 28.303 14.6361C28.5545 14.4215 28.8194 14.2243 29.0959 14.0458C29.4033 13.8391 29.7386 13.6807 30.0909 13.5756Z" fill="#EC796B"/>
<path fill-rule="evenodd" clip-rule="evenodd" d="M30.0909 13.5755C29.4155 11.9027 28.2035 10.5218 26.6589 9.6653C25.1144 8.80884 23.3317 8.52919 21.6111 8.87345C20.6475 9.06284 19.7208 9.41592 18.8687 9.91835C18.0675 10.4095 17.328 11.0008 16.6666 11.679C16.3485 11.9977 16.0555 12.3373 15.7676 12.6717L15.0252 13.6591L13.8737 15.2264C12.404 17.264 10.8434 19.6516 8.23229 20.3569C5.62118 21.0622 4.58583 20.4457 3.03027 20.1949C3.30377 20.9594 3.67948 21.6804 4.14644 22.337C4.62631 23.0247 5.20151 23.6356 5.85351 24.1499C6.21084 24.4207 6.58732 24.6635 6.97977 24.8761C7.3996 25.0908 7.83743 25.2657 8.28785 25.3985C9.25914 25.6745 10.2739 25.7473 11.2727 25.6127C12.258 25.4727 13.2139 25.1637 14.101 24.6984C14.9075 24.281 15.665 23.7692 16.3586 23.1729C17.5793 22.106 18.6578 20.8762 19.5656 19.5157C20 18.8836 20.399 18.241 20.7626 17.5984L21.2121 16.8356C21.3434 16.6109 21.4798 16.3863 21.6161 16.1773C22.0759 15.4047 22.6581 14.7177 23.3384 14.145C24.1263 13.5377 25.0737 13.1917 26.0555 13.1523C27.4134 13.0904 28.7727 13.2329 30.0909 13.5755Z" fill="#FAFAFA"/>
<path fill-rule="evenodd" clip-rule="evenodd" d="M23.6816 26.0881C23.6806 26.4852 23.7935 26.8735 24.006 27.2042C24.2185 27.5348 24.5211 27.7927 24.8754 27.9454C25.2296 28.098 25.6198 28.1385 25.9963 28.0617C26.3728 27.9848 26.7189 27.7942 26.9906 27.5138C27.2623 27.2335 27.4476 26.876 27.5228 26.4867C27.598 26.0974 27.5599 25.6937 27.4133 25.3268C27.2666 24.96 27.0181 24.6463 26.699 24.4256C26.38 24.205 26.0048 24.0872 25.621 24.0872C25.3666 24.0865 25.1145 24.1377 24.8792 24.238C24.644 24.3382 24.4301 24.4855 24.25 24.6714C24.0698 24.8573 23.9269 25.0781 23.8294 25.3212C23.7318 25.5643 23.6816 25.8249 23.6816 26.0881Z" fill="#EC796B"/>
</svg>
