<svg width="20" height="20" viewBox="0 0 20 20" fill="none" xmlns="http://www.w3.org/2000/svg">
<g clip-path="url(#clip0_3063_1946)">
<path d="M18.3332 8.3335V5.00016C18.3332 4.07516 17.5832 3.3335 16.6665 3.3335H3.33317C2.4165 3.3335 1.67484 4.07516 1.67484 5.00016V8.3335C2.5915 8.3335 3.33317 9.0835 3.33317 10.0002C3.33317 10.9168 2.5915 11.6668 1.6665 11.6668V15.0002C1.6665 15.9168 2.4165 16.6668 3.33317 16.6668H16.6665C17.5832 16.6668 18.3332 15.9168 18.3332 15.0002V11.6668C17.4165 11.6668 16.6665 10.9168 16.6665 10.0002C16.6665 9.0835 17.4165 8.3335 18.3332 8.3335ZM10.8332 14.5835H9.1665V12.9168H10.8332V14.5835ZM10.8332 10.8335H9.1665V9.16683H10.8332V10.8335ZM10.8332 7.0835H9.1665V5.41683H10.8332V7.0835Z" fill="#0000FE"/>
</g>
<defs>
<clipPath id="clip0_3063_1946">
<rect width="20" height="20" fill="white"/>
</clipPath>
</defs>
</svg>
