<svg width="20" height="25" viewBox="0 0 20 25" fill="none" xmlns="http://www.w3.org/2000/svg">
<path d="M0.659963 12.2934C0.867837 12.0791 1.11492 11.9091 1.38702 11.793C1.65913 11.677 1.95089 11.6173 2.24555 11.6173C2.54022 11.6173 2.83198 11.677 3.10408 11.793C3.37618 11.9091 3.62327 12.0791 3.83114 12.2934L7.91955 16.4888C8.12753 16.704 8.37496 16.8748 8.64758 16.9913C8.9202 17.1079 9.21261 17.1679 9.50794 17.1679C9.80327 17.1679 10.0957 17.1079 10.3683 16.9913C10.6409 16.8748 10.8884 16.704 11.0963 16.4888L15.1791 12.2934C15.3871 12.0783 15.6346 11.9075 15.9072 11.7909C16.1798 11.6744 16.4722 11.6144 16.7675 11.6144C17.0629 11.6144 17.3553 11.6744 17.6279 11.7909C17.9005 11.9075 18.1479 12.0783 18.3559 12.2934C18.5656 12.5069 18.732 12.7608 18.8456 13.0405C18.9592 13.3203 19.0177 13.6203 19.0177 13.9234C19.0177 14.2264 18.9592 14.5265 18.8456 14.8062C18.732 15.086 18.5656 15.3399 18.3559 15.5533L12.6847 21.3729C12.6847 22.2374 12.35 23.0666 11.7543 23.6779C11.1585 24.2893 10.3505 24.6327 9.50794 24.6327C8.66541 24.6327 7.85738 24.2893 7.26162 23.6779C6.66586 23.0666 6.33117 22.2374 6.33117 21.3729L0.659963 15.5533C0.450278 15.3399 0.283846 15.086 0.170268 14.8062C0.0566902 14.5265 -0.00178528 14.2264 -0.00178528 13.9234C-0.00178528 13.6203 0.0566902 13.3203 0.170268 13.0405C0.283846 12.7608 0.450278 12.5069 0.659963 12.2934Z" fill="#F4C245"/>
<path d="M0.659964 1.14785C0.867837 0.933545 1.11492 0.763489 1.38702 0.647452C1.65913 0.531414 1.95089 0.47168 2.24555 0.47168C2.54022 0.47168 2.83198 0.531414 3.10408 0.647452C3.37618 0.763489 3.62327 0.933545 3.83114 1.14785L7.91955 5.33747C8.12753 5.55264 8.37496 5.72343 8.64758 5.83998C8.9202 5.95653 9.21261 6.01653 9.50794 6.01653C9.80327 6.01653 10.0957 5.95653 10.3683 5.83998C10.6409 5.72343 10.8883 5.55264 11.0963 5.33747L15.1791 1.14785C15.5997 0.715565 16.1703 0.472407 16.7656 0.471869C17.3608 0.471331 17.9319 0.713457 18.3531 1.14498C18.7744 1.57651 19.0113 2.16208 19.0119 2.77289C19.0124 3.38369 18.7764 3.9697 18.3559 4.40198L12.6847 10.1986C12.6847 11.0632 12.35 11.8923 11.7543 12.5037C11.1585 13.115 10.3505 13.4585 9.50794 13.4585C8.66541 13.4585 7.85738 13.115 7.26162 12.5037C6.66586 11.8923 6.33117 11.0632 6.33117 10.1986L0.659964 4.37329C0.246683 3.94365 0.0149536 3.36426 0.0149536 2.76057C0.0149536 2.15688 0.246683 1.57749 0.659964 1.14785Z" fill="#F4C245"/>
</svg>
